<svg width="17" height="14" viewBox="0 0 17 14" fill="none" xmlns="http://www.w3.org/2000/svg">
<path d="M11.7846 13.7028L11.5428 12.4937C11.3816 12.4265 11.2303 12.3559 11.089 12.2817C10.9477 12.2076 10.8034 12.117 10.6562 12.0101L9.48741 12.3728L8.68136 11.0025L9.60831 10.1965C9.58144 10.0084 9.56801 9.83375 9.56801 9.67254C9.56801 9.51133 9.58144 9.33669 9.60831 9.14861L8.68136 8.34257L9.48741 6.97229L10.6562 7.33501C10.8039 7.22754 10.9485 7.13699 11.0898 7.06337C11.2311 6.98976 11.3821 6.91909 11.5428 6.85139L11.7846 5.64232H13.3967L13.6385 6.85139C13.7997 6.91856 13.951 6.99244 14.0923 7.07305C14.2337 7.15365 14.378 7.25441 14.5252 7.37531L15.694 6.97229L16.5 8.38287L15.573 9.18892C15.5999 9.35013 15.6133 9.51805 15.6133 9.69269C15.6133 9.86734 15.5999 10.0353 15.573 10.1965L16.5 11.0025L15.694 12.3728L14.5252 12.0101C14.3774 12.1175 14.2331 12.2084 14.0923 12.2825C13.9516 12.3567 13.8003 12.4271 13.6385 12.4937L13.3967 13.7028H11.7846ZM0.5 12.8967V10.6398C0.5 10.1965 0.61419 9.78002 0.842569 9.39043C1.07095 9.00084 1.38665 8.70529 1.78967 8.50378C2.47481 8.15449 3.24727 7.85894 4.10705 7.61713C4.96683 7.37531 5.91394 7.25441 6.94836 7.25441H7.23048C7.31108 7.25441 7.39169 7.26784 7.47229 7.29471C7.0827 8.26196 6.92149 9.2225 6.98867 10.1763C7.05584 11.1301 7.37825 12.0369 7.95592 12.8967H0.5ZM12.5907 11.2846C13.034 11.2846 13.4137 11.1266 13.7296 10.8107C14.0456 10.4947 14.2033 10.1153 14.2028 9.67254C14.2028 9.22922 14.0448 8.84957 13.7288 8.5336C13.4128 8.21763 13.0335 8.05992 12.5907 8.06045C12.1474 8.06045 11.7677 8.21844 11.4517 8.53441C11.1358 8.85038 10.9781 9.22976 10.9786 9.67254C10.9786 10.1159 11.1366 10.4955 11.4525 10.8115C11.7685 11.1275 12.1479 11.2852 12.5907 11.2846ZM6.94836 6.44836C6.06171 6.44836 5.30269 6.13266 4.67128 5.50126C4.03988 4.86986 3.72418 4.11083 3.72418 3.22418C3.72418 2.33753 4.03988 1.57851 4.67128 0.947103C5.30269 0.315701 6.06171 0 6.94836 0C7.83501 0 8.59404 0.315701 9.22544 0.947103C9.85684 1.57851 10.1725 2.33753 10.1725 3.22418C10.1725 4.11083 9.85684 4.86986 9.22544 5.50126C8.59404 6.13266 7.83501 6.44836 6.94836 6.44836Z" fill="#333333"/>
<path d="M11.7846 13.7028L11.5428 12.4937C11.3816 12.4265 11.2303 12.3559 11.089 12.2817C10.9477 12.2076 10.8034 12.117 10.6562 12.0101L9.48741 12.3728L8.68136 11.0025L9.60831 10.1965C9.58144 10.0084 9.56801 9.83375 9.56801 9.67254C9.56801 9.51133 9.58144 9.33669 9.60831 9.14861L8.68136 8.34257L9.48741 6.97229L10.6562 7.33501C10.8039 7.22754 10.9485 7.13699 11.0898 7.06337C11.2311 6.98976 11.3821 6.91909 11.5428 6.85139L11.7846 5.64232H13.3967L13.6385 6.85139C13.7997 6.91856 13.951 6.99244 14.0923 7.07305C14.2337 7.15365 14.378 7.25441 14.5252 7.37531L15.694 6.97229L16.5 8.38287L15.573 9.18892C15.5999 9.35013 15.6133 9.51805 15.6133 9.69269C15.6133 9.86734 15.5999 10.0353 15.573 10.1965L16.5 11.0025L15.694 12.3728L14.5252 12.0101C14.3774 12.1175 14.2331 12.2084 14.0923 12.2825C13.9516 12.3567 13.8003 12.4271 13.6385 12.4937L13.3967 13.7028H11.7846ZM0.5 12.8967V10.6398C0.5 10.1965 0.61419 9.78002 0.842569 9.39043C1.07095 9.00084 1.38665 8.70529 1.78967 8.50378C2.47481 8.15449 3.24727 7.85894 4.10705 7.61713C4.96683 7.37531 5.91394 7.25441 6.94836 7.25441H7.23048C7.31108 7.25441 7.39169 7.26784 7.47229 7.29471C7.0827 8.26196 6.92149 9.2225 6.98867 10.1763C7.05584 11.1301 7.37825 12.0369 7.95592 12.8967H0.5ZM12.5907 11.2846C13.034 11.2846 13.4137 11.1266 13.7296 10.8107C14.0456 10.4947 14.2033 10.1153 14.2028 9.67254C14.2028 9.22922 14.0448 8.84957 13.7288 8.5336C13.4128 8.21763 13.0335 8.05992 12.5907 8.06045C12.1474 8.06045 11.7677 8.21844 11.4517 8.53441C11.1358 8.85038 10.9781 9.22976 10.9786 9.67254C10.9786 10.1159 11.1366 10.4955 11.4525 10.8115C11.7685 11.1275 12.1479 11.2852 12.5907 11.2846ZM6.94836 6.44836C6.06171 6.44836 5.30269 6.13266 4.67128 5.50126C4.03988 4.86986 3.72418 4.11083 3.72418 3.22418C3.72418 2.33753 4.03988 1.57851 4.67128 0.947103C5.30269 0.315701 6.06171 0 6.94836 0C7.83501 0 8.59404 0.315701 9.22544 0.947103C9.85684 1.57851 10.1725 2.33753 10.1725 3.22418C10.1725 4.11083 9.85684 4.86986 9.22544 5.50126C8.59404 6.13266 7.83501 6.44836 6.94836 6.44836Z" fill="black" fill-opacity="0.2"/>
<path d="M11.7846 13.7028L11.5428 12.4937C11.3816 12.4265 11.2303 12.3559 11.089 12.2817C10.9477 12.2076 10.8034 12.117 10.6562 12.0101L9.48741 12.3728L8.68136 11.0025L9.60831 10.1965C9.58144 10.0084 9.56801 9.83375 9.56801 9.67254C9.56801 9.51133 9.58144 9.33669 9.60831 9.14861L8.68136 8.34257L9.48741 6.97229L10.6562 7.33501C10.8039 7.22754 10.9485 7.13699 11.0898 7.06337C11.2311 6.98976 11.3821 6.91909 11.5428 6.85139L11.7846 5.64232H13.3967L13.6385 6.85139C13.7997 6.91856 13.951 6.99244 14.0923 7.07305C14.2337 7.15365 14.378 7.25441 14.5252 7.37531L15.694 6.97229L16.5 8.38287L15.573 9.18892C15.5999 9.35013 15.6133 9.51805 15.6133 9.69269C15.6133 9.86734 15.5999 10.0353 15.573 10.1965L16.5 11.0025L15.694 12.3728L14.5252 12.0101C14.3774 12.1175 14.2331 12.2084 14.0923 12.2825C13.9516 12.3567 13.8003 12.4271 13.6385 12.4937L13.3967 13.7028H11.7846ZM0.5 12.8967V10.6398C0.5 10.1965 0.61419 9.78002 0.842569 9.39043C1.07095 9.00084 1.38665 8.70529 1.78967 8.50378C2.47481 8.15449 3.24727 7.85894 4.10705 7.61713C4.96683 7.37531 5.91394 7.25441 6.94836 7.25441H7.23048C7.31108 7.25441 7.39169 7.26784 7.47229 7.29471C7.0827 8.26196 6.92149 9.2225 6.98867 10.1763C7.05584 11.1301 7.37825 12.0369 7.95592 12.8967H0.5ZM12.5907 11.2846C13.034 11.2846 13.4137 11.1266 13.7296 10.8107C14.0456 10.4947 14.2033 10.1153 14.2028 9.67254C14.2028 9.22922 14.0448 8.84957 13.7288 8.5336C13.4128 8.21763 13.0335 8.05992 12.5907 8.06045C12.1474 8.06045 11.7677 8.21844 11.4517 8.53441C11.1358 8.85038 10.9781 9.22976 10.9786 9.67254C10.9786 10.1159 11.1366 10.4955 11.4525 10.8115C11.7685 11.1275 12.1479 11.2852 12.5907 11.2846ZM6.94836 6.44836C6.06171 6.44836 5.30269 6.13266 4.67128 5.50126C4.03988 4.86986 3.72418 4.11083 3.72418 3.22418C3.72418 2.33753 4.03988 1.57851 4.67128 0.947103C5.30269 0.315701 6.06171 0 6.94836 0C7.83501 0 8.59404 0.315701 9.22544 0.947103C9.85684 1.57851 10.1725 2.33753 10.1725 3.22418C10.1725 4.11083 9.85684 4.86986 9.22544 5.50126C8.59404 6.13266 7.83501 6.44836 6.94836 6.44836Z" fill="black" fill-opacity="0.2"/>
<path d="M11.7846 13.7028L11.5428 12.4937C11.3816 12.4265 11.2303 12.3559 11.089 12.2817C10.9477 12.2076 10.8034 12.117 10.6562 12.0101L9.48741 12.3728L8.68136 11.0025L9.60831 10.1965C9.58144 10.0084 9.56801 9.83375 9.56801 9.67254C9.56801 9.51133 9.58144 9.33669 9.60831 9.14861L8.68136 8.34257L9.48741 6.97229L10.6562 7.33501C10.8039 7.22754 10.9485 7.13699 11.0898 7.06337C11.2311 6.98976 11.3821 6.91909 11.5428 6.85139L11.7846 5.64232H13.3967L13.6385 6.85139C13.7997 6.91856 13.951 6.99244 14.0923 7.07305C14.2337 7.15365 14.378 7.25441 14.5252 7.37531L15.694 6.97229L16.5 8.38287L15.573 9.18892C15.5999 9.35013 15.6133 9.51805 15.6133 9.69269C15.6133 9.86734 15.5999 10.0353 15.573 10.1965L16.5 11.0025L15.694 12.3728L14.5252 12.0101C14.3774 12.1175 14.2331 12.2084 14.0923 12.2825C13.9516 12.3567 13.8003 12.4271 13.6385 12.4937L13.3967 13.7028H11.7846ZM0.5 12.8967V10.6398C0.5 10.1965 0.61419 9.78002 0.842569 9.39043C1.07095 9.00084 1.38665 8.70529 1.78967 8.50378C2.47481 8.15449 3.24727 7.85894 4.10705 7.61713C4.96683 7.37531 5.91394 7.25441 6.94836 7.25441H7.23048C7.31108 7.25441 7.39169 7.26784 7.47229 7.29471C7.0827 8.26196 6.92149 9.2225 6.98867 10.1763C7.05584 11.1301 7.37825 12.0369 7.95592 12.8967H0.5ZM12.5907 11.2846C13.034 11.2846 13.4137 11.1266 13.7296 10.8107C14.0456 10.4947 14.2033 10.1153 14.2028 9.67254C14.2028 9.22922 14.0448 8.84957 13.7288 8.5336C13.4128 8.21763 13.0335 8.05992 12.5907 8.06045C12.1474 8.06045 11.7677 8.21844 11.4517 8.53441C11.1358 8.85038 10.9781 9.22976 10.9786 9.67254C10.9786 10.1159 11.1366 10.4955 11.4525 10.8115C11.7685 11.1275 12.1479 11.2852 12.5907 11.2846ZM6.94836 6.44836C6.06171 6.44836 5.30269 6.13266 4.67128 5.50126C4.03988 4.86986 3.72418 4.11083 3.72418 3.22418C3.72418 2.33753 4.03988 1.57851 4.67128 0.947103C5.30269 0.315701 6.06171 0 6.94836 0C7.83501 0 8.59404 0.315701 9.22544 0.947103C9.85684 1.57851 10.1725 2.33753 10.1725 3.22418C10.1725 4.11083 9.85684 4.86986 9.22544 5.50126C8.59404 6.13266 7.83501 6.44836 6.94836 6.44836Z" fill="black" fill-opacity="0.2"/>
</svg>
