<svg width="14" height="9" viewBox="0 0 14 9" fill="currentColor" xmlns="http://www.w3.org/2000/svg">
<path d="M7.00006 6.01794L11.8969 1.12108C12.1271 0.890883 12.4201 0.775785 12.7758 0.775785C13.1316 0.775785 13.4246 0.890883 13.6548 1.12108C13.885 1.35127 14.0001 1.64425 14.0001 2C14.0001 2.35576 13.885 2.64873 13.6548 2.87892L7.87898 8.65471C7.75342 8.78027 7.6174 8.869 7.47091 8.9209C7.32443 8.9728 7.16747 8.99916 7.00006 9C6.83265 9 6.6757 8.97363 6.52921 8.9209C6.38272 8.86816 6.2467 8.77943 6.12114 8.65471L0.345352 2.87892C0.115157 2.64873 6.07447e-05 2.35576 6.07292e-05 2C6.07136e-05 1.64425 0.115157 1.35127 0.345352 1.12108C0.575546 0.890883 0.868521 0.775785 1.22428 0.775785C1.58003 0.775785 1.87301 0.890883 2.1032 1.12108L7.00006 6.01794Z"/>

</svg>
