<svg width="8" height="14" viewBox="0 0 8 14" fill="currentColor" xmlns="http://www.w3.org/2000/svg">
<path d="M2.85544 7L7.54437 11.8969C7.76479 12.1271 7.875 12.42 7.875 12.7758C7.875 13.1315 7.76479 13.4245 7.54437 13.6547C7.32395 13.8849 7.04342 14 6.70277 14C6.36212 14 6.08158 13.8849 5.86116 13.6547L0.330629 7.87892C0.2104 7.75336 0.125439 7.61734 0.0757439 7.47085C0.0260493 7.32436 0.000801527 7.16741 0 7C0 6.83259 0.0252478 6.67563 0.0757439 6.52915C0.12624 6.38266 0.211202 6.24664 0.330629 6.12108L5.86116 0.345291C6.08158 0.115097 6.36212 0 6.70277 0C7.04342 0 7.32395 0.115097 7.54437 0.345291C7.76479 0.575485 7.875 0.86846 7.875 1.22422C7.875 1.57997 7.76479 1.87294 7.54437 2.10314L2.85544 7Z" />

</svg>
