<svg width="15" height="16" viewBox="0 0 15 16" fill="none" xmlns="http://www.w3.org/2000/svg">
<path d="M9.63126 13.7143C9.63126 14.3205 9.3925 14.9019 8.96751 15.3305C8.54252 15.7592 7.96611 16 7.36508 16C6.76405 16 6.18764 15.7592 5.76265 15.3305C5.33766 14.9019 5.0989 14.3205 5.0989 13.7143H9.63126ZM13.0305 12.5714H0.679853C0.499545 12.5714 0.326622 12.4992 0.199125 12.3706C0.0716272 12.242 0 12.0675 0 11.8857C0 11.7038 0.0716272 11.5294 0.199125 11.4008C0.326622 11.2722 0.499545 11.2 0.679853 11.2H1.69963V6.85706C1.69963 4.09132 3.64855 1.78273 6.23766 1.25701C6.22184 1.0981 6.23922 0.93761 6.28868 0.785891C6.33814 0.634172 6.41858 0.494593 6.52481 0.376155C6.63103 0.257718 6.76069 0.163052 6.90542 0.0982631C7.05015 0.033474 7.20674 0 7.36508 0C7.52342 0 7.68001 0.033474 7.82474 0.0982631C7.96947 0.163052 8.09913 0.257718 8.20535 0.376155C8.31158 0.494593 8.39202 0.634172 8.44148 0.785891C8.49094 0.93761 8.50832 1.0981 8.4925 1.25701C9.77302 1.51972 10.9242 2.22065 11.7512 3.24116C12.5781 4.26166 13.0301 5.53904 13.0305 6.85706V11.2H14.0503C14.2306 11.2 14.4035 11.2722 14.531 11.4008C14.6585 11.5294 14.7302 11.7038 14.7302 11.8857C14.7302 12.0675 14.6585 12.242 14.531 12.3706C14.4035 12.4992 14.2306 12.5714 14.0503 12.5714H13.0305Z" fill="white"/>
</svg>
