<svg width="15" height="16" viewBox="0 0 15 16" fill="none" xmlns="http://www.w3.org/2000/svg">
<path d="M12.09 6H10.5V1C10.5 0.45 10.05 0 9.5 0H5.5C4.95 0 4.5 0.45 4.5 1V6H2.91C2.02 6 1.57 7.08 2.2 7.71L6.79 12.3C7.18 12.69 7.81 12.69 8.2 12.3L12.79 7.71C13.42 7.08 12.98 6 12.09 6ZM0.5 15C0.5 15.55 0.95 16 1.5 16H13.5C14.05 16 14.5 15.55 14.5 15C14.5 14.45 14.05 14 13.5 14H1.5C0.95 14 0.5 14.45 0.5 15Z" fill="#333333"/>
<path d="M12.09 6H10.5V1C10.5 0.45 10.05 0 9.5 0H5.5C4.95 0 4.5 0.45 4.5 1V6H2.91C2.02 6 1.57 7.08 2.2 7.71L6.79 12.3C7.18 12.69 7.81 12.69 8.2 12.3L12.79 7.71C13.42 7.08 12.98 6 12.09 6ZM0.5 15C0.5 15.55 0.95 16 1.5 16H13.5C14.05 16 14.5 15.55 14.5 15C14.5 14.45 14.05 14 13.5 14H1.5C0.95 14 0.5 14.45 0.5 15Z" fill="black" fill-opacity="0.2"/>
<path d="M12.09 6H10.5V1C10.5 0.45 10.05 0 9.5 0H5.5C4.95 0 4.5 0.45 4.5 1V6H2.91C2.02 6 1.57 7.08 2.2 7.71L6.79 12.3C7.18 12.69 7.81 12.69 8.2 12.3L12.79 7.71C13.42 7.08 12.98 6 12.09 6ZM0.5 15C0.5 15.55 0.95 16 1.5 16H13.5C14.05 16 14.5 15.55 14.5 15C14.5 14.45 14.05 14 13.5 14H1.5C0.95 14 0.5 14.45 0.5 15Z" fill="black" fill-opacity="0.2"/>
<path d="M12.09 6H10.5V1C10.5 0.45 10.05 0 9.5 0H5.5C4.95 0 4.5 0.45 4.5 1V6H2.91C2.02 6 1.57 7.08 2.2 7.71L6.79 12.3C7.18 12.69 7.81 12.69 8.2 12.3L12.79 7.71C13.42 7.08 12.98 6 12.09 6ZM0.5 15C0.5 15.55 0.95 16 1.5 16H13.5C14.05 16 14.5 15.55 14.5 15C14.5 14.45 14.05 14 13.5 14H1.5C0.95 14 0.5 14.45 0.5 15Z" fill="black" fill-opacity="0.2"/>
</svg>
