<svg width="18" height="14" viewBox="0 0 18 14" fill="none" xmlns="http://www.w3.org/2000/svg">
<path d="M8.99958 0C13.4852 0 17.2172 3.01778 18 7C17.218 10.9822 13.4852 14 8.99958 14C4.51393 14 0.781994 10.9822 0 7C0.781994 3.01778 4.51393 0 8.99958 0ZM8.99958 12.4444C10.6964 12.4443 12.3428 11.9056 13.6695 10.9165C14.9961 9.92741 15.9243 8.54657 16.3021 7C15.9233 5.45441 14.9947 4.07474 13.6683 3.08664C12.3418 2.09854 10.696 1.56049 9 1.56049C7.304 1.56049 5.65819 2.09854 4.33175 3.08664C3.00531 4.07474 2.07674 5.45441 1.69792 7C2.07569 8.54644 3.00375 9.92718 4.3302 10.9162C5.65666 11.9053 7.30293 12.4441 8.99958 12.4444ZM8.99958 10.5C8.00672 10.5 7.05453 10.1313 6.35247 9.47487C5.65041 8.8185 5.256 7.92826 5.256 7C5.256 6.07174 5.65041 5.1815 6.35247 4.52513C7.05453 3.86875 8.00672 3.5 8.99958 3.5C9.99244 3.5 10.9446 3.86875 11.6467 4.52513C12.3488 5.1815 12.7432 6.07174 12.7432 7C12.7432 7.92826 12.3488 8.8185 11.6467 9.47487C10.9446 10.1313 9.99244 10.5 8.99958 10.5ZM8.99958 8.94444C9.55117 8.94444 10.0802 8.73958 10.4702 8.37493C10.8602 8.01028 11.0794 7.5157 11.0794 7C11.0794 6.4843 10.8602 5.98972 10.4702 5.62507C10.0802 5.26042 9.55117 5.05556 8.99958 5.05556C8.44799 5.05556 7.919 5.26042 7.52896 5.62507C7.13893 5.98972 6.91981 6.4843 6.91981 7C6.91981 7.5157 7.13893 8.01028 7.52896 8.37493C7.919 8.73958 8.44799 8.94444 8.99958 8.94444Z" fill="#333333"/>
<path d="M8.99958 0C13.4852 0 17.2172 3.01778 18 7C17.218 10.9822 13.4852 14 8.99958 14C4.51393 14 0.781994 10.9822 0 7C0.781994 3.01778 4.51393 0 8.99958 0ZM8.99958 12.4444C10.6964 12.4443 12.3428 11.9056 13.6695 10.9165C14.9961 9.92741 15.9243 8.54657 16.3021 7C15.9233 5.45441 14.9947 4.07474 13.6683 3.08664C12.3418 2.09854 10.696 1.56049 9 1.56049C7.304 1.56049 5.65819 2.09854 4.33175 3.08664C3.00531 4.07474 2.07674 5.45441 1.69792 7C2.07569 8.54644 3.00375 9.92718 4.3302 10.9162C5.65666 11.9053 7.30293 12.4441 8.99958 12.4444ZM8.99958 10.5C8.00672 10.5 7.05453 10.1313 6.35247 9.47487C5.65041 8.8185 5.256 7.92826 5.256 7C5.256 6.07174 5.65041 5.1815 6.35247 4.52513C7.05453 3.86875 8.00672 3.5 8.99958 3.5C9.99244 3.5 10.9446 3.86875 11.6467 4.52513C12.3488 5.1815 12.7432 6.07174 12.7432 7C12.7432 7.92826 12.3488 8.8185 11.6467 9.47487C10.9446 10.1313 9.99244 10.5 8.99958 10.5ZM8.99958 8.94444C9.55117 8.94444 10.0802 8.73958 10.4702 8.37493C10.8602 8.01028 11.0794 7.5157 11.0794 7C11.0794 6.4843 10.8602 5.98972 10.4702 5.62507C10.0802 5.26042 9.55117 5.05556 8.99958 5.05556C8.44799 5.05556 7.919 5.26042 7.52896 5.62507C7.13893 5.98972 6.91981 6.4843 6.91981 7C6.91981 7.5157 7.13893 8.01028 7.52896 8.37493C7.919 8.73958 8.44799 8.94444 8.99958 8.94444Z" fill="black" fill-opacity="0.2"/>
<path d="M8.99958 0C13.4852 0 17.2172 3.01778 18 7C17.218 10.9822 13.4852 14 8.99958 14C4.51393 14 0.781994 10.9822 0 7C0.781994 3.01778 4.51393 0 8.99958 0ZM8.99958 12.4444C10.6964 12.4443 12.3428 11.9056 13.6695 10.9165C14.9961 9.92741 15.9243 8.54657 16.3021 7C15.9233 5.45441 14.9947 4.07474 13.6683 3.08664C12.3418 2.09854 10.696 1.56049 9 1.56049C7.304 1.56049 5.65819 2.09854 4.33175 3.08664C3.00531 4.07474 2.07674 5.45441 1.69792 7C2.07569 8.54644 3.00375 9.92718 4.3302 10.9162C5.65666 11.9053 7.30293 12.4441 8.99958 12.4444ZM8.99958 10.5C8.00672 10.5 7.05453 10.1313 6.35247 9.47487C5.65041 8.8185 5.256 7.92826 5.256 7C5.256 6.07174 5.65041 5.1815 6.35247 4.52513C7.05453 3.86875 8.00672 3.5 8.99958 3.5C9.99244 3.5 10.9446 3.86875 11.6467 4.52513C12.3488 5.1815 12.7432 6.07174 12.7432 7C12.7432 7.92826 12.3488 8.8185 11.6467 9.47487C10.9446 10.1313 9.99244 10.5 8.99958 10.5ZM8.99958 8.94444C9.55117 8.94444 10.0802 8.73958 10.4702 8.37493C10.8602 8.01028 11.0794 7.5157 11.0794 7C11.0794 6.4843 10.8602 5.98972 10.4702 5.62507C10.0802 5.26042 9.55117 5.05556 8.99958 5.05556C8.44799 5.05556 7.919 5.26042 7.52896 5.62507C7.13893 5.98972 6.91981 6.4843 6.91981 7C6.91981 7.5157 7.13893 8.01028 7.52896 8.37493C7.919 8.73958 8.44799 8.94444 8.99958 8.94444Z" fill="black" fill-opacity="0.2"/>
<path d="M8.99958 0C13.4852 0 17.2172 3.01778 18 7C17.218 10.9822 13.4852 14 8.99958 14C4.51393 14 0.781994 10.9822 0 7C0.781994 3.01778 4.51393 0 8.99958 0ZM8.99958 12.4444C10.6964 12.4443 12.3428 11.9056 13.6695 10.9165C14.9961 9.92741 15.9243 8.54657 16.3021 7C15.9233 5.45441 14.9947 4.07474 13.6683 3.08664C12.3418 2.09854 10.696 1.56049 9 1.56049C7.304 1.56049 5.65819 2.09854 4.33175 3.08664C3.00531 4.07474 2.07674 5.45441 1.69792 7C2.07569 8.54644 3.00375 9.92718 4.3302 10.9162C5.65666 11.9053 7.30293 12.4441 8.99958 12.4444ZM8.99958 10.5C8.00672 10.5 7.05453 10.1313 6.35247 9.47487C5.65041 8.8185 5.256 7.92826 5.256 7C5.256 6.07174 5.65041 5.1815 6.35247 4.52513C7.05453 3.86875 8.00672 3.5 8.99958 3.5C9.99244 3.5 10.9446 3.86875 11.6467 4.52513C12.3488 5.1815 12.7432 6.07174 12.7432 7C12.7432 7.92826 12.3488 8.8185 11.6467 9.47487C10.9446 10.1313 9.99244 10.5 8.99958 10.5ZM8.99958 8.94444C9.55117 8.94444 10.0802 8.73958 10.4702 8.37493C10.8602 8.01028 11.0794 7.5157 11.0794 7C11.0794 6.4843 10.8602 5.98972 10.4702 5.62507C10.0802 5.26042 9.55117 5.05556 8.99958 5.05556C8.44799 5.05556 7.919 5.26042 7.52896 5.62507C7.13893 5.98972 6.91981 6.4843 6.91981 7C6.91981 7.5157 7.13893 8.01028 7.52896 8.37493C7.919 8.73958 8.44799 8.94444 8.99958 8.94444Z" fill="black" fill-opacity="0.2"/>
</svg>
