<svg width="16" height="16" viewBox="0 0 16 16" fill="none" xmlns="http://www.w3.org/2000/svg">
<path d="M12.35 13.5034C11.0492 14.345 9.54001 14.7906 7.99963 14.7879C4.01239 14.7879 0.695106 11.8614 0 7.99962C0.317743 6.24321 1.18357 4.6386 2.46836 3.42507L0.156769 1.06652L1.20238 0L15.8432 14.9327L14.7976 16L12.35 13.5034ZM3.51546 4.49234C2.51025 5.42419 1.80993 6.6485 1.50927 7.99962C1.7402 9.03028 2.20383 9.99172 2.86325 10.8074C3.52266 11.6231 4.35966 12.2705 5.30761 12.6981C6.25556 13.1257 7.28829 13.3217 8.32359 13.2704C9.35888 13.2192 10.3682 12.9222 11.2711 12.403L9.77141 10.8733C9.13301 11.2835 8.37691 11.4602 7.62711 11.3745C6.87731 11.2888 6.17833 10.9457 5.64483 10.4015C5.11132 9.85732 4.77495 9.14437 4.6909 8.37959C4.60685 7.6148 4.7801 6.84358 5.18223 6.19243L3.51546 4.49234ZM8.67551 9.75553L6.27813 7.31099C6.14656 7.65262 6.11559 8.02599 6.18903 8.38531C6.26247 8.74462 6.43713 9.07427 6.69159 9.33381C6.94604 9.59335 7.26923 9.7715 7.6215 9.84641C7.97378 9.92132 8.34058 9.88974 8.67551 9.75553ZM14.5122 11.4639L13.454 10.3846C13.9486 9.66606 14.3008 8.8559 14.4907 7.99962C14.2898 7.10177 13.9119 6.25498 13.3801 5.51073C12.8483 4.76648 12.1736 4.14032 11.3972 3.67032C10.6207 3.20032 9.75861 2.89629 8.86335 2.77672C7.96808 2.65715 7.05833 2.72454 6.1894 2.97478L5.02251 1.78457C5.94463 1.41498 6.94958 1.21133 7.99963 1.21133C11.9869 1.21133 15.3042 4.13784 16 7.99962C15.7735 9.25625 15.2642 10.4421 14.5122 11.4639ZM7.7948 4.61227C8.26548 4.5826 8.73697 4.65531 9.17801 4.82558C9.61906 4.99586 10.0196 5.2598 10.353 5.59992C10.6865 5.94005 10.9453 6.34858 11.1122 6.79844C11.2791 7.2483 11.3504 7.72921 11.3213 8.2093L7.79406 4.61151L7.7948 4.61227Z" fill="#333333"/>
<path d="M12.35 13.5034C11.0492 14.345 9.54001 14.7906 7.99963 14.7879C4.01239 14.7879 0.695106 11.8614 0 7.99962C0.317743 6.24321 1.18357 4.6386 2.46836 3.42507L0.156769 1.06652L1.20238 0L15.8432 14.9327L14.7976 16L12.35 13.5034ZM3.51546 4.49234C2.51025 5.42419 1.80993 6.6485 1.50927 7.99962C1.7402 9.03028 2.20383 9.99172 2.86325 10.8074C3.52266 11.6231 4.35966 12.2705 5.30761 12.6981C6.25556 13.1257 7.28829 13.3217 8.32359 13.2704C9.35888 13.2192 10.3682 12.9222 11.2711 12.403L9.77141 10.8733C9.13301 11.2835 8.37691 11.4602 7.62711 11.3745C6.87731 11.2888 6.17833 10.9457 5.64483 10.4015C5.11132 9.85732 4.77495 9.14437 4.6909 8.37959C4.60685 7.6148 4.7801 6.84358 5.18223 6.19243L3.51546 4.49234ZM8.67551 9.75553L6.27813 7.31099C6.14656 7.65262 6.11559 8.02599 6.18903 8.38531C6.26247 8.74462 6.43713 9.07427 6.69159 9.33381C6.94604 9.59335 7.26923 9.7715 7.6215 9.84641C7.97378 9.92132 8.34058 9.88974 8.67551 9.75553ZM14.5122 11.4639L13.454 10.3846C13.9486 9.66606 14.3008 8.8559 14.4907 7.99962C14.2898 7.10177 13.9119 6.25498 13.3801 5.51073C12.8483 4.76648 12.1736 4.14032 11.3972 3.67032C10.6207 3.20032 9.75861 2.89629 8.86335 2.77672C7.96808 2.65715 7.05833 2.72454 6.1894 2.97478L5.02251 1.78457C5.94463 1.41498 6.94958 1.21133 7.99963 1.21133C11.9869 1.21133 15.3042 4.13784 16 7.99962C15.7735 9.25625 15.2642 10.4421 14.5122 11.4639ZM7.7948 4.61227C8.26548 4.5826 8.73697 4.65531 9.17801 4.82558C9.61906 4.99586 10.0196 5.2598 10.353 5.59992C10.6865 5.94005 10.9453 6.34858 11.1122 6.79844C11.2791 7.2483 11.3504 7.72921 11.3213 8.2093L7.79406 4.61151L7.7948 4.61227Z" fill="black" fill-opacity="0.2"/>
<path d="M12.35 13.5034C11.0492 14.345 9.54001 14.7906 7.99963 14.7879C4.01239 14.7879 0.695106 11.8614 0 7.99962C0.317743 6.24321 1.18357 4.6386 2.46836 3.42507L0.156769 1.06652L1.20238 0L15.8432 14.9327L14.7976 16L12.35 13.5034ZM3.51546 4.49234C2.51025 5.42419 1.80993 6.6485 1.50927 7.99962C1.7402 9.03028 2.20383 9.99172 2.86325 10.8074C3.52266 11.6231 4.35966 12.2705 5.30761 12.6981C6.25556 13.1257 7.28829 13.3217 8.32359 13.2704C9.35888 13.2192 10.3682 12.9222 11.2711 12.403L9.77141 10.8733C9.13301 11.2835 8.37691 11.4602 7.62711 11.3745C6.87731 11.2888 6.17833 10.9457 5.64483 10.4015C5.11132 9.85732 4.77495 9.14437 4.6909 8.37959C4.60685 7.6148 4.7801 6.84358 5.18223 6.19243L3.51546 4.49234ZM8.67551 9.75553L6.27813 7.31099C6.14656 7.65262 6.11559 8.02599 6.18903 8.38531C6.26247 8.74462 6.43713 9.07427 6.69159 9.33381C6.94604 9.59335 7.26923 9.7715 7.6215 9.84641C7.97378 9.92132 8.34058 9.88974 8.67551 9.75553ZM14.5122 11.4639L13.454 10.3846C13.9486 9.66606 14.3008 8.8559 14.4907 7.99962C14.2898 7.10177 13.9119 6.25498 13.3801 5.51073C12.8483 4.76648 12.1736 4.14032 11.3972 3.67032C10.6207 3.20032 9.75861 2.89629 8.86335 2.77672C7.96808 2.65715 7.05833 2.72454 6.1894 2.97478L5.02251 1.78457C5.94463 1.41498 6.94958 1.21133 7.99963 1.21133C11.9869 1.21133 15.3042 4.13784 16 7.99962C15.7735 9.25625 15.2642 10.4421 14.5122 11.4639ZM7.7948 4.61227C8.26548 4.5826 8.73697 4.65531 9.17801 4.82558C9.61906 4.99586 10.0196 5.2598 10.353 5.59992C10.6865 5.94005 10.9453 6.34858 11.1122 6.79844C11.2791 7.2483 11.3504 7.72921 11.3213 8.2093L7.79406 4.61151L7.7948 4.61227Z" fill="black" fill-opacity="0.2"/>
<path d="M12.35 13.5034C11.0492 14.345 9.54001 14.7906 7.99963 14.7879C4.01239 14.7879 0.695106 11.8614 0 7.99962C0.317743 6.24321 1.18357 4.6386 2.46836 3.42507L0.156769 1.06652L1.20238 0L15.8432 14.9327L14.7976 16L12.35 13.5034ZM3.51546 4.49234C2.51025 5.42419 1.80993 6.6485 1.50927 7.99962C1.7402 9.03028 2.20383 9.99172 2.86325 10.8074C3.52266 11.6231 4.35966 12.2705 5.30761 12.6981C6.25556 13.1257 7.28829 13.3217 8.32359 13.2704C9.35888 13.2192 10.3682 12.9222 11.2711 12.403L9.77141 10.8733C9.13301 11.2835 8.37691 11.4602 7.62711 11.3745C6.87731 11.2888 6.17833 10.9457 5.64483 10.4015C5.11132 9.85732 4.77495 9.14437 4.6909 8.37959C4.60685 7.6148 4.7801 6.84358 5.18223 6.19243L3.51546 4.49234ZM8.67551 9.75553L6.27813 7.31099C6.14656 7.65262 6.11559 8.02599 6.18903 8.38531C6.26247 8.74462 6.43713 9.07427 6.69159 9.33381C6.94604 9.59335 7.26923 9.7715 7.6215 9.84641C7.97378 9.92132 8.34058 9.88974 8.67551 9.75553ZM14.5122 11.4639L13.454 10.3846C13.9486 9.66606 14.3008 8.8559 14.4907 7.99962C14.2898 7.10177 13.9119 6.25498 13.3801 5.51073C12.8483 4.76648 12.1736 4.14032 11.3972 3.67032C10.6207 3.20032 9.75861 2.89629 8.86335 2.77672C7.96808 2.65715 7.05833 2.72454 6.1894 2.97478L5.02251 1.78457C5.94463 1.41498 6.94958 1.21133 7.99963 1.21133C11.9869 1.21133 15.3042 4.13784 16 7.99962C15.7735 9.25625 15.2642 10.4421 14.5122 11.4639ZM7.7948 4.61227C8.26548 4.5826 8.73697 4.65531 9.17801 4.82558C9.61906 4.99586 10.0196 5.2598 10.353 5.59992C10.6865 5.94005 10.9453 6.34858 11.1122 6.79844C11.2791 7.2483 11.3504 7.72921 11.3213 8.2093L7.79406 4.61151L7.7948 4.61227Z" fill="black" fill-opacity="0.2"/>
</svg>
