<svg width="16" height="15" viewBox="0 0 16 15" fill="none" xmlns="http://www.w3.org/2000/svg">
<path d="M3.2 12.899L1.36 14.7532C1.10667 15.0085 0.816534 15.0657 0.489601 14.9249C0.162668 14.7841 -0.00053203 14.532 1.30293e-06 14.1687V1.61237C1.30293e-06 1.16897 0.156801 0.789257 0.470401 0.473232C0.784001 0.157207 1.16053 -0.000536088 1.6 1.36874e-06H14.4C14.84 1.36874e-06 15.2168 0.158014 15.5304 0.474038C15.844 0.790063 16.0005 1.16951 16 1.61237V11.2866C16 11.73 15.8432 12.1097 15.5296 12.4257C15.216 12.7418 14.8395 12.8995 14.4 12.899H3.2ZM8 10.4804C8.22667 10.4804 8.4168 10.403 8.5704 10.2482C8.724 10.0934 8.80053 9.90211 8.8 9.67423C8.8 9.44581 8.7232 9.2542 8.5696 9.09942C8.416 8.94463 8.22613 8.8675 8 8.86804C7.77333 8.86804 7.5832 8.94544 7.4296 9.10022C7.276 9.25501 7.19947 9.44635 7.2 9.67423C7.2 9.90265 7.2768 10.0942 7.4304 10.249C7.584 10.4038 7.77387 10.4809 8 10.4804ZM8 7.25567C8.22667 7.25567 8.4168 7.17828 8.5704 7.02349C8.724 6.8687 8.80053 6.67737 8.8 6.44948V3.22474C8.8 2.99632 8.7232 2.80472 8.5696 2.64993C8.416 2.49515 8.22613 2.41802 8 2.41856C7.77333 2.41856 7.5832 2.49595 7.4296 2.65074C7.276 2.80553 7.19947 2.99686 7.2 3.22474V6.44948C7.2 6.6779 7.2768 6.86951 7.4304 7.0243C7.584 7.17908 7.77387 7.25621 8 7.25567Z" fill="#333333"/>
<path d="M3.2 12.899L1.36 14.7532C1.10667 15.0085 0.816534 15.0657 0.489601 14.9249C0.162668 14.7841 -0.00053203 14.532 1.30293e-06 14.1687V1.61237C1.30293e-06 1.16897 0.156801 0.789257 0.470401 0.473232C0.784001 0.157207 1.16053 -0.000536088 1.6 1.36874e-06H14.4C14.84 1.36874e-06 15.2168 0.158014 15.5304 0.474038C15.844 0.790063 16.0005 1.16951 16 1.61237V11.2866C16 11.73 15.8432 12.1097 15.5296 12.4257C15.216 12.7418 14.8395 12.8995 14.4 12.899H3.2ZM8 10.4804C8.22667 10.4804 8.4168 10.403 8.5704 10.2482C8.724 10.0934 8.80053 9.90211 8.8 9.67423C8.8 9.44581 8.7232 9.2542 8.5696 9.09942C8.416 8.94463 8.22613 8.8675 8 8.86804C7.77333 8.86804 7.5832 8.94544 7.4296 9.10022C7.276 9.25501 7.19947 9.44635 7.2 9.67423C7.2 9.90265 7.2768 10.0942 7.4304 10.249C7.584 10.4038 7.77387 10.4809 8 10.4804ZM8 7.25567C8.22667 7.25567 8.4168 7.17828 8.5704 7.02349C8.724 6.8687 8.80053 6.67737 8.8 6.44948V3.22474C8.8 2.99632 8.7232 2.80472 8.5696 2.64993C8.416 2.49515 8.22613 2.41802 8 2.41856C7.77333 2.41856 7.5832 2.49595 7.4296 2.65074C7.276 2.80553 7.19947 2.99686 7.2 3.22474V6.44948C7.2 6.6779 7.2768 6.86951 7.4304 7.0243C7.584 7.17908 7.77387 7.25621 8 7.25567Z" fill="black" fill-opacity="0.2"/>
<path d="M3.2 12.899L1.36 14.7532C1.10667 15.0085 0.816534 15.0657 0.489601 14.9249C0.162668 14.7841 -0.00053203 14.532 1.30293e-06 14.1687V1.61237C1.30293e-06 1.16897 0.156801 0.789257 0.470401 0.473232C0.784001 0.157207 1.16053 -0.000536088 1.6 1.36874e-06H14.4C14.84 1.36874e-06 15.2168 0.158014 15.5304 0.474038C15.844 0.790063 16.0005 1.16951 16 1.61237V11.2866C16 11.73 15.8432 12.1097 15.5296 12.4257C15.216 12.7418 14.8395 12.8995 14.4 12.899H3.2ZM8 10.4804C8.22667 10.4804 8.4168 10.403 8.5704 10.2482C8.724 10.0934 8.80053 9.90211 8.8 9.67423C8.8 9.44581 8.7232 9.2542 8.5696 9.09942C8.416 8.94463 8.22613 8.8675 8 8.86804C7.77333 8.86804 7.5832 8.94544 7.4296 9.10022C7.276 9.25501 7.19947 9.44635 7.2 9.67423C7.2 9.90265 7.2768 10.0942 7.4304 10.249C7.584 10.4038 7.77387 10.4809 8 10.4804ZM8 7.25567C8.22667 7.25567 8.4168 7.17828 8.5704 7.02349C8.724 6.8687 8.80053 6.67737 8.8 6.44948V3.22474C8.8 2.99632 8.7232 2.80472 8.5696 2.64993C8.416 2.49515 8.22613 2.41802 8 2.41856C7.77333 2.41856 7.5832 2.49595 7.4296 2.65074C7.276 2.80553 7.19947 2.99686 7.2 3.22474V6.44948C7.2 6.6779 7.2768 6.86951 7.4304 7.0243C7.584 7.17908 7.77387 7.25621 8 7.25567Z" fill="black" fill-opacity="0.2"/>
<path d="M3.2 12.899L1.36 14.7532C1.10667 15.0085 0.816534 15.0657 0.489601 14.9249C0.162668 14.7841 -0.00053203 14.532 1.30293e-06 14.1687V1.61237C1.30293e-06 1.16897 0.156801 0.789257 0.470401 0.473232C0.784001 0.157207 1.16053 -0.000536088 1.6 1.36874e-06H14.4C14.84 1.36874e-06 15.2168 0.158014 15.5304 0.474038C15.844 0.790063 16.0005 1.16951 16 1.61237V11.2866C16 11.73 15.8432 12.1097 15.5296 12.4257C15.216 12.7418 14.8395 12.8995 14.4 12.899H3.2ZM8 10.4804C8.22667 10.4804 8.4168 10.403 8.5704 10.2482C8.724 10.0934 8.80053 9.90211 8.8 9.67423C8.8 9.44581 8.7232 9.2542 8.5696 9.09942C8.416 8.94463 8.22613 8.8675 8 8.86804C7.77333 8.86804 7.5832 8.94544 7.4296 9.10022C7.276 9.25501 7.19947 9.44635 7.2 9.67423C7.2 9.90265 7.2768 10.0942 7.4304 10.249C7.584 10.4038 7.77387 10.4809 8 10.4804ZM8 7.25567C8.22667 7.25567 8.4168 7.17828 8.5704 7.02349C8.724 6.8687 8.80053 6.67737 8.8 6.44948V3.22474C8.8 2.99632 8.7232 2.80472 8.5696 2.64993C8.416 2.49515 8.22613 2.41802 8 2.41856C7.77333 2.41856 7.5832 2.49595 7.4296 2.65074C7.276 2.80553 7.19947 2.99686 7.2 3.22474V6.44948C7.2 6.6779 7.2768 6.86951 7.4304 7.0243C7.584 7.17908 7.77387 7.25621 8 7.25567Z" fill="black" fill-opacity="0.2"/>
</svg>
