<svg width="40" height="33" viewBox="0 0 40 33" fill="none" xmlns="http://www.w3.org/2000/svg">
<path d="M29 12C28.1333 12 27.4167 11.7167 26.85 11.15C26.2833 10.5833 26 9.86667 26 9C26 8.13333 26.2833 7.41667 26.85 6.85C27.4167 6.28333 28.1333 6 29 6C29.8667 6 30.5833 6.28333 31.15 6.85C31.7167 7.41667 32 8.13333 32 9C32 9.86667 31.7167 10.5833 31.15 11.15C30.5833 11.7167 29.8667 12 29 12ZM11 12C10.1333 12 9.41667 11.7167 8.85 11.15C8.28333 10.5833 8 9.86667 8 9C8 8.13333 8.28333 7.41667 8.85 6.85C9.41667 6.28333 10.1333 6 11 6C11.8667 6 12.5833 6.28333 13.15 6.85C13.7167 7.41667 14 8.13333 14 9C14 9.86667 13.7167 10.5833 13.15 11.15C12.5833 11.7167 11.8667 12 11 12ZM20 17.5C19.1333 17.5 18.4167 17.2167 17.85 16.65C17.2833 16.0833 17 15.3667 17 14.5C17 13.6333 17.2833 12.9167 17.85 12.35C18.4167 11.7833 19.1333 11.5 20 11.5C20.8667 11.5 21.5833 11.7833 22.15 12.35C22.7167 12.9167 23 13.6333 23 14.5C23 15.3667 22.7167 16.0833 22.15 16.65C21.5833 17.2167 20.8667 17.5 20 17.5ZM20 6.5C19.1333 6.5 18.4167 6.21667 17.85 5.65C17.2833 5.08333 17 4.36667 17 3.5C17 2.63333 17.2833 1.91667 17.85 1.35C18.4167 0.783333 19.1333 0.5 20 0.5C20.8667 0.5 21.5833 0.783333 22.15 1.35C22.7167 1.91667 23 2.63333 23 3.5C23 4.36667 22.7167 5.08333 22.15 5.65C21.5833 6.21667 20.8667 6.5 20 6.5ZM20 32.5C19.3667 32.5 18.7167 32.45 18.05 32.35C17.3833 32.25 16.7333 32.1167 16.1 31.95V24.75C16.1 23.5833 16.4667 22.5833 17.2 21.75C17.9333 20.9167 18.8667 20.5 20 20.5C21.1333 20.5 22.0667 20.9167 22.8 21.75C23.5333 22.5833 23.9 23.5833 23.9 24.75V31.95C23.2667 32.1167 22.6167 32.25 21.95 32.35C21.2833 32.45 20.6333 32.5 20 32.5ZM13.1 30.95C12.4667 30.6833 11.8333 30.3833 11.2 30.05C10.5667 29.7167 9.96667 29.35 9.4 28.95C8.46667 28.3167 7.725 27.4667 7.175 26.4C6.625 25.3333 6.35 24.1833 6.35 22.95C6.35 22.0833 6.26667 21.2583 6.1 20.475C5.93333 19.6917 5.6 18.9667 5.1 18.3C4.73333 17.9 4.09167 17.2667 3.175 16.4C2.25833 15.5333 1.41667 14.7167 0.65 13.95C0.216667 13.4833 0 12.9917 0 12.475C0 11.9583 0.216667 11.4833 0.65 11.05C1.11667 10.5833 1.58333 10.35 2.05 10.35C2.51667 10.35 2.98333 10.5833 3.45 11.05L11.15 18.3C11.7833 18.9 12.2667 19.6167 12.6 20.45C12.9333 21.2833 13.1 22.1333 13.1 23V30.95ZM26.9 30.95V23C26.9 22.1333 27.1083 21.2833 27.525 20.45C27.9417 19.6167 28.4667 18.9 29.1 18.3L36.55 11.05C36.95 10.6833 37.425 10.5 37.975 10.5C38.525 10.5 38.9833 10.6833 39.35 11.05C39.7833 11.4833 40 11.9583 40 12.475C40 12.9917 39.7833 13.4833 39.35 13.95C38.5833 14.7167 37.7417 15.5167 36.825 16.35C35.9083 17.1833 35.2667 17.8333 34.9 18.3C34.4 18.9667 34.0667 19.6917 33.9 20.475C33.7333 21.2583 33.65 22.0833 33.65 22.95C33.65 24.1833 33.375 25.3333 32.825 26.4C32.275 27.4667 31.5333 28.3167 30.6 28.95C30.0333 29.3167 29.4333 29.675 28.8 30.025C28.1667 30.375 27.5333 30.6833 26.9 30.95Z" fill="#2C8EEE"/>
</svg>
