<svg width="40" height="36" viewBox="0 0 40 36" fill="none" xmlns="http://www.w3.org/2000/svg">
<path d="M17.55 20.6L15.2 17.15C15.0333 16.95 14.8583 16.7917 14.675 16.675C14.4917 16.5583 14.2667 16.5 14 16.5H1.45C0.916667 15.4333 0.541667 14.425 0.325 13.475C0.108333 12.525 0 11.55 0 10.55C0 7.55 1.00833 5.04167 3.025 3.025C5.04167 1.00833 7.53333 0 10.5 0C12.4 0 14.1583 0.45 15.775 1.35C17.3917 2.25 18.8 3.55 20 5.25C21.4 3.45 22.8833 2.125 24.45 1.275C26.0167 0.425 27.7 0 29.5 0C32.4667 0 34.9583 1.00833 36.975 3.025C38.9917 5.04167 40 7.55 40 10.55C40 11.55 39.8917 12.525 39.675 13.475C39.4583 14.425 39.0833 15.4333 38.55 16.5H26.85L23.25 11.2C23.0833 10.9667 22.8833 10.8 22.65 10.7C22.4167 10.6 22.1667 10.55 21.9 10.55C21.6 10.55 21.325 10.6417 21.075 10.825C20.825 11.0083 20.65 11.25 20.55 11.55L17.55 20.6ZM18 34.85C14.2667 31.4167 11.2083 28.475 8.825 26.025C6.44167 23.575 4.58333 21.4 3.25 19.5H13.1L16.7 24.85C16.8667 25.0833 17.075 25.25 17.325 25.35C17.575 25.45 17.8333 25.5 18.1 25.5C18.4 25.5 18.6667 25.4083 18.9 25.225C19.1333 25.0417 19.3 24.8 19.4 24.5L22.45 15.45L24.75 18.85C24.9167 19.05 25.1 19.2083 25.3 19.325C25.5 19.4417 25.7333 19.5 26 19.5H36.75C35.4167 21.4 33.5583 23.575 31.175 26.025C28.7917 28.475 25.7333 31.4167 22 34.85C21.7333 35.1167 21.425 35.3083 21.075 35.425C20.725 35.5417 20.3667 35.6 20 35.6C19.6333 35.6 19.275 35.5417 18.925 35.425C18.575 35.3083 18.2667 35.1167 18 34.85Z" fill="#2C8EEE"/>
</svg>
