<svg width="14" height="16" viewBox="0 0 14 16" fill="currentColor" xmlns="http://www.w3.org/2000/svg">
<path d="M6.54545 5.09091C6.73834 5.09091 6.92332 5.16753 7.05971 5.30392C7.1961 5.44031 7.27273 5.6253 7.27273 5.81818C7.27273 6.01107 7.1961 6.19605 7.05971 6.33244C6.92332 6.46883 6.73834 6.54545 6.54545 6.54545C6.35257 6.54545 6.16759 6.46883 6.0312 6.33244C5.89481 6.19605 5.81818 6.01107 5.81818 5.81818C5.81818 5.6253 5.89481 5.44031 6.0312 5.30392C6.16759 5.16753 6.35257 5.09091 6.54545 5.09091ZM13.0909 7.27273C13.0909 11.3091 10.2982 15.0836 6.54545 16C2.79273 15.0836 0 11.3091 0 7.27273V2.90909L6.54545 0L13.0909 2.90909V7.27273ZM6.54545 3.63636C5.9668 3.63636 5.41185 3.86623 5.00268 4.2754C4.59351 4.68457 4.36364 5.23953 4.36364 5.81818C4.36364 6.77091 4.96727 7.57818 5.81818 7.87636V12.3636H7.27273V10.9091H8.72727V9.45455H7.27273V7.87636C8.12364 7.57818 8.72727 6.77091 8.72727 5.81818C8.72727 5.23953 8.4974 4.68457 8.08823 4.2754C7.67906 3.86623 7.12411 3.63636 6.54545 3.63636Z"/>
</svg>
