<svg width="28" height="40" viewBox="0 0 28 40" fill="none" xmlns="http://www.w3.org/2000/svg">
<path d="M0.390251 7.47475L4.53855 5.0505V21.0101L14.0796 26.2626L23.8282 21.0101V10.101L27.9765 12.5253V37.1717L23.8282 39.596V25.8586L14.0796 31.3131L4.53855 25.8586V40L0.390251 37.1717V7.47475Z" fill="white"/>
<path d="M23.8282 5.45455V8.88889L27.769 11.1111V7.67677L23.8282 5.45455Z" fill="white"/>
<path d="M21.5466 9.89899H13.25V14.1414H17.3983V17.3737L14.0796 19.1919L10.761 17.3737V6.86869L14.0796 5.0505L17.3983 6.86869V8.08081H21.5466V4.44444L14.0796 0L6.40529 4.44444V19.798L14.0796 23.8384L21.5466 19.798V9.89899Z" fill="white"/>
</svg>
