<svg width="16" height="16" viewBox="0 0 16 16" fill="currentColor" xmlns="http://www.w3.org/2000/svg">
<path d="M7.04 15.04C7.04 15.2946 6.93886 15.5388 6.75882 15.7188C6.57879 15.8989 6.33461 16 6.08 16H1.6C1.17565 16 0.768687 15.8314 0.468629 15.5314C0.168571 15.2313 0 14.8243 0 14.4V1.6C0 1.17565 0.168571 0.768687 0.468629 0.468629C0.768687 0.168571 1.17565 0 1.6 0H6.08C6.33461 0 6.57879 0.101143 6.75882 0.281178C6.93886 0.461212 7.04 0.705392 7.04 0.96C7.04 1.21461 6.93886 1.45879 6.75882 1.63882C6.57879 1.81886 6.33461 1.92 6.08 1.92H1.92V14.08H6.08C6.33461 14.08 6.57879 14.1811 6.75882 14.3612C6.93886 14.5412 7.04 14.7854 7.04 15.04ZM15.7192 7.3208L12.5192 4.1208C12.3389 3.94045 12.0943 3.83913 11.8392 3.83913C11.5842 3.83913 11.3395 3.94045 11.1592 4.1208C10.9789 4.30115 10.8775 4.54575 10.8775 4.8008C10.8775 5.05585 10.9789 5.30045 11.1592 5.4808L12.72 7.04H6.08C5.82539 7.04 5.58121 7.14114 5.40118 7.32118C5.22114 7.50121 5.12 7.74539 5.12 8C5.12 8.25461 5.22114 8.49879 5.40118 8.67882C5.58121 8.85886 5.82539 8.96 6.08 8.96H12.72L11.1584 10.5208C10.9781 10.7011 10.8767 10.9458 10.8767 11.2008C10.8767 11.4558 10.9781 11.7005 11.1584 11.8808C11.3387 12.0611 11.5834 12.1625 11.8384 12.1625C12.0934 12.1625 12.3381 12.0611 12.5184 11.8808L15.7184 8.6808C15.808 8.59166 15.879 8.48573 15.9275 8.36907C15.9761 8.25241 16.0011 8.12731 16.0012 8.00097C16.0012 7.87462 15.9764 7.7495 15.928 7.63278C15.8796 7.51606 15.8086 7.41004 15.7192 7.3208Z"/>
</svg>
