<svg width="205" height="28" viewBox="0 0 205 28" fill="none" xmlns="http://www.w3.org/2000/svg">
<path d="M0.976456 5.23232L3.85194 3.53535V14.7071L10.4655 18.3838L17.2229 14.7071V7.07071L20.0984 8.76768V26.0202L17.2229 27.7172V18.101L10.4655 21.9192L3.85194 18.101V28L0.976456 26.0202V5.23232Z" fill="white"/>
<path d="M17.2229 3.81818V6.22222L19.9546 7.77778V5.37374L17.2229 3.81818Z" fill="white"/>
<path d="M15.6414 6.92929H9.89045V9.89899H12.7659V12.1616L10.4655 13.4343L8.16516 12.1616V4.80808L10.4655 3.53535L12.7659 4.80808V5.65657H15.6414V3.11111L10.4655 0L5.1459 3.11111V13.8586L10.4655 16.6869L15.6414 13.8586V6.92929Z" fill="white"/>
<path d="M60.1902 19.1924V24.2197H58.4968V17.8799H60.0847L60.1902 19.1924ZM59.9558 20.8271H59.4871C59.4871 20.3857 59.5398 19.9795 59.6453 19.6084C59.7547 19.2334 59.9129 18.9092 60.1199 18.6357C60.3308 18.3584 60.5906 18.1436 60.8992 17.9912C61.2078 17.8389 61.5652 17.7627 61.9715 17.7627C62.2527 17.7627 62.5105 17.8057 62.7449 17.8916C62.9793 17.9736 63.1804 18.1045 63.3484 18.2842C63.5203 18.46 63.6531 18.6904 63.7468 18.9756C63.8406 19.2568 63.8875 19.5947 63.8875 19.9893V24.2197H62.2V20.1768C62.2 19.8877 62.1609 19.665 62.0828 19.5088C62.0047 19.3525 61.8933 19.2432 61.7488 19.1807C61.6082 19.1182 61.4383 19.0869 61.239 19.0869C61.0203 19.0869 60.8289 19.1318 60.6648 19.2217C60.5047 19.3115 60.3718 19.4365 60.2664 19.5967C60.1609 19.7529 60.0828 19.9365 60.032 20.1475C59.9812 20.3584 59.9558 20.585 59.9558 20.8271ZM63.7293 20.6338L63.1258 20.71C63.1258 20.2959 63.1765 19.9111 63.2781 19.5557C63.3836 19.2002 63.5379 18.8877 63.741 18.6182C63.948 18.3486 64.2039 18.1396 64.5086 17.9912C64.8133 17.8389 65.1648 17.7627 65.5633 17.7627C65.8679 17.7627 66.1453 17.8076 66.3953 17.8975C66.6453 17.9834 66.8582 18.1221 67.034 18.3135C67.2136 18.501 67.3504 18.7471 67.4441 19.0518C67.5418 19.3564 67.5906 19.7295 67.5906 20.1709V24.2197H65.8972V20.1709C65.8972 19.8779 65.8582 19.6553 65.7801 19.5029C65.7058 19.3467 65.5965 19.2393 65.4519 19.1807C65.3113 19.1182 65.1433 19.0869 64.948 19.0869C64.7449 19.0869 64.5672 19.1279 64.4148 19.21C64.2625 19.2881 64.1355 19.3975 64.034 19.5381C63.9324 19.6787 63.8562 19.8428 63.8054 20.0303C63.7547 20.2139 63.7293 20.415 63.7293 20.6338Z" fill="white"/>
<path d="M54.9402 24.3369C54.448 24.3369 54.0066 24.2588 53.616 24.1025C53.2254 23.9424 52.8933 23.7217 52.6199 23.4404C52.3504 23.1592 52.1433 22.833 51.9988 22.4619C51.8543 22.0869 51.782 21.6885 51.782 21.2666V21.0322C51.782 20.5518 51.8504 20.1123 51.9871 19.7139C52.1238 19.3154 52.3191 18.9697 52.573 18.6768C52.8308 18.3838 53.1433 18.1592 53.5105 18.0029C53.8777 17.8428 54.2918 17.7627 54.7527 17.7627C55.2019 17.7627 55.6004 17.8369 55.948 17.9854C56.2957 18.1338 56.5867 18.3447 56.8211 18.6182C57.0593 18.8916 57.239 19.2197 57.3601 19.6025C57.4812 19.9814 57.5418 20.4033 57.5418 20.8682V21.5713H52.5027V20.4463H55.8836V20.3174C55.8836 20.083 55.8406 19.874 55.7547 19.6904C55.6726 19.5029 55.5476 19.3545 55.3797 19.2451C55.2117 19.1357 54.9968 19.0811 54.7351 19.0811C54.5125 19.0811 54.3211 19.1299 54.1609 19.2275C54.0008 19.3252 53.8699 19.4619 53.7683 19.6377C53.6707 19.8135 53.5965 20.0205 53.5457 20.2588C53.4988 20.4932 53.4754 20.751 53.4754 21.0322V21.2666C53.4754 21.5205 53.5105 21.7549 53.5808 21.9697C53.6551 22.1846 53.7586 22.3701 53.8914 22.5264C54.0281 22.6826 54.1922 22.8037 54.3836 22.8896C54.5789 22.9756 54.7996 23.0186 55.0457 23.0186C55.3504 23.0186 55.6336 22.96 55.8953 22.8428C56.1609 22.7217 56.3894 22.54 56.5808 22.2979L57.4011 23.1885C57.2683 23.3799 57.0867 23.5635 56.8562 23.7393C56.6297 23.915 56.3562 24.0596 56.0359 24.1729C55.7156 24.2822 55.3504 24.3369 54.9402 24.3369Z" fill="white"/>
<path d="M51.0613 17.8799V19.0752H47.3699V17.8799H51.0613ZM48.284 16.3154H49.9715V22.3096C49.9715 22.4932 49.9949 22.6338 50.0418 22.7314C50.0926 22.8291 50.1668 22.8975 50.2644 22.9365C50.3621 22.9717 50.4851 22.9893 50.6336 22.9893C50.739 22.9893 50.8328 22.9854 50.9148 22.9775C51.0008 22.9658 51.073 22.9541 51.1316 22.9424L51.1375 24.1846C50.9929 24.2314 50.8367 24.2686 50.6687 24.2959C50.5008 24.3232 50.3152 24.3369 50.1121 24.3369C49.741 24.3369 49.4168 24.2764 49.1394 24.1553C48.866 24.0303 48.6551 23.8311 48.5066 23.5576C48.3582 23.2842 48.284 22.9248 48.284 22.4795V16.3154Z" fill="white"/>
<path d="M45.2195 22.4678C45.2195 22.3467 45.1843 22.2373 45.114 22.1396C45.0437 22.042 44.9129 21.9521 44.7215 21.8701C44.534 21.7842 44.2625 21.7061 43.907 21.6357C43.5867 21.5654 43.2879 21.4775 43.0105 21.3721C42.7371 21.2627 42.4988 21.1318 42.2957 20.9795C42.0965 20.8271 41.9402 20.6475 41.8269 20.4404C41.7136 20.2295 41.657 19.9893 41.657 19.7197C41.657 19.4541 41.7136 19.2041 41.8269 18.9697C41.9441 18.7354 42.1101 18.5283 42.325 18.3486C42.5437 18.165 42.8093 18.0225 43.1218 17.9209C43.4383 17.8154 43.7937 17.7627 44.1883 17.7627C44.739 17.7627 45.2117 17.8506 45.6062 18.0264C46.0047 18.2021 46.3093 18.4443 46.5203 18.7529C46.7351 19.0576 46.8426 19.4053 46.8426 19.7959H45.1551C45.1551 19.6318 45.1199 19.4854 45.0496 19.3564C44.9832 19.2236 44.8777 19.1201 44.7332 19.0459C44.5926 18.9678 44.409 18.9287 44.1824 18.9287C43.9949 18.9287 43.8328 18.9619 43.6961 19.0283C43.5593 19.0908 43.4539 19.1768 43.3797 19.2861C43.3093 19.3916 43.2742 19.5088 43.2742 19.6377C43.2742 19.7354 43.2937 19.8232 43.3328 19.9014C43.3758 19.9756 43.4441 20.0439 43.5379 20.1064C43.6316 20.1689 43.7527 20.2275 43.9011 20.2822C44.0535 20.333 44.241 20.3799 44.4636 20.4229C44.9207 20.5166 45.3289 20.6396 45.6883 20.792C46.0476 20.9404 46.3328 21.1436 46.5437 21.4014C46.7547 21.6553 46.8601 21.9893 46.8601 22.4033C46.8601 22.6846 46.7976 22.9424 46.6726 23.1768C46.5476 23.4111 46.3679 23.6162 46.1336 23.792C45.8992 23.9639 45.6179 24.0986 45.2898 24.1963C44.9656 24.29 44.6004 24.3369 44.1941 24.3369C43.6043 24.3369 43.1043 24.2314 42.6941 24.0205C42.2879 23.8096 41.9793 23.542 41.7683 23.2178C41.5613 22.8896 41.4578 22.5537 41.4578 22.21H43.0574C43.0652 22.4404 43.1238 22.626 43.2332 22.7666C43.3465 22.9072 43.489 23.0088 43.6609 23.0713C43.8367 23.1338 44.0261 23.165 44.2293 23.165C44.448 23.165 44.6297 23.1357 44.7742 23.0771C44.9187 23.0146 45.0281 22.9326 45.1023 22.8311C45.1804 22.7256 45.2195 22.6045 45.2195 22.4678Z" fill="white"/>
<path d="M37.6258 23.5049L39.3074 17.8799H41.1179L38.5691 25.1748C38.5144 25.335 38.4402 25.5068 38.3465 25.6904C38.2566 25.874 38.1336 26.0479 37.9773 26.2119C37.825 26.3799 37.6316 26.5166 37.3972 26.6221C37.1668 26.7275 36.8836 26.7803 36.5476 26.7803C36.3875 26.7803 36.2566 26.7705 36.1551 26.751C36.0535 26.7314 35.9324 26.7041 35.7918 26.6689V25.4326C35.8347 25.4326 35.8797 25.4326 35.9265 25.4326C35.9734 25.4365 36.0183 25.4385 36.0613 25.4385C36.284 25.4385 36.4656 25.4131 36.6062 25.3623C36.7468 25.3115 36.8601 25.2334 36.9461 25.1279C37.032 25.0264 37.1004 24.8936 37.1511 24.7295L37.6258 23.5049ZM36.9226 17.8799L38.2996 22.4736L38.5398 24.2607L37.3914 24.3838L35.1121 17.8799H36.9226Z" fill="white"/>
<path d="M32.8972 21.9873C32.8972 21.835 32.8738 21.6982 32.8269 21.5771C32.784 21.4521 32.7019 21.3389 32.5808 21.2373C32.4597 21.1318 32.2898 21.0283 32.0711 20.9268C31.8523 20.8252 31.5691 20.7197 31.2215 20.6104C30.8347 20.4854 30.4676 20.3447 30.1199 20.1885C29.7761 20.0322 29.4715 19.8506 29.2058 19.6436C28.9441 19.4326 28.7371 19.1885 28.5847 18.9111C28.4363 18.6338 28.3621 18.3115 28.3621 17.9443C28.3621 17.5889 28.4402 17.2666 28.5965 16.9775C28.7527 16.6846 28.9715 16.4346 29.2527 16.2275C29.534 16.0166 29.866 15.8545 30.2488 15.7412C30.6355 15.6279 31.0593 15.5713 31.5203 15.5713C32.1492 15.5713 32.698 15.6846 33.1668 15.9111C33.6355 16.1377 33.9988 16.4482 34.2566 16.8428C34.5183 17.2373 34.6492 17.6885 34.6492 18.1963H32.9031C32.9031 17.9463 32.8504 17.7275 32.7449 17.54C32.6433 17.3486 32.4871 17.1982 32.2761 17.0889C32.0691 16.9795 31.8074 16.9248 31.491 16.9248C31.1863 16.9248 30.9324 16.9717 30.7293 17.0654C30.5261 17.1553 30.3738 17.2783 30.2722 17.4346C30.1707 17.5869 30.1199 17.7588 30.1199 17.9502C30.1199 18.0947 30.1551 18.2256 30.2254 18.3428C30.2996 18.46 30.409 18.5693 30.5535 18.6709C30.698 18.7725 30.8758 18.8682 31.0867 18.958C31.2976 19.0479 31.5418 19.1357 31.8191 19.2217C32.284 19.3623 32.6922 19.5205 33.0437 19.6963C33.3992 19.8721 33.6961 20.0693 33.9343 20.2881C34.1726 20.5068 34.3523 20.7549 34.4734 21.0322C34.5945 21.3096 34.6551 21.624 34.6551 21.9756C34.6551 22.3467 34.5828 22.6787 34.4383 22.9717C34.2937 23.2646 34.0847 23.5127 33.8113 23.7158C33.5379 23.9189 33.2117 24.0732 32.8328 24.1787C32.4539 24.2842 32.0301 24.3369 31.5613 24.3369C31.1394 24.3369 30.7234 24.2822 30.3133 24.1729C29.9031 24.0596 29.5301 23.8896 29.1941 23.6631C28.8621 23.4365 28.5965 23.1475 28.3972 22.7959C28.198 22.4443 28.0984 22.0283 28.0984 21.5479H29.8621C29.8621 21.8135 29.9031 22.0381 29.9851 22.2217C30.0672 22.4053 30.1824 22.5537 30.3308 22.667C30.4832 22.7803 30.6629 22.8623 30.8699 22.9131C31.0808 22.9639 31.3113 22.9893 31.5613 22.9893C31.866 22.9893 32.116 22.9463 32.3113 22.8604C32.5105 22.7744 32.657 22.6553 32.7508 22.5029C32.8484 22.3506 32.8972 22.1787 32.8972 21.9873Z" fill="white"/>
<path d="M204.8 3.87988V5.0752H201.108V3.87988H204.8ZM202.022 2.31543H203.71V8.30957C203.71 8.49316 203.733 8.63379 203.78 8.73145C203.831 8.8291 203.905 8.89746 204.003 8.93652C204.1 8.97168 204.223 8.98926 204.372 8.98926C204.477 8.98926 204.571 8.98535 204.653 8.97754C204.739 8.96582 204.811 8.9541 204.87 8.94238L204.876 10.1846C204.731 10.2314 204.575 10.2686 204.407 10.2959C204.239 10.3232 204.053 10.3369 203.85 10.3369C203.479 10.3369 203.155 10.2764 202.878 10.1553C202.604 10.0303 202.393 9.83105 202.245 9.55762C202.096 9.28418 202.022 8.9248 202.022 8.47949V2.31543Z" fill="white"/>
<path d="M196.62 5.2334V10.2197H194.932V3.87988H196.514L196.62 5.2334ZM196.374 6.82715H195.917C195.917 6.3584 195.977 5.93652 196.098 5.56152C196.219 5.18262 196.389 4.86035 196.608 4.59473C196.827 4.3252 197.087 4.12012 197.387 3.97949C197.692 3.83496 198.032 3.7627 198.407 3.7627C198.704 3.7627 198.975 3.80566 199.221 3.8916C199.468 3.97754 199.678 4.11426 199.854 4.30176C200.034 4.48926 200.171 4.7373 200.264 5.0459C200.362 5.35449 200.411 5.73145 200.411 6.17676V10.2197H198.712V6.1709C198.712 5.88965 198.673 5.6709 198.594 5.51465C198.516 5.3584 198.401 5.24902 198.249 5.18652C198.1 5.12012 197.917 5.08691 197.698 5.08691C197.471 5.08691 197.274 5.13184 197.106 5.22168C196.942 5.31152 196.805 5.43652 196.696 5.59668C196.591 5.75293 196.511 5.93652 196.456 6.14746C196.401 6.3584 196.374 6.58496 196.374 6.82715Z" fill="white"/>
<path d="M191.405 10.3369C190.913 10.3369 190.471 10.2588 190.081 10.1025C189.69 9.94238 189.358 9.72168 189.085 9.44043C188.815 9.15918 188.608 8.83301 188.464 8.46191C188.319 8.08691 188.247 7.68848 188.247 7.2666V7.03223C188.247 6.55176 188.315 6.1123 188.452 5.71387C188.589 5.31543 188.784 4.96973 189.038 4.67676C189.296 4.38379 189.608 4.15918 189.975 4.00293C190.343 3.84277 190.757 3.7627 191.218 3.7627C191.667 3.7627 192.065 3.83691 192.413 3.98535C192.761 4.13379 193.052 4.34473 193.286 4.61816C193.524 4.8916 193.704 5.21973 193.825 5.60254C193.946 5.98145 194.007 6.40332 194.007 6.86816V7.57129H188.968V6.44629H192.348V6.31738C192.348 6.08301 192.305 5.87402 192.219 5.69043C192.137 5.50293 192.012 5.35449 191.844 5.24512C191.677 5.13574 191.462 5.08105 191.2 5.08105C190.977 5.08105 190.786 5.12988 190.626 5.22754C190.466 5.3252 190.335 5.46191 190.233 5.6377C190.136 5.81348 190.061 6.02051 190.011 6.25879C189.964 6.49316 189.94 6.75098 189.94 7.03223V7.2666C189.94 7.52051 189.975 7.75488 190.046 7.96973C190.12 8.18457 190.223 8.37012 190.356 8.52637C190.493 8.68262 190.657 8.80371 190.848 8.88965C191.044 8.97559 191.264 9.01855 191.511 9.01855C191.815 9.01855 192.098 8.95996 192.36 8.84277C192.626 8.72168 192.854 8.54004 193.046 8.29785L193.866 9.18848C193.733 9.37988 193.552 9.56348 193.321 9.73926C193.094 9.91504 192.821 10.0596 192.501 10.1729C192.18 10.2822 191.815 10.3369 191.405 10.3369Z" fill="white"/>
<path d="M185.645 3.87988H187.175V10.0088C187.175 10.5869 187.046 11.0771 186.788 11.4795C186.534 11.8857 186.178 12.1924 185.721 12.3994C185.264 12.6104 184.733 12.7158 184.128 12.7158C183.862 12.7158 183.581 12.6807 183.284 12.6104C182.991 12.54 182.71 12.4307 182.44 12.2822C182.175 12.1338 181.952 11.9463 181.772 11.7197L182.516 10.7236C182.712 10.9502 182.938 11.126 183.196 11.251C183.454 11.3799 183.739 11.4443 184.052 11.4443C184.356 11.4443 184.614 11.3877 184.825 11.2744C185.036 11.165 185.198 11.0029 185.311 10.7881C185.425 10.5771 185.481 10.3213 185.481 10.0205V5.34473L185.645 3.87988ZM181.38 7.12598V7.00293C181.38 6.51855 181.438 6.0791 181.555 5.68457C181.677 5.28613 181.846 4.94434 182.065 4.65918C182.288 4.37402 182.557 4.15332 182.874 3.99707C183.19 3.84082 183.548 3.7627 183.946 3.7627C184.368 3.7627 184.721 3.84082 185.007 3.99707C185.292 4.15332 185.526 4.37598 185.71 4.66504C185.893 4.9502 186.036 5.28809 186.137 5.67871C186.243 6.06543 186.325 6.48926 186.384 6.9502V7.21973C186.325 7.66113 186.237 8.07129 186.12 8.4502C186.003 8.8291 185.848 9.16113 185.657 9.44629C185.466 9.72754 185.227 9.94629 184.942 10.1025C184.661 10.2588 184.325 10.3369 183.934 10.3369C183.544 10.3369 183.19 10.2568 182.874 10.0967C182.561 9.93652 182.294 9.71191 182.071 9.42285C181.848 9.13379 181.677 8.79395 181.555 8.40332C181.438 8.0127 181.38 7.58691 181.38 7.12598ZM183.067 7.00293V7.12598C183.067 7.3877 183.093 7.63184 183.143 7.8584C183.194 8.08496 183.272 8.28613 183.378 8.46191C183.487 8.63379 183.622 8.76855 183.782 8.86621C183.946 8.95996 184.139 9.00684 184.362 9.00684C184.671 9.00684 184.923 8.94238 185.118 8.81348C185.313 8.68066 185.46 8.49902 185.557 8.26855C185.655 8.03809 185.712 7.77246 185.727 7.47168V6.7041C185.719 6.45801 185.686 6.2373 185.628 6.04199C185.569 5.84277 185.487 5.67285 185.382 5.53223C185.276 5.3916 185.139 5.28223 184.971 5.2041C184.803 5.12598 184.604 5.08691 184.374 5.08691C184.151 5.08691 183.958 5.1377 183.794 5.23926C183.634 5.33691 183.499 5.47168 183.389 5.64355C183.284 5.81543 183.204 6.01855 183.149 6.25293C183.094 6.4834 183.067 6.7334 183.067 7.00293Z" fill="white"/>
<path d="M180.237 3.87988V10.2197H178.544V3.87988H180.237ZM178.438 2.22754C178.438 1.98145 178.524 1.77832 178.696 1.61816C178.868 1.45801 179.098 1.37793 179.387 1.37793C179.673 1.37793 179.901 1.45801 180.073 1.61816C180.249 1.77832 180.337 1.98145 180.337 2.22754C180.337 2.47363 180.249 2.67676 180.073 2.83691C179.901 2.99707 179.673 3.07715 179.387 3.07715C179.098 3.07715 178.868 2.99707 178.696 2.83691C178.524 2.67676 178.438 2.47363 178.438 2.22754Z" fill="white"/>
<path d="M177.061 1.21973V10.2197H175.368V1.21973H177.061Z" fill="white"/>
<path d="M173.886 1.21973V10.2197H172.192V1.21973H173.886Z" fill="white"/>
<path d="M168.542 10.3369C168.05 10.3369 167.608 10.2588 167.218 10.1025C166.827 9.94238 166.495 9.72168 166.221 9.44043C165.952 9.15918 165.745 8.83301 165.6 8.46191C165.456 8.08691 165.384 7.68848 165.384 7.2666V7.03223C165.384 6.55176 165.452 6.1123 165.589 5.71387C165.725 5.31543 165.921 4.96973 166.175 4.67676C166.432 4.38379 166.745 4.15918 167.112 4.00293C167.479 3.84277 167.893 3.7627 168.354 3.7627C168.803 3.7627 169.202 3.83691 169.55 3.98535C169.897 4.13379 170.188 4.34473 170.423 4.61816C170.661 4.8916 170.841 5.21973 170.962 5.60254C171.083 5.98145 171.143 6.40332 171.143 6.86816V7.57129H166.104V6.44629H169.485V6.31738C169.485 6.08301 169.442 5.87402 169.356 5.69043C169.274 5.50293 169.149 5.35449 168.981 5.24512C168.813 5.13574 168.598 5.08105 168.337 5.08105C168.114 5.08105 167.923 5.12988 167.762 5.22754C167.602 5.3252 167.471 5.46191 167.37 5.6377C167.272 5.81348 167.198 6.02051 167.147 6.25879C167.1 6.49316 167.077 6.75098 167.077 7.03223V7.2666C167.077 7.52051 167.112 7.75488 167.182 7.96973C167.257 8.18457 167.36 8.37012 167.493 8.52637C167.63 8.68262 167.794 8.80371 167.985 8.88965C168.18 8.97559 168.401 9.01855 168.647 9.01855C168.952 9.01855 169.235 8.95996 169.497 8.84277C169.762 8.72168 169.991 8.54004 170.182 8.29785L171.003 9.18848C170.87 9.37988 170.688 9.56348 170.458 9.73926C170.231 9.91504 169.958 10.0596 169.637 10.1729C169.317 10.2822 168.952 10.3369 168.542 10.3369Z" fill="white"/>
<path d="M164.663 3.87988V5.0752H160.971V3.87988H164.663ZM161.886 2.31543H163.573V8.30957C163.573 8.49316 163.596 8.63379 163.643 8.73145C163.694 8.8291 163.768 8.89746 163.866 8.93652C163.964 8.97168 164.087 8.98926 164.235 8.98926C164.341 8.98926 164.434 8.98535 164.516 8.97754C164.602 8.96582 164.675 8.9541 164.733 8.94238L164.739 10.1846C164.594 10.2314 164.438 10.2686 164.27 10.2959C164.102 10.3232 163.917 10.3369 163.714 10.3369C163.343 10.3369 163.018 10.2764 162.741 10.1553C162.468 10.0303 162.257 9.83105 162.108 9.55762C161.96 9.28418 161.886 8.9248 161.886 8.47949V2.31543Z" fill="white"/>
<path d="M156.483 5.2334V10.2197H154.796V3.87988H156.378L156.483 5.2334ZM156.237 6.82715H155.78C155.78 6.3584 155.841 5.93652 155.962 5.56152C156.083 5.18262 156.253 4.86035 156.471 4.59473C156.69 4.3252 156.95 4.12012 157.251 3.97949C157.555 3.83496 157.895 3.7627 158.27 3.7627C158.567 3.7627 158.839 3.80566 159.085 3.8916C159.331 3.97754 159.542 4.11426 159.718 4.30176C159.897 4.48926 160.034 4.7373 160.128 5.0459C160.225 5.35449 160.274 5.73145 160.274 6.17676V10.2197H158.575V6.1709C158.575 5.88965 158.536 5.6709 158.458 5.51465C158.38 5.3584 158.264 5.24902 158.112 5.18652C157.964 5.12012 157.78 5.08691 157.561 5.08691C157.335 5.08691 157.137 5.13184 156.969 5.22168C156.805 5.31152 156.669 5.43652 156.559 5.59668C156.454 5.75293 156.374 5.93652 156.319 6.14746C156.264 6.3584 156.237 6.58496 156.237 6.82715Z" fill="white"/>
<path d="M153.29 1.68848V10.2197H151.538V1.68848H153.29Z" fill="white"/>
<path d="M144.764 10.3369C144.272 10.3369 143.831 10.2588 143.44 10.1025C143.05 9.94238 142.718 9.72168 142.444 9.44043C142.175 9.15918 141.968 8.83301 141.823 8.46191C141.678 8.08691 141.606 7.68848 141.606 7.2666V7.03223C141.606 6.55176 141.675 6.1123 141.811 5.71387C141.948 5.31543 142.143 4.96973 142.397 4.67676C142.655 4.38379 142.968 4.15918 143.335 4.00293C143.702 3.84277 144.116 3.7627 144.577 3.7627C145.026 3.7627 145.425 3.83691 145.772 3.98535C146.12 4.13379 146.411 4.34473 146.645 4.61816C146.884 4.8916 147.063 5.21973 147.184 5.60254C147.305 5.98145 147.366 6.40332 147.366 6.86816V7.57129H142.327V6.44629H145.708V6.31738C145.708 6.08301 145.665 5.87402 145.579 5.69043C145.497 5.50293 145.372 5.35449 145.204 5.24512C145.036 5.13574 144.821 5.08105 144.559 5.08105C144.337 5.08105 144.145 5.12988 143.985 5.22754C143.825 5.3252 143.694 5.46191 143.593 5.6377C143.495 5.81348 143.421 6.02051 143.37 6.25879C143.323 6.49316 143.3 6.75098 143.3 7.03223V7.2666C143.3 7.52051 143.335 7.75488 143.405 7.96973C143.479 8.18457 143.583 8.37012 143.716 8.52637C143.852 8.68262 144.016 8.80371 144.208 8.88965C144.403 8.97559 144.624 9.01855 144.87 9.01855C145.175 9.01855 145.458 8.95996 145.719 8.84277C145.985 8.72168 146.214 8.54004 146.405 8.29785L147.225 9.18848C147.093 9.37988 146.911 9.56348 146.68 9.73926C146.454 9.91504 146.18 10.0596 145.86 10.1729C145.54 10.2822 145.175 10.3369 144.764 10.3369Z" fill="white"/>
<path d="M139.257 5.2627V10.2197H137.569V3.87988H139.157L139.257 5.2627ZM141.167 3.83887L141.137 5.40332C141.055 5.3916 140.956 5.38184 140.839 5.37402C140.725 5.3623 140.622 5.35645 140.528 5.35645C140.29 5.35645 140.083 5.3877 139.907 5.4502C139.735 5.50879 139.591 5.59668 139.473 5.71387C139.36 5.83105 139.274 5.97363 139.216 6.1416C139.161 6.30957 139.13 6.50098 139.122 6.71582L138.782 6.61035C138.782 6.2002 138.823 5.82324 138.905 5.47949C138.987 5.13184 139.106 4.8291 139.262 4.57129C139.423 4.31348 139.618 4.11426 139.848 3.97363C140.079 3.83301 140.343 3.7627 140.639 3.7627C140.733 3.7627 140.829 3.77051 140.927 3.78613C141.024 3.79785 141.104 3.81543 141.167 3.83887Z" fill="white"/>
<path d="M134.569 8.79004V5.96582C134.569 5.7627 134.536 5.58887 134.469 5.44434C134.403 5.2959 134.3 5.18066 134.159 5.09863C134.022 5.0166 133.844 4.97559 133.626 4.97559C133.438 4.97559 133.276 5.00879 133.139 5.0752C133.003 5.1377 132.897 5.22949 132.823 5.35059C132.749 5.46777 132.712 5.60645 132.712 5.7666H131.024C131.024 5.49707 131.087 5.24121 131.212 4.99902C131.337 4.75684 131.518 4.54395 131.757 4.36035C131.995 4.17285 132.278 4.02637 132.606 3.9209C132.938 3.81543 133.309 3.7627 133.719 3.7627C134.212 3.7627 134.649 3.84473 135.032 4.00879C135.415 4.17285 135.716 4.41895 135.934 4.74707C136.157 5.0752 136.268 5.48535 136.268 5.97754V8.69043C136.268 9.03809 136.29 9.32324 136.333 9.5459C136.376 9.76465 136.438 9.95605 136.52 10.1201V10.2197H134.815C134.733 10.0479 134.671 9.83301 134.628 9.5752C134.589 9.31348 134.569 9.05176 134.569 8.79004ZM134.792 6.3584L134.803 7.31348H133.86C133.637 7.31348 133.444 7.33887 133.28 7.38965C133.116 7.44043 132.981 7.5127 132.876 7.60645C132.77 7.69629 132.692 7.80176 132.641 7.92285C132.594 8.04395 132.571 8.17676 132.571 8.32129C132.571 8.46582 132.604 8.59668 132.671 8.71387C132.737 8.82715 132.833 8.91699 132.958 8.9834C133.083 9.0459 133.229 9.07715 133.397 9.07715C133.651 9.07715 133.872 9.02637 134.059 8.9248C134.247 8.82324 134.391 8.69824 134.493 8.5498C134.598 8.40137 134.653 8.26074 134.657 8.12793L135.102 8.84277C135.04 9.00293 134.954 9.16895 134.844 9.34082C134.739 9.5127 134.604 9.6748 134.44 9.82715C134.276 9.97559 134.079 10.0986 133.848 10.1963C133.618 10.29 133.344 10.3369 133.028 10.3369C132.626 10.3369 132.261 10.2568 131.932 10.0967C131.608 9.93262 131.35 9.70801 131.159 9.42285C130.971 9.13379 130.878 8.80566 130.878 8.43848C130.878 8.10645 130.94 7.81152 131.065 7.55371C131.19 7.2959 131.374 7.0791 131.616 6.90332C131.862 6.72363 132.169 6.58887 132.536 6.49902C132.903 6.40527 133.329 6.3584 133.813 6.3584H134.792Z" fill="white"/>
<path d="M127.509 9.01855C127.716 9.01855 127.899 8.97949 128.059 8.90137C128.22 8.81934 128.345 8.70605 128.434 8.56152C128.528 8.41309 128.577 8.23926 128.581 8.04004H130.169C130.165 8.48535 130.046 8.88184 129.811 9.22949C129.577 9.57324 129.262 9.84473 128.868 10.0439C128.473 10.2393 128.032 10.3369 127.544 10.3369C127.052 10.3369 126.622 10.2549 126.255 10.0908C125.891 9.92676 125.589 9.7002 125.346 9.41113C125.104 9.11816 124.923 8.77832 124.802 8.3916C124.68 8.00098 124.62 7.58301 124.62 7.1377V6.96777C124.62 6.51855 124.68 6.10059 124.802 5.71387C124.923 5.32324 125.104 4.9834 125.346 4.69434C125.589 4.40137 125.891 4.17285 126.255 4.00879C126.618 3.84473 127.044 3.7627 127.532 3.7627C128.052 3.7627 128.507 3.8623 128.897 4.06152C129.292 4.26074 129.6 4.5459 129.823 4.91699C130.05 5.28418 130.165 5.71973 130.169 6.22363H128.581C128.577 6.0127 128.532 5.82129 128.446 5.64941C128.364 5.47754 128.243 5.34082 128.083 5.23926C127.927 5.13379 127.733 5.08105 127.503 5.08105C127.257 5.08105 127.055 5.13379 126.899 5.23926C126.743 5.34082 126.622 5.48145 126.536 5.66113C126.45 5.83691 126.389 6.03809 126.354 6.26465C126.323 6.4873 126.307 6.72168 126.307 6.96777V7.1377C126.307 7.38379 126.323 7.62012 126.354 7.84668C126.386 8.07324 126.444 8.27441 126.53 8.4502C126.62 8.62598 126.743 8.76465 126.899 8.86621C127.055 8.96777 127.259 9.01855 127.509 9.01855Z" fill="white"/>
<path d="M119.809 1.21973V10.2197H118.122V1.21973H119.809ZM119.569 6.82715H119.106C119.11 6.38574 119.169 5.97949 119.282 5.6084C119.395 5.2334 119.557 4.90918 119.768 4.63574C119.979 4.3584 120.231 4.14355 120.524 3.99121C120.821 3.83887 121.149 3.7627 121.509 3.7627C121.821 3.7627 122.104 3.80762 122.358 3.89746C122.616 3.9834 122.837 4.12402 123.02 4.31934C123.208 4.51074 123.352 4.7627 123.454 5.0752C123.555 5.3877 123.606 5.7666 123.606 6.21191V10.2197H121.907V6.2002C121.907 5.91895 121.866 5.69824 121.784 5.53809C121.706 5.37402 121.591 5.25879 121.438 5.19238C121.29 5.12207 121.106 5.08691 120.887 5.08691C120.645 5.08691 120.438 5.13184 120.266 5.22168C120.098 5.31152 119.964 5.43652 119.862 5.59668C119.761 5.75293 119.686 5.93652 119.639 6.14746C119.593 6.3584 119.569 6.58496 119.569 6.82715Z" fill="white"/>
<path d="M117.202 3.87988V5.0752H113.511V3.87988H117.202ZM114.425 2.31543H116.112V8.30957C116.112 8.49316 116.136 8.63379 116.182 8.73145C116.233 8.8291 116.307 8.89746 116.405 8.93652C116.503 8.97168 116.626 8.98926 116.774 8.98926C116.88 8.98926 116.973 8.98535 117.055 8.97754C117.141 8.96582 117.214 8.9541 117.272 8.94238L117.278 10.1846C117.134 10.2314 116.977 10.2686 116.809 10.2959C116.641 10.3232 116.456 10.3369 116.253 10.3369C115.882 10.3369 115.557 10.2764 115.28 10.1553C115.007 10.0303 114.796 9.83105 114.647 9.55762C114.499 9.28418 114.425 8.9248 114.425 8.47949V2.31543Z" fill="white"/>
<path d="M112.702 1.21973V10.2197H111.009V1.21973H112.702Z" fill="white"/>
<path d="M107.921 8.79004V5.96582C107.921 5.7627 107.887 5.58887 107.821 5.44434C107.755 5.2959 107.651 5.18066 107.511 5.09863C107.374 5.0166 107.196 4.97559 106.977 4.97559C106.79 4.97559 106.628 5.00879 106.491 5.0752C106.354 5.1377 106.249 5.22949 106.175 5.35059C106.1 5.46777 106.063 5.60645 106.063 5.7666H104.376C104.376 5.49707 104.438 5.24121 104.563 4.99902C104.688 4.75684 104.87 4.54395 105.108 4.36035C105.346 4.17285 105.63 4.02637 105.958 3.9209C106.29 3.81543 106.661 3.7627 107.071 3.7627C107.563 3.7627 108.001 3.84473 108.384 4.00879C108.766 4.17285 109.067 4.41895 109.286 4.74707C109.509 5.0752 109.62 5.48535 109.62 5.97754V8.69043C109.62 9.03809 109.641 9.32324 109.684 9.5459C109.727 9.76465 109.79 9.95605 109.872 10.1201V10.2197H108.167C108.085 10.0479 108.022 9.83301 107.979 9.5752C107.94 9.31348 107.921 9.05176 107.921 8.79004ZM108.143 6.3584L108.155 7.31348H107.212C106.989 7.31348 106.796 7.33887 106.632 7.38965C106.468 7.44043 106.333 7.5127 106.227 7.60645C106.122 7.69629 106.044 7.80176 105.993 7.92285C105.946 8.04395 105.923 8.17676 105.923 8.32129C105.923 8.46582 105.956 8.59668 106.022 8.71387C106.089 8.82715 106.184 8.91699 106.309 8.9834C106.434 9.0459 106.581 9.07715 106.749 9.07715C107.003 9.07715 107.223 9.02637 107.411 8.9248C107.598 8.82324 107.743 8.69824 107.845 8.5498C107.95 8.40137 108.005 8.26074 108.009 8.12793L108.454 8.84277C108.391 9.00293 108.305 9.16895 108.196 9.34082C108.091 9.5127 107.956 9.6748 107.792 9.82715C107.628 9.97559 107.43 10.0986 107.2 10.1963C106.97 10.29 106.696 10.3369 106.38 10.3369C105.977 10.3369 105.612 10.2568 105.284 10.0967C104.96 9.93262 104.702 9.70801 104.511 9.42285C104.323 9.13379 104.229 8.80566 104.229 8.43848C104.229 8.10645 104.292 7.81152 104.417 7.55371C104.542 7.2959 104.725 7.0791 104.968 6.90332C105.214 6.72363 105.52 6.58887 105.887 6.49902C106.255 6.40527 106.68 6.3584 107.165 6.3584H108.143Z" fill="white"/>
<path d="M100.936 10.3369C100.444 10.3369 100.003 10.2588 99.6121 10.1025C99.2215 9.94238 98.8894 9.72168 98.616 9.44043C98.3465 9.15918 98.1394 8.83301 97.9949 8.46191C97.8504 8.08691 97.7781 7.68848 97.7781 7.2666V7.03223C97.7781 6.55176 97.8465 6.1123 97.9832 5.71387C98.1199 5.31543 98.3152 4.96973 98.5691 4.67676C98.8269 4.38379 99.1394 4.15918 99.5066 4.00293C99.8738 3.84277 100.288 3.7627 100.749 3.7627C101.198 3.7627 101.596 3.83691 101.944 3.98535C102.292 4.13379 102.583 4.34473 102.817 4.61816C103.055 4.8916 103.235 5.21973 103.356 5.60254C103.477 5.98145 103.538 6.40332 103.538 6.86816V7.57129H98.4988V6.44629H101.88V6.31738C101.88 6.08301 101.837 5.87402 101.751 5.69043C101.669 5.50293 101.544 5.35449 101.376 5.24512C101.208 5.13574 100.993 5.08105 100.731 5.08105C100.509 5.08105 100.317 5.12988 100.157 5.22754C99.9968 5.3252 99.866 5.46191 99.7644 5.6377C99.6668 5.81348 99.5926 6.02051 99.5418 6.25879C99.4949 6.49316 99.4715 6.75098 99.4715 7.03223V7.2666C99.4715 7.52051 99.5066 7.75488 99.5769 7.96973C99.6511 8.18457 99.7547 8.37012 99.8875 8.52637C100.024 8.68262 100.188 8.80371 100.38 8.88965C100.575 8.97559 100.796 9.01855 101.042 9.01855C101.346 9.01855 101.63 8.95996 101.891 8.84277C102.157 8.72168 102.386 8.54004 102.577 8.29785L103.397 9.18848C103.264 9.37988 103.083 9.56348 102.852 9.73926C102.626 9.91504 102.352 10.0596 102.032 10.1729C101.712 10.2822 101.346 10.3369 100.936 10.3369Z" fill="white"/>
<path d="M95.3406 5.16309V6.53418H90.8875V5.16309H95.3406ZM91.409 1.68848V10.2197H89.6511V1.68848H91.409ZM96.5945 1.68848V10.2197H94.8426V1.68848H96.5945Z" fill="white"/>
<path d="M82.9949 10.3369C82.5027 10.3369 82.0613 10.2588 81.6707 10.1025C81.2801 9.94238 80.948 9.72168 80.6746 9.44043C80.4051 9.15918 80.198 8.83301 80.0535 8.46191C79.909 8.08691 79.8367 7.68848 79.8367 7.2666V7.03223C79.8367 6.55176 79.9051 6.1123 80.0418 5.71387C80.1785 5.31543 80.3738 4.96973 80.6277 4.67676C80.8855 4.38379 81.198 4.15918 81.5652 4.00293C81.9324 3.84277 82.3465 3.7627 82.8074 3.7627C83.2566 3.7627 83.6551 3.83691 84.0027 3.98535C84.3504 4.13379 84.6414 4.34473 84.8758 4.61816C85.114 4.8916 85.2937 5.21973 85.4148 5.60254C85.5359 5.98145 85.5965 6.40332 85.5965 6.86816V7.57129H80.5574V6.44629H83.9383V6.31738C83.9383 6.08301 83.8953 5.87402 83.8093 5.69043C83.7273 5.50293 83.6023 5.35449 83.4343 5.24512C83.2664 5.13574 83.0515 5.08105 82.7898 5.08105C82.5672 5.08105 82.3758 5.12988 82.2156 5.22754C82.0554 5.3252 81.9246 5.46191 81.823 5.6377C81.7254 5.81348 81.6511 6.02051 81.6004 6.25879C81.5535 6.49316 81.5301 6.75098 81.5301 7.03223V7.2666C81.5301 7.52051 81.5652 7.75488 81.6355 7.96973C81.7097 8.18457 81.8133 8.37012 81.9461 8.52637C82.0828 8.68262 82.2468 8.80371 82.4383 8.88965C82.6336 8.97559 82.8543 9.01855 83.1004 9.01855C83.4051 9.01855 83.6883 8.95996 83.95 8.84277C84.2156 8.72168 84.4441 8.54004 84.6355 8.29785L85.4558 9.18848C85.323 9.37988 85.1414 9.56348 84.9109 9.73926C84.6843 9.91504 84.4109 10.0596 84.0906 10.1729C83.7703 10.2822 83.4051 10.3369 82.9949 10.3369Z" fill="white"/>
<path d="M76.2332 8.98926L77.6394 3.87988H79.4031L77.2644 10.2197H76.198L76.2332 8.98926ZM75.2664 3.87988L76.6785 8.99512L76.7078 10.2197H75.6355L73.4968 3.87988H75.2664Z" fill="white"/>
<path d="M72.6824 3.87988V10.2197H70.989V3.87988H72.6824ZM70.8836 2.22754C70.8836 1.98145 70.9695 1.77832 71.1414 1.61816C71.3133 1.45801 71.5437 1.37793 71.8328 1.37793C72.1179 1.37793 72.3465 1.45801 72.5183 1.61816C72.6941 1.77832 72.782 1.98145 72.782 2.22754C72.782 2.47363 72.6941 2.67676 72.5183 2.83691C72.3465 2.99707 72.1179 3.07715 71.8328 3.07715C71.5437 3.07715 71.3133 2.99707 71.1414 2.83691C70.9695 2.67676 70.8836 2.47363 70.8836 2.22754Z" fill="white"/>
<path d="M69.9402 3.87988V5.0752H66.2488V3.87988H69.9402ZM67.1629 2.31543H68.8504V8.30957C68.8504 8.49316 68.8738 8.63379 68.9207 8.73145C68.9715 8.8291 69.0457 8.89746 69.1433 8.93652C69.241 8.97168 69.364 8.98926 69.5125 8.98926C69.6179 8.98926 69.7117 8.98535 69.7937 8.97754C69.8797 8.96582 69.9519 8.9541 70.0105 8.94238L70.0164 10.1846C69.8718 10.2314 69.7156 10.2686 69.5476 10.2959C69.3797 10.3232 69.1941 10.3369 68.991 10.3369C68.6199 10.3369 68.2957 10.2764 68.0183 10.1553C67.7449 10.0303 67.534 9.83105 67.3855 9.55762C67.2371 9.28418 67.1629 8.9248 67.1629 8.47949V2.31543Z" fill="white"/>
<path d="M63.8347 8.79004V5.96582C63.8347 5.7627 63.8015 5.58887 63.7351 5.44434C63.6687 5.2959 63.5652 5.18066 63.4246 5.09863C63.2879 5.0166 63.1101 4.97559 62.8914 4.97559C62.7039 4.97559 62.5418 5.00879 62.4051 5.0752C62.2683 5.1377 62.1629 5.22949 62.0886 5.35059C62.0144 5.46777 61.9773 5.60645 61.9773 5.7666H60.2898C60.2898 5.49707 60.3523 5.24121 60.4773 4.99902C60.6023 4.75684 60.784 4.54395 61.0222 4.36035C61.2605 4.17285 61.5437 4.02637 61.8718 3.9209C62.2039 3.81543 62.575 3.7627 62.9851 3.7627C63.4773 3.7627 63.9148 3.84473 64.2976 4.00879C64.6804 4.17285 64.9812 4.41895 65.2 4.74707C65.4226 5.0752 65.534 5.48535 65.534 5.97754V8.69043C65.534 9.03809 65.5554 9.32324 65.5984 9.5459C65.6414 9.76465 65.7039 9.95605 65.7859 10.1201V10.2197H64.0808C63.9988 10.0479 63.9363 9.83301 63.8933 9.5752C63.8543 9.31348 63.8347 9.05176 63.8347 8.79004ZM64.0574 6.3584L64.0691 7.31348H63.1258C62.9031 7.31348 62.7097 7.33887 62.5457 7.38965C62.3816 7.44043 62.2468 7.5127 62.1414 7.60645C62.0359 7.69629 61.9578 7.80176 61.907 7.92285C61.8601 8.04395 61.8367 8.17676 61.8367 8.32129C61.8367 8.46582 61.8699 8.59668 61.9363 8.71387C62.0027 8.82715 62.0984 8.91699 62.2234 8.9834C62.3484 9.0459 62.4949 9.07715 62.6629 9.07715C62.9168 9.07715 63.1375 9.02637 63.325 8.9248C63.5125 8.82324 63.657 8.69824 63.7586 8.5498C63.864 8.40137 63.9187 8.26074 63.9226 8.12793L64.3679 8.84277C64.3054 9.00293 64.2195 9.16895 64.1101 9.34082C64.0047 9.5127 63.8699 9.6748 63.7058 9.82715C63.5418 9.97559 63.3445 10.0986 63.114 10.1963C62.8836 10.29 62.6101 10.3369 62.2937 10.3369C61.8914 10.3369 61.5261 10.2568 61.198 10.0967C60.8738 9.93262 60.616 9.70801 60.4246 9.42285C60.2371 9.13379 60.1433 8.80566 60.1433 8.43848C60.1433 8.10645 60.2058 7.81152 60.3308 7.55371C60.4558 7.2959 60.6394 7.0791 60.8816 6.90332C61.1277 6.72363 61.4343 6.58887 61.8015 6.49902C62.1687 6.40527 62.5945 6.3584 63.0789 6.3584H64.0574Z" fill="white"/>
<path d="M57.9051 5.2627V10.2197H56.2176V3.87988H57.8054L57.9051 5.2627ZM59.8152 3.83887L59.7859 5.40332C59.7039 5.3916 59.6043 5.38184 59.4871 5.37402C59.3738 5.3623 59.2703 5.35645 59.1765 5.35645C58.9383 5.35645 58.7312 5.3877 58.5554 5.4502C58.3836 5.50879 58.239 5.59668 58.1218 5.71387C58.0086 5.83105 57.9226 5.97363 57.864 6.1416C57.8093 6.30957 57.7781 6.50098 57.7703 6.71582L57.4304 6.61035C57.4304 6.2002 57.4715 5.82324 57.5535 5.47949C57.6355 5.13184 57.7547 4.8291 57.9109 4.57129C58.0711 4.31348 58.2664 4.11426 58.4968 3.97363C58.7273 3.83301 58.991 3.7627 59.2879 3.7627C59.3816 3.7627 59.4773 3.77051 59.575 3.78613C59.6726 3.79785 59.7527 3.81543 59.8152 3.83887Z" fill="white"/>
<path d="M52.6551 10.3369C52.1629 10.3369 51.7215 10.2588 51.3308 10.1025C50.9402 9.94238 50.6082 9.72168 50.3347 9.44043C50.0652 9.15918 49.8582 8.83301 49.7136 8.46191C49.5691 8.08691 49.4968 7.68848 49.4968 7.2666V7.03223C49.4968 6.55176 49.5652 6.1123 49.7019 5.71387C49.8386 5.31543 50.034 4.96973 50.2879 4.67676C50.5457 4.38379 50.8582 4.15918 51.2254 4.00293C51.5926 3.84277 52.0066 3.7627 52.4676 3.7627C52.9168 3.7627 53.3152 3.83691 53.6629 3.98535C54.0105 4.13379 54.3015 4.34473 54.5359 4.61816C54.7742 4.8916 54.9539 5.21973 55.075 5.60254C55.1961 5.98145 55.2566 6.40332 55.2566 6.86816V7.57129H50.2176V6.44629H53.5984V6.31738C53.5984 6.08301 53.5554 5.87402 53.4695 5.69043C53.3875 5.50293 53.2625 5.35449 53.0945 5.24512C52.9265 5.13574 52.7117 5.08105 52.45 5.08105C52.2273 5.08105 52.0359 5.12988 51.8758 5.22754C51.7156 5.3252 51.5847 5.46191 51.4832 5.6377C51.3855 5.81348 51.3113 6.02051 51.2605 6.25879C51.2136 6.49316 51.1902 6.75098 51.1902 7.03223V7.2666C51.1902 7.52051 51.2254 7.75488 51.2957 7.96973C51.3699 8.18457 51.4734 8.37012 51.6062 8.52637C51.7429 8.68262 51.907 8.80371 52.0984 8.88965C52.2937 8.97559 52.5144 9.01855 52.7605 9.01855C53.0652 9.01855 53.3484 8.95996 53.6101 8.84277C53.8758 8.72168 54.1043 8.54004 54.2957 8.29785L55.116 9.18848C54.9832 9.37988 54.8015 9.56348 54.5711 9.73926C54.3445 9.91504 54.0711 10.0596 53.7508 10.1729C53.4304 10.2822 53.0652 10.3369 52.6551 10.3369Z" fill="white"/>
<path d="M44.6629 5.2334V10.2197H42.9754V3.87988H44.5574L44.6629 5.2334ZM44.4168 6.82715H43.9597C43.9597 6.3584 44.0203 5.93652 44.1414 5.56152C44.2625 5.18262 44.4324 4.86035 44.6511 4.59473C44.8699 4.3252 45.1297 4.12012 45.4304 3.97949C45.7351 3.83496 46.075 3.7627 46.45 3.7627C46.7468 3.7627 47.0183 3.80566 47.2644 3.8916C47.5105 3.97754 47.7215 4.11426 47.8972 4.30176C48.0769 4.48926 48.2136 4.7373 48.3074 5.0459C48.4051 5.35449 48.4539 5.73145 48.4539 6.17676V10.2197H46.7547V6.1709C46.7547 5.88965 46.7156 5.6709 46.6375 5.51465C46.5593 5.3584 46.4441 5.24902 46.2918 5.18652C46.1433 5.12012 45.9597 5.08691 45.741 5.08691C45.5144 5.08691 45.3172 5.13184 45.1492 5.22168C44.9851 5.31152 44.8484 5.43652 44.739 5.59668C44.6336 5.75293 44.5535 5.93652 44.4988 6.14746C44.4441 6.3584 44.4168 6.58496 44.4168 6.82715Z" fill="white"/>
<path d="M39.448 10.3369C38.9558 10.3369 38.5144 10.2588 38.1238 10.1025C37.7332 9.94238 37.4011 9.72168 37.1277 9.44043C36.8582 9.15918 36.6511 8.83301 36.5066 8.46191C36.3621 8.08691 36.2898 7.68848 36.2898 7.2666V7.03223C36.2898 6.55176 36.3582 6.1123 36.4949 5.71387C36.6316 5.31543 36.8269 4.96973 37.0808 4.67676C37.3386 4.38379 37.6511 4.15918 38.0183 4.00293C38.3855 3.84277 38.7996 3.7627 39.2605 3.7627C39.7097 3.7627 40.1082 3.83691 40.4558 3.98535C40.8035 4.13379 41.0945 4.34473 41.3289 4.61816C41.5672 4.8916 41.7468 5.21973 41.8679 5.60254C41.989 5.98145 42.0496 6.40332 42.0496 6.86816V7.57129H37.0105V6.44629H40.3914V6.31738C40.3914 6.08301 40.3484 5.87402 40.2625 5.69043C40.1804 5.50293 40.0554 5.35449 39.8875 5.24512C39.7195 5.13574 39.5047 5.08105 39.2429 5.08105C39.0203 5.08105 38.8289 5.12988 38.6687 5.22754C38.5086 5.3252 38.3777 5.46191 38.2761 5.6377C38.1785 5.81348 38.1043 6.02051 38.0535 6.25879C38.0066 6.49316 37.9832 6.75098 37.9832 7.03223V7.2666C37.9832 7.52051 38.0183 7.75488 38.0886 7.96973C38.1629 8.18457 38.2664 8.37012 38.3992 8.52637C38.5359 8.68262 38.7 8.80371 38.8914 8.88965C39.0867 8.97559 39.3074 9.01855 39.5535 9.01855C39.8582 9.01855 40.1414 8.95996 40.4031 8.84277C40.6687 8.72168 40.8972 8.54004 41.0886 8.29785L41.909 9.18848C41.7761 9.37988 41.5945 9.56348 41.364 9.73926C41.1375 9.91504 40.864 10.0596 40.5437 10.1729C40.2234 10.2822 39.8582 10.3369 39.448 10.3369Z" fill="white"/>
<path d="M35.2176 5.76074V9.1416C35.0847 9.30176 34.8797 9.47559 34.6023 9.66309C34.325 9.84668 33.9676 10.0049 33.5301 10.1377C33.0926 10.2705 32.5633 10.3369 31.9422 10.3369C31.3914 10.3369 30.8894 10.2471 30.4363 10.0674C29.9832 9.88379 29.5926 9.61621 29.2644 9.26465C28.9402 8.91309 28.6902 8.4834 28.5144 7.97559C28.3386 7.46387 28.2508 6.87988 28.2508 6.22363V5.69043C28.2508 5.03418 28.3347 4.4502 28.5027 3.93848C28.6746 3.42676 28.9187 2.99512 29.2351 2.64355C29.5515 2.29199 29.9285 2.02441 30.366 1.84082C30.8035 1.65723 31.2898 1.56543 31.825 1.56543C32.5672 1.56543 33.1765 1.68652 33.6531 1.92871C34.1297 2.16699 34.4929 2.49902 34.7429 2.9248C34.9968 3.34668 35.1531 3.83105 35.2117 4.37793H33.5066C33.4636 4.08887 33.3816 3.83691 33.2605 3.62207C33.1394 3.40723 32.9656 3.23926 32.739 3.11816C32.5164 2.99707 32.2273 2.93652 31.8718 2.93652C31.5789 2.93652 31.3172 2.99707 31.0867 3.11816C30.8601 3.23535 30.6687 3.40918 30.5125 3.63965C30.3562 3.87012 30.2371 4.15527 30.1551 4.49512C30.073 4.83496 30.032 5.22949 30.032 5.67871V6.22363C30.032 6.66895 30.075 7.06348 30.1609 7.40723C30.2468 7.74707 30.3738 8.03418 30.5418 8.26855C30.7136 8.49902 30.9246 8.67285 31.1746 8.79004C31.4246 8.90723 31.7156 8.96582 32.0476 8.96582C32.325 8.96582 32.5554 8.94238 32.739 8.89551C32.9265 8.84863 33.0769 8.79199 33.1902 8.72559C33.3074 8.65527 33.3972 8.58887 33.4597 8.52637V7.01465H31.8543V5.76074H35.2176Z" fill="white"/>
</svg>
