<svg width="325" height="52" viewBox="0 0 325 52" fill="none" xmlns="http://www.w3.org/2000/svg">
<path d="M0 9.71717L5.34018 6.56566V27.3131L17.6226 34.1414L30.172 27.3131V13.1313L35.5122 16.2828V48.3232L30.172 51.4747V33.6162L17.6226 40.7071L5.34018 33.6162V52L0 48.3232V9.71717Z" fill="white"/>
<path d="M30.172 7.09091V11.5556L35.2452 14.4444V9.9798L30.172 7.09091Z" fill="white"/>
<path d="M27.2349 12.8687H16.5546V18.3838H21.8947V22.5859L17.6226 24.9495L13.3505 22.5859V8.92929L17.6226 6.56566L21.8947 8.92929V10.5051H27.2349V5.77778L17.6226 0L7.74326 5.77778V25.7374L17.6226 30.9899L27.2349 25.7374V12.8687Z" fill="white"/>
<path d="M97.7331 34.1256V41.9929H95.0831V32.0716H97.568L97.7331 34.1256ZM97.3663 36.6838H96.6328C96.6328 35.9931 96.7153 35.3573 96.8803 34.7766C97.0515 34.1898 97.2991 33.6824 97.6231 33.2545C97.9532 32.8205 98.3597 32.4843 98.8426 32.2459C99.3255 32.0074 99.8848 31.8882 100.521 31.8882C100.961 31.8882 101.364 31.9555 101.731 32.09C102.098 32.2183 102.413 32.4231 102.675 32.7043C102.944 32.9794 103.152 33.3401 103.299 33.7863C103.446 34.2264 103.519 34.7552 103.519 35.3726V41.9929H100.878V35.666C100.878 35.2137 100.817 34.8652 100.695 34.6207C100.573 34.3762 100.398 34.205 100.172 34.1072C99.9521 34.0094 99.6862 33.9605 99.3744 33.9605C99.0321 33.9605 98.7326 34.0308 98.4758 34.1714C98.2252 34.312 98.0173 34.5076 97.8523 34.7583C97.6872 35.0028 97.565 35.2901 97.4855 35.6202C97.406 35.9503 97.3663 36.3048 97.3663 36.6838ZM103.271 36.3813L102.327 36.5005C102.327 35.8525 102.406 35.2504 102.565 34.6941C102.73 34.1378 102.972 33.6488 103.29 33.227C103.614 32.8052 104.014 32.4781 104.491 32.2459C104.968 32.0074 105.518 31.8882 106.141 31.8882C106.618 31.8882 107.052 31.9585 107.443 32.0991C107.835 32.2336 108.168 32.4506 108.443 32.7502C108.724 33.0436 108.938 33.4287 109.085 33.9055C109.238 34.3823 109.314 34.9661 109.314 35.6569V41.9929H106.664V35.6569C106.664 35.1984 106.603 34.85 106.481 34.6116C106.365 34.367 106.193 34.1989 105.967 34.1072C105.747 34.0094 105.484 33.9605 105.179 33.9605C104.861 33.9605 104.583 34.0247 104.344 34.1531C104.106 34.2753 103.907 34.4465 103.748 34.6666C103.589 34.8866 103.47 35.1434 103.391 35.4368C103.311 35.7241 103.271 36.0389 103.271 36.3813Z" fill="white"/>
<path d="M89.5173 42.1763C88.747 42.1763 88.0563 42.0541 87.445 41.8095C86.8337 41.5589 86.3141 41.2135 85.8862 40.7734C85.4644 40.3333 85.1404 39.8228 84.9142 39.2421C84.688 38.6553 84.575 38.0317 84.575 37.3715V37.0048C84.575 36.2529 84.6819 35.5652 84.8959 34.9417C85.1098 34.3181 85.4155 33.7771 85.8128 33.3187C86.2163 32.8602 86.7053 32.5087 87.2799 32.2642C87.8545 32.0136 88.5025 31.8882 89.2238 31.8882C89.9268 31.8882 90.5503 32.0044 91.0944 32.2367C91.6385 32.469 92.0939 32.7991 92.4606 33.227C92.8335 33.6549 93.1147 34.1684 93.3042 34.7674C93.4937 35.3604 93.5885 36.0206 93.5885 36.748V37.8484H85.7028V36.0878H90.9935V35.8861C90.9935 35.5193 90.9263 35.1923 90.7918 34.905C90.6634 34.6116 90.4678 34.3793 90.205 34.2081C89.9421 34.0369 89.6059 33.9514 89.1963 33.9514C88.8479 33.9514 88.5484 34.0278 88.2977 34.1806C88.0471 34.3334 87.8423 34.5474 87.6834 34.8225C87.5306 35.0975 87.4144 35.4215 87.3349 35.7944C87.2616 36.1612 87.2249 36.5646 87.2249 37.0048V37.3715C87.2249 37.7689 87.2799 38.1357 87.39 38.4719C87.5061 38.8081 87.6681 39.0985 87.8759 39.343C88.0899 39.5875 88.3466 39.777 88.6462 39.9115C88.9518 40.046 89.2972 40.1132 89.6823 40.1132C90.1591 40.1132 90.6023 40.0215 91.0119 39.8381C91.4276 39.6486 91.7852 39.3644 92.0847 38.9854L93.3684 40.3791C93.1606 40.6786 92.8763 40.966 92.5157 41.241C92.1611 41.5161 91.7332 41.7423 91.2319 41.9196C90.7307 42.0907 90.1591 42.1763 89.5173 42.1763Z" fill="white"/>
<path d="M83.447 32.0717V33.9423H77.6703V32.0717H83.447ZM79.1007 29.6235H81.7415V39.0038C81.7415 39.2911 81.7782 39.5111 81.8515 39.664C81.931 39.8168 82.0472 39.9238 82.2 39.9849C82.3528 40.0399 82.5454 40.0674 82.7776 40.0674C82.9427 40.0674 83.0894 40.0613 83.2178 40.0491C83.3523 40.0307 83.4654 40.0124 83.557 39.9941L83.5662 41.938C83.34 42.0113 83.0955 42.0694 82.8327 42.1122C82.5698 42.155 82.2794 42.1764 81.9616 42.1764C81.3808 42.1764 80.8735 42.0816 80.4394 41.8921C80.0115 41.6965 79.6814 41.3848 79.4492 40.9569C79.2169 40.529 79.1007 39.9666 79.1007 39.2697V29.6235Z" fill="white"/>
<path d="M74.3053 39.2513C74.3053 39.0618 74.2503 38.8906 74.1403 38.7378C74.0303 38.585 73.8255 38.4444 73.5259 38.316C73.2325 38.1815 72.8077 38.0593 72.2514 37.9492C71.7501 37.8392 71.2825 37.7016 70.8485 37.5366C70.4206 37.3654 70.0477 37.1607 69.7298 36.9222C69.418 36.6838 69.1735 36.4026 68.9963 36.0787C68.819 35.7486 68.7303 35.3726 68.7303 34.9508C68.7303 34.5351 68.819 34.1439 68.9963 33.7771C69.1796 33.4104 69.4394 33.0864 69.7757 32.8052C70.118 32.5179 70.5337 32.2948 71.0227 32.1358C71.5178 31.9708 72.0741 31.8882 72.6915 31.8882C73.5535 31.8882 74.2931 32.0258 74.9105 32.3009C75.534 32.5759 76.0109 32.955 76.341 33.4379C76.6772 33.9147 76.8453 34.4587 76.8453 35.07H74.2045C74.2045 34.8133 74.1495 34.584 74.0394 34.3823C73.9355 34.1745 73.7705 34.0125 73.5443 33.8963C73.3242 33.7741 73.0369 33.713 72.6824 33.713C72.3889 33.713 72.1352 33.7649 71.9213 33.8688C71.7073 33.9666 71.5423 34.1011 71.4261 34.2723C71.3161 34.4373 71.2611 34.6207 71.2611 34.8225C71.2611 34.9753 71.2917 35.1128 71.3528 35.2351C71.42 35.3512 71.527 35.4582 71.6737 35.556C71.8204 35.6538 72.0099 35.7455 72.2422 35.8311C72.4806 35.9106 72.774 35.9839 73.1225 36.0512C73.8377 36.1979 74.4765 36.3904 75.0389 36.6288C75.6013 36.8611 76.0475 37.179 76.3776 37.5824C76.7077 37.9798 76.8728 38.5024 76.8728 39.1504C76.8728 39.5905 76.775 39.994 76.5794 40.3608C76.3837 40.7275 76.1025 41.0485 75.7358 41.3236C75.369 41.5925 74.9289 41.8034 74.4154 41.9562C73.908 42.103 73.3364 42.1763 72.7007 42.1763C71.7776 42.1763 70.9952 42.0113 70.3533 41.6812C69.7176 41.3511 69.2347 40.9323 68.9046 40.425C68.5806 39.9115 68.4186 39.3858 68.4186 38.8478H70.9218C70.9341 39.2085 71.0257 39.4988 71.1969 39.7189C71.3742 39.939 71.5973 40.0979 71.8663 40.1957C72.1414 40.2935 72.4378 40.3424 72.7557 40.3424C73.098 40.3424 73.3823 40.2966 73.6085 40.2049C73.8346 40.1071 74.0058 39.9787 74.122 39.8198C74.2442 39.6547 74.3053 39.4652 74.3053 39.2513Z" fill="white"/>
<path d="M62.4217 40.8743L65.0533 32.0717H67.8867L63.898 43.4876C63.8124 43.7382 63.6963 44.0072 63.5496 44.2945C63.409 44.5818 63.2164 44.8538 62.9719 45.1106C62.7335 45.3734 62.4309 45.5874 62.0641 45.7524C61.7034 45.9175 61.2603 46 60.7345 46C60.4839 46 60.2791 45.9847 60.1202 45.9541C59.9613 45.9236 59.7718 45.8808 59.5517 45.8258V43.891C59.6189 43.891 59.6892 43.891 59.7626 43.891C59.8359 43.8971 59.9062 43.9002 59.9735 43.9002C60.3219 43.9002 60.6062 43.8605 60.8262 43.781C61.0463 43.7015 61.2236 43.5793 61.3581 43.4142C61.4925 43.2553 61.5995 43.0474 61.679 42.7907L62.4217 40.8743ZM61.3214 32.0717L63.4762 39.2605L63.8521 42.0571L62.0549 42.2497L58.488 32.0717H61.3214Z" fill="white"/>
<path d="M55.022 38.4994C55.022 38.261 54.9853 38.0471 54.9119 37.8576C54.8447 37.662 54.7163 37.4847 54.5268 37.3257C54.3373 37.1607 54.0714 36.9987 53.7291 36.8398C53.3867 36.6808 52.9436 36.5158 52.3995 36.3446C51.7943 36.149 51.2197 35.9289 50.6757 35.6844C50.1377 35.4399 49.6609 35.1556 49.2452 34.8317C48.8357 34.5016 48.5117 34.1195 48.2733 33.6855C48.041 33.2515 47.9248 32.7471 47.9248 32.1725C47.9248 31.6163 48.0471 31.1119 48.2916 30.6596C48.5361 30.2011 48.8784 29.8099 49.3186 29.4859C49.7587 29.1558 50.2783 28.9021 50.8774 28.7248C51.4826 28.5476 52.1458 28.4589 52.8671 28.4589C53.8513 28.4589 54.7102 28.6362 55.4437 28.9907C56.1773 29.3453 56.7458 29.8313 57.1493 30.4487C57.5588 31.0661 57.7636 31.7721 57.7636 32.5668H55.0311C55.0311 32.1756 54.9486 31.8333 54.7835 31.5398C54.6246 31.2403 54.3801 31.005 54.05 30.8338C53.726 30.6626 53.3164 30.5771 52.8213 30.5771C52.3445 30.5771 51.9471 30.6504 51.6293 30.7971C51.3114 30.9377 51.073 31.1303 50.9141 31.3748C50.7551 31.6132 50.6757 31.8822 50.6757 32.1817C50.6757 32.4079 50.7307 32.6127 50.8407 32.7961C50.9568 32.9794 51.128 33.1506 51.3542 33.3095C51.5804 33.4685 51.8585 33.6182 52.1886 33.7588C52.5187 33.8994 52.9008 34.037 53.3348 34.1715C54.0622 34.3915 54.701 34.6391 55.2512 34.9142C55.8075 35.1893 56.2721 35.498 56.6449 35.8403C57.0178 36.1826 57.299 36.5708 57.4885 37.0048C57.678 37.4388 57.7728 37.9309 57.7728 38.4811C57.7728 39.0618 57.6597 39.5814 57.4335 40.0399C57.2073 40.4984 56.8803 40.8865 56.4524 41.2044C56.0245 41.5223 55.514 41.7637 54.9211 41.9288C54.3281 42.0938 53.6649 42.1764 52.9313 42.1764C52.2711 42.1764 51.6201 42.0908 50.9782 41.9196C50.3364 41.7423 49.7526 41.4764 49.2269 41.1219C48.7073 40.7673 48.2916 40.315 47.9798 39.7648C47.6681 39.2146 47.5122 38.5636 47.5122 37.8117H50.2722C50.2722 38.2274 50.3364 38.5789 50.4648 38.8662C50.5931 39.1535 50.7735 39.3858 51.0058 39.5631C51.2442 39.7403 51.5254 39.8687 51.8493 39.9482C52.1794 40.0277 52.5401 40.0674 52.9313 40.0674C53.4081 40.0674 53.7994 40.0001 54.105 39.8657C54.4168 39.7312 54.646 39.5447 54.7927 39.3063C54.9455 39.0679 55.022 38.799 55.022 38.4994Z" fill="white"/>
<path d="M324.034 10.163V12.0335H318.257V10.163H324.034ZM319.688 7.71472H322.328V17.095C322.328 17.3823 322.365 17.6024 322.439 17.7552C322.518 17.908 322.634 18.015 322.787 18.0761C322.94 18.1312 323.132 18.1587 323.365 18.1587C323.53 18.1587 323.676 18.1526 323.805 18.1403C323.939 18.122 324.052 18.1037 324.144 18.0853L324.153 20.0292C323.927 20.1026 323.682 20.1607 323.42 20.2035C323.157 20.2462 322.866 20.2676 322.549 20.2676C321.968 20.2676 321.46 20.1729 321.026 19.9834C320.599 19.7878 320.268 19.476 320.036 19.0481C319.804 18.6202 319.688 18.0578 319.688 17.3609V7.71472Z" fill="white"/>
<path d="M311.234 12.281V20.0842H308.593V10.1629H311.069L311.234 12.281ZM310.849 14.7751H310.134C310.134 14.0415 310.228 13.3813 310.418 12.7945C310.607 12.2015 310.873 11.6972 311.216 11.2815C311.558 10.8598 311.964 10.5388 312.435 10.3188C312.912 10.0926 313.444 9.97949 314.031 9.97949C314.495 9.97949 314.92 10.0467 315.305 10.1812C315.69 10.3157 316.02 10.5297 316.295 10.8231C316.577 11.1165 316.791 11.5047 316.937 11.9876C317.09 12.4705 317.167 13.0604 317.167 13.7573V20.0842H314.507V13.7481C314.507 13.308 314.446 12.9657 314.324 12.7211C314.202 12.4766 314.021 12.3055 313.783 12.2077C313.551 12.1037 313.263 12.0518 312.921 12.0518C312.567 12.0518 312.258 12.1221 311.995 12.2627C311.738 12.4033 311.524 12.5989 311.353 12.8495C311.188 13.094 311.063 13.3813 310.977 13.7114C310.892 14.0415 310.849 14.3961 310.849 14.7751Z" fill="white"/>
<path d="M303.073 20.2676C302.302 20.2676 301.612 20.1453 301 19.9008C300.389 19.6502 299.87 19.3048 299.442 18.8646C299.02 18.4245 298.696 17.9141 298.47 17.3334C298.243 16.7465 298.13 16.123 298.13 15.4628V15.096C298.13 14.3441 298.237 13.6564 298.451 13.0329C298.665 12.4094 298.971 11.8684 299.368 11.4099C299.772 10.9514 300.261 10.6 300.835 10.3554C301.41 10.1048 302.058 9.97949 302.779 9.97949C303.482 9.97949 304.106 10.0956 304.65 10.3279C305.194 10.5602 305.649 10.8903 306.016 11.3182C306.389 11.7461 306.67 12.2596 306.86 12.8587C307.049 13.4516 307.144 14.1118 307.144 14.8393V15.9396H299.258V14.1791H304.549V13.9774C304.549 13.6106 304.482 13.2835 304.347 12.9962C304.219 12.7028 304.023 12.4705 303.76 12.2994C303.498 12.1282 303.161 12.0426 302.752 12.0426C302.403 12.0426 302.104 12.119 301.853 12.2718C301.603 12.4247 301.398 12.6386 301.239 12.9137C301.086 13.1888 300.97 13.5128 300.89 13.8857C300.817 14.2524 300.78 14.6559 300.78 15.096V15.4628C300.78 15.8601 300.835 16.2269 300.945 16.5631C301.062 16.8993 301.224 17.1897 301.431 17.4342C301.645 17.6787 301.902 17.8682 302.202 18.0027C302.507 18.1372 302.853 18.2044 303.238 18.2044C303.715 18.2044 304.158 18.1128 304.567 17.9294C304.983 17.7399 305.341 17.4556 305.64 17.0766L306.924 18.4704C306.716 18.7699 306.432 19.0572 306.071 19.3323C305.717 19.6074 305.289 19.8335 304.787 20.0108C304.286 20.182 303.715 20.2676 303.073 20.2676Z" fill="white"/>
<path d="M294.059 10.1629H296.452V19.7541C296.452 20.6588 296.251 21.426 295.847 22.0556C295.45 22.6913 294.894 23.1712 294.178 23.4952C293.463 23.8253 292.632 23.9903 291.684 23.9903C291.269 23.9903 290.828 23.9353 290.364 23.8253C289.905 23.7153 289.465 23.5441 289.044 23.3118C288.628 23.0795 288.279 22.7861 287.998 22.4315L289.163 20.8727C289.468 21.2273 289.823 21.5024 290.226 21.698C290.63 21.8997 291.076 22.0006 291.565 22.0006C292.042 22.0006 292.445 21.9119 292.775 21.7347C293.106 21.5635 293.359 21.3098 293.537 20.9736C293.714 20.6435 293.802 20.2431 293.802 19.7724V12.4552L294.059 10.1629ZM287.384 15.2427V15.0502C287.384 14.2922 287.476 13.6045 287.659 12.9871C287.848 12.3635 288.114 11.8287 288.457 11.3824C288.805 10.9362 289.227 10.5908 289.722 10.3463C290.217 10.1018 290.777 9.97949 291.4 9.97949C292.06 9.97949 292.613 10.1018 293.06 10.3463C293.506 10.5908 293.873 10.9392 294.16 11.3916C294.447 11.8378 294.67 12.3666 294.829 12.9779C294.994 13.5831 295.123 14.2463 295.215 14.9676V15.3894C295.123 16.0802 294.985 16.7221 294.802 17.315C294.619 17.908 294.377 18.4276 294.078 18.8738C293.778 19.3139 293.405 19.6563 292.959 19.9008C292.519 20.1453 291.993 20.2676 291.382 20.2676C290.77 20.2676 290.217 20.1423 289.722 19.8916C289.233 19.641 288.814 19.2895 288.466 18.8371C288.117 18.3848 287.848 17.853 287.659 17.2417C287.476 16.6304 287.384 15.9641 287.384 15.2427ZM290.025 15.0502V15.2427C290.025 15.6523 290.064 16.0344 290.144 16.3889C290.223 16.7435 290.346 17.0583 290.511 17.3334C290.682 17.6023 290.893 17.8132 291.143 17.966C291.4 18.1128 291.703 18.1861 292.051 18.1861C292.534 18.1861 292.928 18.0852 293.234 17.8835C293.54 17.6757 293.769 17.3914 293.922 17.0308C294.074 16.6701 294.163 16.2544 294.188 15.7837V14.5825C294.175 14.1974 294.123 13.852 294.032 13.5464C293.94 13.2346 293.812 12.9687 293.647 12.7487C293.482 12.5286 293.268 12.3574 293.005 12.2352C292.742 12.1129 292.43 12.0518 292.069 12.0518C291.721 12.0518 291.418 12.1312 291.162 12.2902C290.911 12.443 290.7 12.6539 290.529 12.9229C290.364 13.1918 290.239 13.5097 290.153 13.8765C290.067 14.2372 290.025 14.6284 290.025 15.0502Z" fill="white"/>
<path d="M285.596 10.1629V20.0842H282.946V10.1629H285.596ZM282.781 7.57712C282.781 7.19201 282.915 6.87413 283.184 6.6235C283.453 6.37287 283.814 6.24756 284.266 6.24756C284.713 6.24756 285.07 6.37287 285.339 6.6235C285.614 6.87413 285.752 7.19201 285.752 7.57712C285.752 7.96224 285.614 8.28011 285.339 8.53074C285.07 8.78137 284.713 8.90669 284.266 8.90669C283.814 8.90669 283.453 8.78137 283.184 8.53074C282.915 8.28011 282.781 7.96224 282.781 7.57712Z" fill="white"/>
<path d="M280.626 6V20.0842H277.976V6H280.626Z" fill="white"/>
<path d="M275.656 6V20.0842H273.006V6H275.656Z" fill="white"/>
<path d="M267.294 20.2676C266.523 20.2676 265.833 20.1453 265.221 19.9008C264.61 19.6502 264.091 19.3048 263.663 18.8646C263.241 18.4245 262.917 17.9141 262.691 17.3334C262.464 16.7465 262.351 16.123 262.351 15.4628V15.096C262.351 14.3441 262.458 13.6564 262.672 13.0329C262.886 12.4094 263.192 11.8684 263.589 11.4099C263.993 10.9514 264.482 10.6 265.056 10.3554C265.631 10.1048 266.279 9.97949 267 9.97949C267.703 9.97949 268.327 10.0956 268.871 10.3279C269.415 10.5602 269.87 10.8903 270.237 11.3182C270.61 11.7461 270.891 12.2596 271.081 12.8587C271.27 13.4516 271.365 14.1118 271.365 14.8393V15.9396H263.479V14.1791H268.77V13.9774C268.77 13.6106 268.703 13.2835 268.568 12.9962C268.44 12.7028 268.244 12.4705 267.981 12.2994C267.719 12.1282 267.382 12.0426 266.973 12.0426C266.624 12.0426 266.325 12.119 266.074 12.2718C265.824 12.4247 265.619 12.6386 265.46 12.9137C265.307 13.1888 265.191 13.5128 265.111 13.8857C265.038 14.2524 265.001 14.6559 265.001 15.096V15.4628C265.001 15.8601 265.056 16.2269 265.166 16.5631C265.283 16.8993 265.445 17.1897 265.652 17.4342C265.866 17.6787 266.123 17.8682 266.423 18.0027C266.728 18.1372 267.074 18.2044 267.459 18.2044C267.936 18.2044 268.379 18.1128 268.788 17.9294C269.204 17.7399 269.562 17.4556 269.861 17.0766L271.145 18.4704C270.937 18.7699 270.653 19.0572 270.292 19.3323C269.938 19.6074 269.51 19.8335 269.008 20.0108C268.507 20.182 267.936 20.2676 267.294 20.2676Z" fill="white"/>
<path d="M261.224 10.163V12.0335H255.447V10.163H261.224ZM256.877 7.71472H259.518V17.095C259.518 17.3823 259.555 17.6024 259.628 17.7552C259.707 17.908 259.824 18.015 259.976 18.0761C260.129 18.1312 260.322 18.1587 260.554 18.1587C260.719 18.1587 260.866 18.1526 260.994 18.1403C261.129 18.122 261.242 18.1037 261.334 18.0853L261.343 20.0292C261.117 20.1026 260.872 20.1607 260.609 20.2035C260.346 20.2462 260.056 20.2676 259.738 20.2676C259.157 20.2676 258.65 20.1729 258.216 19.9834C257.788 19.7878 257.458 19.476 257.226 19.0481C256.993 18.6202 256.877 18.0578 256.877 17.3609V7.71472Z" fill="white"/>
<path d="M248.423 12.281V20.0842H245.782V10.1629H248.258L248.423 12.281ZM248.038 14.7751H247.323C247.323 14.0415 247.418 13.3813 247.607 12.7945C247.797 12.2015 248.063 11.6972 248.405 11.2815C248.747 10.8598 249.154 10.5388 249.624 10.3188C250.101 10.0926 250.633 9.97949 251.22 9.97949C251.685 9.97949 252.109 10.0467 252.494 10.1812C252.88 10.3157 253.21 10.5297 253.485 10.8231C253.766 11.1165 253.98 11.5047 254.127 11.9876C254.279 12.4705 254.356 13.0604 254.356 13.7573V20.0842H251.697V13.7481C251.697 13.308 251.636 12.9657 251.513 12.7211C251.391 12.4766 251.211 12.3055 250.972 12.2077C250.74 12.1037 250.453 12.0518 250.11 12.0518C249.756 12.0518 249.447 12.1221 249.184 12.2627C248.928 12.4033 248.714 12.5989 248.542 12.8495C248.377 13.094 248.252 13.3813 248.167 13.7114C248.081 14.0415 248.038 14.3961 248.038 14.7751Z" fill="white"/>
<path d="M243.426 6.73358V20.0842H240.684V6.73358H243.426Z" fill="white"/>
<path d="M230.084 20.2676C229.314 20.2676 228.623 20.1453 228.012 19.9008C227.401 19.6502 226.881 19.3048 226.453 18.8646C226.031 18.4245 225.707 17.9141 225.481 17.3334C225.255 16.7465 225.142 16.123 225.142 15.4628V15.096C225.142 14.3441 225.249 13.6564 225.463 13.0329C225.677 12.4094 225.982 11.8684 226.38 11.4099C226.783 10.9514 227.272 10.6 227.847 10.3554C228.422 10.1048 229.07 9.97949 229.791 9.97949C230.494 9.97949 231.117 10.0956 231.661 10.3279C232.205 10.5602 232.661 10.8903 233.028 11.3182C233.401 11.7461 233.682 12.2596 233.871 12.8587C234.061 13.4516 234.155 14.1118 234.155 14.8393V15.9396H226.27V14.1791H231.561V13.9774C231.561 13.6106 231.493 13.2835 231.359 12.9962C231.23 12.7028 231.035 12.4705 230.772 12.2994C230.509 12.1282 230.173 12.0426 229.763 12.0426C229.415 12.0426 229.115 12.119 228.865 12.2718C228.614 12.4247 228.409 12.6386 228.25 12.9137C228.098 13.1888 227.981 13.5128 227.902 13.8857C227.829 14.2524 227.792 14.6559 227.792 15.096V15.4628C227.792 15.8601 227.847 16.2269 227.957 16.5631C228.073 16.8993 228.235 17.1897 228.443 17.4342C228.657 17.6787 228.914 17.8682 229.213 18.0027C229.519 18.1372 229.864 18.2044 230.249 18.2044C230.726 18.2044 231.169 18.1128 231.579 17.9294C231.995 17.7399 232.352 17.4556 232.652 17.0766L233.935 18.4704C233.728 18.7699 233.443 19.0572 233.083 19.3323C232.728 19.6074 232.3 19.8335 231.799 20.0108C231.298 20.182 230.726 20.2676 230.084 20.2676Z" fill="white"/>
<path d="M221.465 12.3269V20.0842H218.824V10.1629H221.309L221.465 12.3269ZM224.454 10.0987L224.409 12.5469C224.28 12.5286 224.124 12.5133 223.941 12.5011C223.764 12.4827 223.602 12.4736 223.455 12.4736C223.082 12.4736 222.758 12.5225 222.483 12.6203C222.214 12.712 221.988 12.8495 221.804 13.0329C221.627 13.2163 221.493 13.4394 221.401 13.7023C221.315 13.9651 221.267 14.2647 221.254 14.6009L220.722 14.4358C220.722 13.794 220.787 13.2041 220.915 12.6661C221.043 12.1221 221.23 11.6483 221.474 11.2449C221.725 10.8414 222.031 10.5297 222.391 10.3096C222.752 10.0895 223.165 9.97949 223.629 9.97949C223.776 9.97949 223.926 9.99172 224.078 10.0162C224.231 10.0345 224.357 10.062 224.454 10.0987Z" fill="white"/>
<path d="M214.13 17.8468V13.4272C214.13 13.1093 214.078 12.8373 213.974 12.6111C213.87 12.3788 213.708 12.1985 213.488 12.0701C213.274 11.9417 212.996 11.8776 212.653 11.8776C212.36 11.8776 212.106 11.9295 211.892 12.0334C211.678 12.1312 211.513 12.2749 211.397 12.4644C211.281 12.6478 211.223 12.8648 211.223 13.1154H208.582C208.582 12.6936 208.68 12.2932 208.876 11.9142C209.071 11.5352 209.355 11.2021 209.728 10.9148C210.101 10.6214 210.544 10.3921 211.058 10.2271C211.577 10.062 212.158 9.97949 212.8 9.97949C213.57 9.97949 214.255 10.1079 214.854 10.3646C215.453 10.6214 215.924 11.0065 216.266 11.52C216.615 12.0334 216.789 12.6753 216.789 13.4455V17.691C216.789 18.235 216.822 18.6813 216.89 19.0297C216.957 19.372 217.055 19.6715 217.183 19.9283V20.0842H214.515C214.386 19.8152 214.289 19.479 214.221 19.0755C214.16 18.666 214.13 18.2564 214.13 17.8468ZM214.478 14.0415L214.496 15.5361H213.02C212.672 15.5361 212.369 15.5759 212.112 15.6554C211.856 15.7348 211.645 15.8479 211.48 15.9946C211.315 16.1352 211.192 16.3003 211.113 16.4898C211.04 16.6793 211.003 16.8871 211.003 17.1133C211.003 17.3395 211.055 17.5442 211.159 17.7276C211.263 17.9049 211.412 18.0455 211.608 18.1494C211.804 18.2472 212.033 18.2961 212.296 18.2961C212.693 18.2961 213.038 18.2167 213.332 18.0577C213.625 17.8988 213.851 17.7032 214.01 17.4709C214.175 17.2386 214.261 17.0185 214.267 16.8107L214.964 17.9294C214.866 18.18 214.732 18.4398 214.561 18.7088C214.396 18.9777 214.185 19.2314 213.928 19.4698C213.671 19.7021 213.362 19.8947 213.002 20.0475C212.641 20.1942 212.213 20.2676 211.718 20.2676C211.088 20.2676 210.517 20.1422 210.003 19.8916C209.496 19.6349 209.093 19.2834 208.793 18.8371C208.5 18.3848 208.353 17.8713 208.353 17.2967C208.353 16.7771 208.451 16.3155 208.646 15.9121C208.842 15.5086 209.129 15.1694 209.508 14.8943C209.893 14.6131 210.373 14.4022 210.948 14.2616C211.522 14.1149 212.189 14.0415 212.947 14.0415H214.478Z" fill="white"/>
<path d="M203.08 18.2044C203.404 18.2044 203.692 18.1433 203.942 18.0211C204.193 17.8927 204.389 17.7154 204.529 17.4892C204.676 17.2569 204.752 16.9849 204.758 16.6732H207.243C207.237 17.37 207.051 17.9905 206.684 18.5345C206.317 19.0725 205.825 19.4973 205.208 19.8091C204.59 20.1147 203.899 20.2676 203.135 20.2676C202.365 20.2676 201.693 20.1392 201.118 19.8824C200.55 19.6257 200.076 19.2712 199.697 18.8188C199.318 18.3603 199.034 17.8285 198.844 17.2233C198.655 16.612 198.56 15.9579 198.56 15.2611V14.9952C198.56 14.2922 198.655 13.6381 198.844 13.0329C199.034 12.4216 199.318 11.8898 199.697 11.4374C200.076 10.979 200.55 10.6214 201.118 10.3646C201.687 10.1079 202.353 9.97949 203.117 9.97949C203.93 9.97949 204.642 10.1354 205.253 10.4471C205.871 10.7589 206.354 11.2051 206.702 11.7859C207.057 12.3605 207.237 13.0421 207.243 13.8306H204.758C204.752 13.5005 204.682 13.201 204.547 12.932C204.419 12.6631 204.23 12.4491 203.979 12.2902C203.734 12.1251 203.432 12.0426 203.071 12.0426C202.686 12.0426 202.371 12.1251 202.127 12.2902C201.882 12.4491 201.693 12.6692 201.558 12.9504C201.424 13.2255 201.329 13.5403 201.274 13.8948C201.225 14.2433 201.201 14.61 201.201 14.9952V15.2611C201.201 15.6462 201.225 16.016 201.274 16.3706C201.323 16.7251 201.415 17.0399 201.549 17.315C201.69 17.5901 201.882 17.8071 202.127 17.966C202.371 18.125 202.689 18.2044 203.08 18.2044Z" fill="white"/>
<path d="M191.032 6V20.0842H188.391V6H191.032ZM190.656 14.7751H189.931C189.938 14.0844 190.029 13.4486 190.206 12.8679C190.384 12.281 190.637 11.7737 190.968 11.3458C191.298 10.9117 191.692 10.5755 192.15 10.3371C192.615 10.0987 193.128 9.97952 193.691 9.97952C194.18 9.97952 194.623 10.0498 195.02 10.1904C195.424 10.3249 195.769 10.545 196.057 10.8506C196.35 11.1501 196.576 11.5444 196.735 12.0335C196.894 12.5225 196.973 13.1155 196.973 13.8123V20.0842H194.314V13.794C194.314 13.3539 194.25 13.0085 194.122 12.7579C194 12.5011 193.819 12.3208 193.581 12.2169C193.349 12.1068 193.061 12.0518 192.719 12.0518C192.34 12.0518 192.016 12.1221 191.747 12.2627C191.484 12.4033 191.273 12.5989 191.114 12.8495C190.955 13.0941 190.839 13.3814 190.766 13.7115C190.692 14.0416 190.656 14.3961 190.656 14.7751Z" fill="white"/>
<path d="M186.951 10.163V12.0335H181.175V10.163H186.951ZM182.605 7.71472H185.246V17.095C185.246 17.3823 185.283 17.6024 185.356 17.7552C185.435 17.908 185.551 18.015 185.704 18.0761C185.857 18.1312 186.05 18.1587 186.282 18.1587C186.447 18.1587 186.594 18.1526 186.722 18.1403C186.857 18.122 186.97 18.1037 187.061 18.0853L187.071 20.0292C186.844 20.1026 186.6 20.1607 186.337 20.2035C186.074 20.2462 185.784 20.2676 185.466 20.2676C184.885 20.2676 184.378 20.1729 183.944 19.9834C183.516 19.7878 183.186 19.476 182.953 19.0481C182.721 18.6202 182.605 18.0578 182.605 17.3609V7.71472Z" fill="white"/>
<path d="M179.909 6V20.0842H177.259V6H179.909Z" fill="white"/>
<path d="M172.427 17.8468V13.4272C172.427 13.1093 172.375 12.8373 172.271 12.6111C172.167 12.3788 172.005 12.1985 171.785 12.0701C171.571 11.9417 171.293 11.8776 170.951 11.8776C170.657 11.8776 170.404 11.9295 170.19 12.0334C169.976 12.1312 169.811 12.2749 169.695 12.4644C169.578 12.6478 169.52 12.8648 169.52 13.1154H166.88C166.88 12.6936 166.977 12.2932 167.173 11.9142C167.369 11.5352 167.653 11.2021 168.026 10.9148C168.399 10.6214 168.842 10.3921 169.355 10.2271C169.875 10.062 170.456 9.97949 171.097 9.97949C171.868 9.97949 172.552 10.1079 173.151 10.3646C173.75 10.6214 174.221 11.0065 174.563 11.52C174.912 12.0334 175.086 12.6753 175.086 13.4455V17.691C175.086 18.235 175.12 18.6813 175.187 19.0297C175.254 19.372 175.352 19.6715 175.48 19.9283V20.0842H172.812C172.684 19.8152 172.586 19.479 172.519 19.0755C172.458 18.666 172.427 18.2564 172.427 17.8468ZM172.775 14.0415L172.794 15.5361H171.317C170.969 15.5361 170.666 15.5759 170.41 15.6554C170.153 15.7348 169.942 15.8479 169.777 15.9946C169.612 16.1352 169.49 16.3003 169.41 16.4898C169.337 16.6793 169.3 16.8871 169.3 17.1133C169.3 17.3395 169.352 17.5442 169.456 17.7276C169.56 17.9049 169.71 18.0455 169.905 18.1494C170.101 18.2472 170.33 18.2961 170.593 18.2961C170.99 18.2961 171.336 18.2167 171.629 18.0577C171.923 17.8988 172.149 17.7032 172.308 17.4709C172.473 17.2386 172.558 17.0185 172.565 16.8107L173.261 17.9294C173.164 18.18 173.029 18.4398 172.858 18.7088C172.693 18.9777 172.482 19.2314 172.225 19.4698C171.969 19.7021 171.66 19.8947 171.299 20.0475C170.938 20.1942 170.511 20.2676 170.015 20.2676C169.386 20.2676 168.814 20.1422 168.301 19.8916C167.793 19.6349 167.39 19.2834 167.09 18.8371C166.797 18.3848 166.65 17.8713 166.65 17.2967C166.65 16.7771 166.748 16.3155 166.944 15.9121C167.139 15.5086 167.427 15.1694 167.806 14.8943C168.191 14.6131 168.671 14.4022 169.245 14.2616C169.82 14.1149 170.486 14.0415 171.244 14.0415H172.775Z" fill="white"/>
<path d="M161.497 20.2676C160.727 20.2676 160.036 20.1453 159.425 19.9008C158.814 19.6502 158.294 19.3048 157.866 18.8646C157.444 18.4245 157.12 17.9141 156.894 17.3334C156.668 16.7465 156.555 16.123 156.555 15.4628V15.096C156.555 14.3441 156.662 13.6564 156.876 13.0329C157.09 12.4094 157.395 11.8684 157.793 11.4099C158.196 10.9514 158.685 10.6 159.26 10.3554C159.834 10.1048 160.482 9.97949 161.204 9.97949C161.907 9.97949 162.53 10.0956 163.074 10.3279C163.618 10.5602 164.074 10.8903 164.441 11.3182C164.813 11.7461 165.095 12.2596 165.284 12.8587C165.474 13.4516 165.568 14.1118 165.568 14.8393V15.9396H157.683V14.1791H162.973V13.9774C162.973 13.6106 162.906 13.2835 162.772 12.9962C162.643 12.7028 162.448 12.4705 162.185 12.2994C161.922 12.1282 161.586 12.0426 161.176 12.0426C160.828 12.0426 160.528 12.119 160.278 12.2718C160.027 12.4247 159.822 12.6386 159.663 12.9137C159.51 13.1888 159.394 13.5128 159.315 13.8857C159.241 14.2524 159.205 14.6559 159.205 15.096V15.4628C159.205 15.8601 159.26 16.2269 159.37 16.5631C159.486 16.8993 159.648 17.1897 159.856 17.4342C160.07 17.6787 160.326 17.8682 160.626 18.0027C160.932 18.1372 161.277 18.2044 161.662 18.2044C162.139 18.2044 162.582 18.1128 162.992 17.9294C163.407 17.7399 163.765 17.4556 164.065 17.0766L165.348 18.4704C165.14 18.7699 164.856 19.0572 164.496 19.3323C164.141 19.6074 163.713 19.8335 163.212 20.0108C162.711 20.182 162.139 20.2676 161.497 20.2676Z" fill="white"/>
<path d="M152.74 12.171V14.3167H145.772V12.171H152.74ZM146.588 6.73358V20.0842H143.837V6.73358H146.588ZM154.703 6.73358V20.0842H151.961V6.73358H154.703Z" fill="white"/>
<path d="M133.42 20.2676C132.65 20.2676 131.959 20.1453 131.348 19.9008C130.737 19.6502 130.217 19.3048 129.789 18.8646C129.367 18.4245 129.043 17.9141 128.817 17.3334C128.591 16.7465 128.478 16.123 128.478 15.4628V15.096C128.478 14.3441 128.585 13.6564 128.799 13.0329C129.013 12.4094 129.319 11.8684 129.716 11.4099C130.119 10.9514 130.608 10.6 131.183 10.3554C131.758 10.1048 132.406 9.97949 133.127 9.97949C133.83 9.97949 134.453 10.0956 134.997 10.3279C135.542 10.5602 135.997 10.8903 136.364 11.3182C136.737 11.7461 137.018 12.2596 137.207 12.8587C137.397 13.4516 137.492 14.1118 137.492 14.8393V15.9396H129.606V14.1791H134.897V13.9774C134.897 13.6106 134.829 13.2835 134.695 12.9962C134.567 12.7028 134.371 12.4705 134.108 12.2994C133.845 12.1282 133.509 12.0426 133.099 12.0426C132.751 12.0426 132.451 12.119 132.201 12.2718C131.95 12.4247 131.745 12.6386 131.586 12.9137C131.434 13.1888 131.317 13.5128 131.238 13.8857C131.165 14.2524 131.128 14.6559 131.128 15.096V15.4628C131.128 15.8601 131.183 16.2269 131.293 16.5631C131.409 16.8993 131.571 17.1897 131.779 17.4342C131.993 17.6787 132.25 17.8682 132.549 18.0027C132.855 18.1372 133.2 18.2044 133.585 18.2044C134.062 18.2044 134.505 18.1128 134.915 17.9294C135.331 17.7399 135.688 17.4556 135.988 17.0766L137.271 18.4704C137.064 18.7699 136.779 19.0572 136.419 19.3323C136.064 19.6074 135.636 19.8335 135.135 20.0108C134.634 20.182 134.062 20.2676 133.42 20.2676Z" fill="white"/>
<path d="M122.839 18.1586L125.04 10.1629H127.8L124.453 20.0842H122.784L122.839 18.1586ZM121.326 10.1629L123.536 18.1678L123.582 20.0842H121.904L118.557 10.1629H121.326Z" fill="white"/>
<path d="M117.282 10.1629V20.0842H114.632V10.1629H117.282ZM114.467 7.57712C114.467 7.19201 114.602 6.87413 114.871 6.6235C115.14 6.37287 115.5 6.24756 115.953 6.24756C116.399 6.24756 116.757 6.37287 117.026 6.6235C117.301 6.87413 117.438 7.19201 117.438 7.57712C117.438 7.96224 117.301 8.28011 117.026 8.53074C116.757 8.78137 116.399 8.90669 115.953 8.90669C115.5 8.90669 115.14 8.78137 114.871 8.53074C114.602 8.28011 114.467 7.96224 114.467 7.57712Z" fill="white"/>
<path d="M112.991 10.163V12.0335H107.214V10.163H112.991ZM108.645 7.71472H111.285V17.095C111.285 17.3823 111.322 17.6024 111.395 17.7552C111.475 17.908 111.591 18.015 111.744 18.0761C111.897 18.1312 112.089 18.1587 112.322 18.1587C112.487 18.1587 112.633 18.1526 112.762 18.1403C112.896 18.122 113.009 18.1037 113.101 18.0853L113.11 20.0292C112.884 20.1026 112.639 20.1607 112.377 20.2035C112.114 20.2462 111.823 20.2676 111.506 20.2676C110.925 20.2676 110.417 20.1729 109.983 19.9834C109.555 19.7878 109.225 19.476 108.993 19.0481C108.761 18.6202 108.645 18.0578 108.645 17.3609V7.71472Z" fill="white"/>
<path d="M103.436 17.8468V13.4272C103.436 13.1093 103.384 12.8373 103.281 12.6111C103.177 12.3788 103.015 12.1985 102.795 12.0701C102.581 11.9417 102.302 11.8776 101.96 11.8776C101.667 11.8776 101.413 11.9295 101.199 12.0334C100.985 12.1312 100.82 12.2749 100.704 12.4644C100.588 12.6478 100.53 12.8648 100.53 13.1154H97.8889C97.8889 12.6936 97.9867 12.2932 98.1823 11.9142C98.3779 11.5352 98.6622 11.2021 99.0351 10.9148C99.408 10.6214 99.8512 10.3921 100.365 10.2271C100.884 10.062 101.465 9.97949 102.107 9.97949C102.877 9.97949 103.562 10.1079 104.161 10.3646C104.76 10.6214 105.231 11.0065 105.573 11.52C105.921 12.0334 106.096 12.6753 106.096 13.4455V17.691C106.096 18.235 106.129 18.6813 106.196 19.0297C106.264 19.372 106.361 19.6715 106.49 19.9283V20.0842H103.822C103.693 19.8152 103.595 19.479 103.528 19.0755C103.467 18.666 103.436 18.2564 103.436 17.8468ZM103.785 14.0415L103.803 15.5361H102.327C101.978 15.5361 101.676 15.5759 101.419 15.6554C101.162 15.7348 100.951 15.8479 100.786 15.9946C100.621 16.1352 100.499 16.3003 100.42 16.4898C100.346 16.6793 100.31 16.8871 100.31 17.1133C100.31 17.3395 100.362 17.5442 100.466 17.7276C100.569 17.9049 100.719 18.0455 100.915 18.1494C101.11 18.2472 101.34 18.2961 101.603 18.2961C102 18.2961 102.345 18.2167 102.639 18.0577C102.932 17.8988 103.158 17.7032 103.317 17.4709C103.482 17.2386 103.568 17.0185 103.574 16.8107L104.271 17.9294C104.173 18.18 104.039 18.4398 103.867 18.7088C103.702 18.9777 103.491 19.2314 103.235 19.4698C102.978 19.7021 102.669 19.8947 102.309 20.0475C101.948 20.1942 101.52 20.2676 101.025 20.2676C100.395 20.2676 99.8236 20.1422 99.3102 19.8916C98.8028 19.6349 98.3993 19.2834 98.0998 18.8371C97.8064 18.3848 97.6597 17.8713 97.6597 17.2967C97.6597 16.7771 97.7575 16.3155 97.9531 15.9121C98.1487 15.5086 98.436 15.1694 98.815 14.8943C99.2001 14.6131 99.68 14.4022 100.255 14.2616C100.829 14.1149 101.496 14.0415 102.254 14.0415H103.785Z" fill="white"/>
<path d="M94.157 12.3269V20.0842H91.5162V10.1629H94.0011L94.157 12.3269ZM97.1463 10.0987L97.1004 12.5469C96.972 12.5286 96.8162 12.5133 96.6328 12.5011C96.4555 12.4827 96.2935 12.4736 96.1468 12.4736C95.7739 12.4736 95.4499 12.5225 95.1748 12.6203C94.9059 12.712 94.6797 12.8495 94.4963 13.0329C94.319 13.2163 94.1845 13.4394 94.0928 13.7023C94.0073 13.9651 93.9584 14.2647 93.9461 14.6009L93.4143 14.4358C93.4143 13.794 93.4785 13.2041 93.6069 12.6661C93.7352 12.1221 93.9217 11.6483 94.1662 11.2449C94.4168 10.8414 94.7225 10.5297 95.0831 10.3096C95.4438 10.0895 95.8564 9.97949 96.321 9.97949C96.4677 9.97949 96.6175 9.99172 96.7703 10.0162C96.9231 10.0345 97.0484 10.062 97.1463 10.0987Z" fill="white"/>
<path d="M85.9412 20.2676C85.171 20.2676 84.4802 20.1453 83.8689 19.9008C83.2576 19.6502 82.738 19.3048 82.3101 18.8646C81.8883 18.4245 81.5643 17.9141 81.3382 17.3334C81.112 16.7465 80.9989 16.123 80.9989 15.4628V15.096C80.9989 14.3441 81.1059 13.6564 81.3198 13.0329C81.5338 12.4094 81.8394 11.8684 82.2368 11.4099C82.6402 10.9514 83.1293 10.6 83.7039 10.3554C84.2785 10.1048 84.9265 9.97949 85.6478 9.97949C86.3508 9.97949 86.9743 10.0956 87.5184 10.3279C88.0624 10.5602 88.5178 10.8903 88.8846 11.3182C89.2575 11.7461 89.5387 12.2596 89.7282 12.8587C89.9177 13.4516 90.0124 14.1118 90.0124 14.8393V15.9396H82.1267V14.1791H87.4175V13.9774C87.4175 13.6106 87.3502 13.2835 87.2158 12.9962C87.0874 12.7028 86.8918 12.4705 86.6289 12.2994C86.3661 12.1282 86.0299 12.0426 85.6203 12.0426C85.2718 12.0426 84.9723 12.119 84.7217 12.2718C84.4711 12.4247 84.2663 12.6386 84.1073 12.9137C83.9545 13.1888 83.8384 13.5128 83.7589 13.8857C83.6855 14.2524 83.6489 14.6559 83.6489 15.096V15.4628C83.6489 15.8601 83.7039 16.2269 83.8139 16.5631C83.9301 16.8993 84.092 17.1897 84.2999 17.4342C84.5138 17.6787 84.7706 17.8682 85.0701 18.0027C85.3758 18.1372 85.7211 18.2044 86.1063 18.2044C86.5831 18.2044 87.0263 18.1128 87.4358 17.9294C87.8515 17.7399 88.2091 17.4556 88.5086 17.0766L89.7924 18.4704C89.5845 18.7699 89.3003 19.0572 88.9396 19.3323C88.5851 19.6074 88.1572 19.8335 87.6559 20.0108C87.1546 20.182 86.5831 20.2676 85.9412 20.2676Z" fill="white"/>
<path d="M73.4341 12.281V20.0842H70.7933V10.1629H73.2691L73.4341 12.281ZM73.049 14.7751H72.3338C72.3338 14.0415 72.4285 13.3813 72.618 12.7945C72.8075 12.2015 73.0735 11.6972 73.4158 11.2815C73.7581 10.8598 74.1646 10.5388 74.6353 10.3188C75.1121 10.0926 75.644 9.97949 76.2308 9.97949C76.6954 9.97949 77.1202 10.0467 77.5053 10.1812C77.8905 10.3157 78.2206 10.5297 78.4956 10.8231C78.7768 11.1165 78.9908 11.5047 79.1375 11.9876C79.2903 12.4705 79.3667 13.0604 79.3667 13.7573V20.0842H76.7076V13.7481C76.7076 13.308 76.6465 12.9657 76.5242 12.7211C76.402 12.4766 76.2216 12.3055 75.9832 12.2077C75.7509 12.1037 75.4636 12.0518 75.1213 12.0518C74.7667 12.0518 74.458 12.1221 74.1952 12.2627C73.9384 12.4033 73.7245 12.5989 73.5533 12.8495C73.3883 13.094 73.263 13.3813 73.1774 13.7114C73.0918 14.0415 73.049 14.3961 73.049 14.7751Z" fill="white"/>
<path d="M65.2734 20.2676C64.5031 20.2676 63.8124 20.1453 63.2011 19.9008C62.5898 19.6502 62.0702 19.3048 61.6423 18.8646C61.2205 18.4245 60.8965 17.9141 60.6703 17.3334C60.4441 16.7465 60.3311 16.123 60.3311 15.4628V15.096C60.3311 14.3441 60.438 13.6564 60.652 13.0329C60.8659 12.4094 61.1716 11.8684 61.5689 11.4099C61.9724 10.9514 62.4614 10.6 63.036 10.3554C63.6106 10.1048 64.2586 9.97949 64.9799 9.97949C65.6829 9.97949 66.3065 10.0956 66.8505 10.3279C67.3946 10.5602 67.85 10.8903 68.2167 11.3182C68.5896 11.7461 68.8708 12.2596 69.0603 12.8587C69.2498 13.4516 69.3446 14.1118 69.3446 14.8393V15.9396H61.4589V14.1791H66.7496V13.9774C66.7496 13.6106 66.6824 13.2835 66.5479 12.9962C66.4195 12.7028 66.2239 12.4705 65.9611 12.2994C65.6982 12.1282 65.362 12.0426 64.9524 12.0426C64.604 12.0426 64.3045 12.119 64.0538 12.2718C63.8032 12.4247 63.5984 12.6386 63.4395 12.9137C63.2867 13.1888 63.1705 13.5128 63.091 13.8857C63.0177 14.2524 62.981 14.6559 62.981 15.096V15.4628C62.981 15.8601 63.036 16.2269 63.1461 16.5631C63.2622 16.8993 63.4242 17.1897 63.632 17.4342C63.846 17.6787 64.1027 17.8682 64.4023 18.0027C64.7079 18.1372 65.0533 18.2044 65.4384 18.2044C65.9152 18.2044 66.3584 18.1128 66.768 17.9294C67.1837 17.7399 67.5413 17.4556 67.8408 17.0766L69.1245 18.4704C68.9167 18.7699 68.6324 19.0572 68.2718 19.3323C67.9172 19.6074 67.4893 19.8335 66.988 20.0108C66.4868 20.182 65.9152 20.2676 65.2734 20.2676Z" fill="white"/>
<path d="M58.6532 13.1062V18.3969C58.4453 18.6476 58.1244 18.9196 57.6904 19.213C57.2564 19.5003 56.697 19.7479 56.0124 19.9557C55.3277 20.1636 54.4994 20.2675 53.5275 20.2675C52.6655 20.2675 51.88 20.1269 51.1709 19.8457C50.4618 19.5584 49.8505 19.1397 49.337 18.5895C48.8297 18.0393 48.4384 17.3669 48.1634 16.5722C47.8883 15.7714 47.7507 14.8575 47.7507 13.8306V12.9962C47.7507 11.9692 47.8822 11.0553 48.145 10.2545C48.414 9.45371 48.796 8.77823 49.2912 8.22806C49.7863 7.6779 50.3762 7.25916 51.0609 6.97186C51.7455 6.68455 52.5066 6.54089 53.3441 6.54089C54.5055 6.54089 55.4591 6.73039 56.2049 7.1094C56.9507 7.48229 57.5192 8.00189 57.9104 8.6682C58.3078 9.32839 58.5523 10.0864 58.644 10.9422H55.9757C55.9085 10.4899 55.7801 10.0956 55.5906 9.75935C55.4011 9.42314 55.1291 9.16029 54.7745 8.97079C54.4261 8.78128 53.9737 8.68653 53.4174 8.68653C52.959 8.68653 52.5494 8.78128 52.1887 8.97079C51.8342 9.15417 51.5346 9.4262 51.2901 9.78686C51.0456 10.1475 50.8592 10.5938 50.7308 11.1256C50.6024 11.6574 50.5382 12.2748 50.5382 12.9778V13.8306C50.5382 14.5274 50.6055 15.1449 50.74 15.6828C50.8744 16.2146 51.0731 16.6639 51.336 17.0307C51.6049 17.3914 51.935 17.6634 52.3263 17.8468C52.7175 18.0302 53.1729 18.1219 53.6925 18.1219C54.1265 18.1219 54.4872 18.0852 54.7745 18.0118C55.0679 17.9385 55.3033 17.8498 55.4805 17.7459C55.6639 17.6359 55.8045 17.532 55.9023 17.4341V15.0684H53.3899V13.1062H58.6532Z" fill="white"/>
</svg>
