<svg width="17" height="24" viewBox="0 0 17 24" fill="none" xmlns="http://www.w3.org/2000/svg">
<path d="M0 4.48485L2.4647 3.0303V12.6061L8.13351 15.7576L13.9256 12.6061V6.06061L16.3902 7.51515V22.303L13.9256 23.7576V15.5152L8.13351 18.7879L2.4647 15.5152V24L0 22.303V4.48485Z" fill="white"/>
<path d="M13.9256 3.27273V5.33333L16.267 6.66667V4.60606L13.9256 3.27273Z" fill="white"/>
<path d="M12.57 5.93939H7.64057V8.48485H10.1053V10.4242L8.13351 11.5152L6.16175 10.4242V4.12121L8.13351 3.0303L10.1053 4.12121V4.84848H12.57V2.66667L8.13351 0L3.57381 2.66667V11.8788L8.13351 14.303L12.57 11.8788V5.93939Z" fill="white"/>
</svg>
