<svg width="38" height="38" viewBox="0 0 38 38" fill="none" xmlns="http://www.w3.org/2000/svg">
<path fill-rule="evenodd" clip-rule="evenodd" d="M24.78 2.69841C22.4351 0.787594 19.7034 0.0238665 16.9553 0C13.8277 0.00745828 11.1615 0.754778 8.83591 2.54029C5.22333 5.31328 4.61479 9.73604 7.4611 13.0818C8.06221 13.7889 8.12172 14.3825 7.80778 15.1448C7.7613 15.2576 7.71909 15.3722 7.67692 15.4867C7.6165 15.6507 7.55616 15.8145 7.48342 15.9727C7.20221 16.5827 7.30488 17.1451 7.72446 17.6329C8.1619 18.143 8.71985 18.325 9.39237 18.1326C9.85348 18.0002 10.317 17.8765 10.7804 17.7527L10.7806 17.7527L10.7807 17.7527L10.7808 17.7526L10.7809 17.7526L10.781 17.7526L10.7812 17.7525C11.4614 17.5709 12.1414 17.3894 12.813 17.1809C13.7772 16.8826 14.7264 16.8796 15.7278 16.9512C19.0443 17.1884 22.1182 16.4261 24.7547 14.3154C28.7497 11.1173 28.7497 5.93232 24.78 2.69841ZM11.3266 7.20171C12.0408 7.20171 12.6508 7.80434 12.6627 8.51736H12.6612C12.6732 9.23037 12.081 9.85239 11.3683 9.87327C10.6273 9.89565 9.98901 9.26617 9.99645 8.52034C10.0054 7.80584 10.6139 7.20171 11.3266 7.20171ZM18.0057 8.59045C17.9774 9.30495 17.3511 9.89266 16.6384 9.87327V9.87178C15.9271 9.85239 15.3335 9.23335 15.3409 8.51885C15.3499 7.80434 15.9584 7.20022 16.6711 7.20022C17.4135 7.20022 18.0355 7.84909 18.0057 8.59045ZM20.6839 8.52183C20.6913 7.80733 21.2999 7.20171 22.0126 7.20171C22.7253 7.20171 23.3368 7.80285 23.3487 8.51586C23.3621 9.2602 22.7253 9.89266 21.9828 9.87327C21.2701 9.85537 20.6765 9.23633 20.6839 8.52183ZM16.8269 37.9979H16.8271H16.8272H16.8274H16.8275H16.8277H16.8279C17.47 37.9974 18.1121 37.997 18.7541 37.997C19.3672 37.997 19.9802 37.9973 20.5931 37.9976H20.5934H20.5936H20.5939H20.5941H20.5944H20.5946C22.2296 37.9985 23.8641 37.9994 25.4986 37.994C26.4285 37.991 26.9434 37.5316 27.0535 36.647C27.6546 31.8036 23.798 27.3555 18.9341 27.2869C13.8664 27.2153 9.95621 31.4933 10.4457 36.5769C10.5365 37.5122 11.0498 37.991 12.008 37.994C13.6139 38.0004 15.2206 37.9991 16.8269 37.9979ZM32.3057 37.9969C31.9282 37.9969 31.5506 37.9963 31.173 37.9956C30.2665 37.9941 29.3601 37.9925 28.4536 37.9999C27.9373 38.0044 27.7275 37.8 27.8257 37.2749C28.2587 34.9584 27.8019 32.8104 26.5938 30.8071C26.1593 30.0867 26.192 29.9479 26.9211 29.5541C31.7269 26.9512 37.6681 30.5685 37.5922 36.0503C37.5713 37.5405 37.1131 37.9969 35.6401 37.9969H32.3072H32.3057ZM4.09165 37.9981H4.09181H4.09198H4.09214H4.0923C4.46443 37.9975 4.83649 37.9969 5.20842 37.9969C5.58661 37.9969 5.96467 37.9963 6.34264 37.9957H6.34291H6.34318H6.34345H6.34372C7.25017 37.9941 8.1561 37.9926 9.06203 37.9999C9.58874 38.0044 9.77324 37.7807 9.67802 37.2631C9.24653 34.9197 9.69438 32.7389 10.9725 30.7415C11.3281 30.1866 11.2567 29.8659 10.6734 29.5765C8.14847 28.3251 5.65032 28.3564 3.28608 29.8928C0.921836 31.4307 -0.158366 33.695 0.0186917 36.5277C0.0826706 37.5524 0.563256 37.9895 1.57799 37.9955C2.41505 38.0006 3.25282 37.9993 4.09032 37.9981H4.09165ZM18.7534 18.5085C20.9536 18.5089 22.7595 20.3181 22.7595 22.524C22.7595 24.7287 20.9518 26.5396 18.7527 26.541C16.558 26.541 14.7458 24.7257 14.7473 22.524C14.7473 20.3196 16.5547 18.5089 18.7534 18.5085ZM30.3596 14.0753C31.349 13.0341 31.7998 11.7364 31.8356 10.2119L31.84 10.2104C31.782 8.19819 30.7598 6.63493 29.138 5.42072C28.9849 5.30613 28.7758 5.26522 28.5669 5.22436C28.4713 5.20565 28.3757 5.18694 28.2855 5.16118C28.2808 5.25322 28.2677 5.34808 28.2546 5.44295C28.2261 5.64942 28.1976 5.85596 28.2557 6.0338C28.9818 8.26233 28.7274 10.376 27.5698 12.3912C26.6324 14.0216 25.2606 15.203 23.6582 16.1502C23.5152 16.2352 23.4247 16.4088 23.3345 16.5821C23.2932 16.6613 23.252 16.7404 23.2058 16.811C23.2824 16.84 23.3586 16.8739 23.4348 16.9078C23.6059 16.984 23.7772 17.0604 23.9543 17.081C24.1948 17.1088 24.4392 17.1136 24.6831 17.1183C25.0275 17.125 25.3709 17.1317 25.701 17.2033C26.3502 17.3454 26.9895 17.5313 27.6293 17.7174L27.6293 17.7174L27.6293 17.7174C27.9837 17.8204 28.3382 17.9235 28.6946 18.0193C29.2585 18.1714 29.7734 18.0894 30.1751 17.615C30.5485 17.1735 30.5962 16.6887 30.37 16.1621C30.2629 15.913 30.1647 15.658 30.0828 15.3999C29.9266 14.9091 29.943 14.5139 30.3596 14.0753ZM3.61486 24.4751C3.60742 22.5076 5.23367 20.8802 7.19619 20.8892C9.12746 20.8981 10.7284 22.5061 10.7359 24.4423C10.7433 26.4098 9.11704 28.0387 7.15453 28.0282C5.22623 28.0193 3.6223 26.4083 3.61486 24.4751ZM30.2807 28.0282C32.2477 28.0506 33.8858 26.4351 33.8903 24.4691L33.8888 24.4676C33.8933 22.53 32.3027 20.9085 30.3759 20.8877C28.4119 20.8668 26.7723 22.4822 26.7678 24.4468C26.7634 26.3829 28.3554 28.0058 30.2807 28.0282Z" fill="#2C8EEE"/>
</svg>
