<svg width="16" height="17" viewBox="0 0 16 17" fill="curremtColor" xmlns="http://www.w3.org/2000/svg">
<path d="M6.02632 12.5476C6.02632 13.4349 6.24026 14.2711 6.61842 15.0045V15.5833C6.61838 15.7372 6.56139 15.8852 6.45897 15.9976C6.35655 16.11 6.21634 16.1784 6.06667 16.1889C5.917 16.1994 5.76903 16.1512 5.65266 16.0541C5.53628 15.9571 5.46019 15.8183 5.43974 15.6659L5.43421 15.5833V13.7473C4.12488 13.6476 2.89753 13.0558 1.98754 12.0853C1.07754 11.1149 0.548958 9.83413 0.503158 8.48867L0.5 8.29762V7.89286C0.500046 7.73903 0.557035 7.59095 0.659452 7.47855C0.761869 7.36615 0.902078 7.2978 1.05175 7.28731C1.20142 7.27683 1.34939 7.32499 1.46576 7.42206C1.58214 7.51914 1.65824 7.65789 1.67868 7.81029L1.68421 7.89286V8.29762C1.68412 9.39458 2.09767 10.4491 2.83837 11.2406C3.57907 12.0321 4.58954 12.4992 5.65842 12.5444L5.82895 12.5476H6.02632ZM6.16447 11.3301C6.35251 10.5222 6.72406 9.7712 7.24882 9.13843C7.77359 8.50566 8.43673 8.00898 9.18421 7.68886V3.2381C9.18421 2.3793 8.85151 1.55568 8.25928 0.948416C7.66706 0.341156 6.86384 0 6.02632 0C5.18879 0 4.38557 0.341156 3.79335 0.948416C3.20113 1.55568 2.86842 2.3793 2.86842 3.2381V8.09524C2.86844 8.53239 2.95478 8.965 3.12224 9.36702C3.2897 9.76903 3.5348 10.1321 3.84279 10.4344C4.15077 10.7366 4.51526 10.9718 4.91427 11.1258C5.31328 11.2797 5.73856 11.3492 6.16447 11.3301ZM13.1316 12.5476C13.1316 13.0844 12.9236 13.5991 12.5535 13.9787C12.1834 14.3582 11.6813 14.5714 11.1579 14.5714C10.6344 14.5714 10.1324 14.3582 9.76229 13.9787C9.39215 13.5991 9.18421 13.0844 9.18421 12.5476C9.18421 12.0109 9.39215 11.4961 9.76229 11.1166C10.1324 10.737 10.6344 10.5238 11.1579 10.5238C11.6813 10.5238 12.1834 10.737 12.5535 11.1166C12.9236 11.4961 13.1316 12.0109 13.1316 12.5476ZM15.5 12.5476C15.5 13.7285 15.0425 14.8609 14.2282 15.6959C13.4139 16.5309 12.3095 17 11.1579 17C10.0063 17 8.90187 16.5309 8.08756 15.6959C7.27326 14.8609 6.81579 13.7285 6.81579 12.5476C6.81579 11.3668 7.27326 10.2343 8.08756 9.39931C8.90187 8.56433 10.0063 8.09524 11.1579 8.09524C12.3095 8.09524 13.4139 8.56433 14.2282 9.39931C15.0425 10.2343 15.5 11.3668 15.5 12.5476ZM8 12.5476C8 13.4064 8.33271 14.23 8.92493 14.8373C9.51715 15.4446 10.3204 15.7857 11.1579 15.7857C11.9954 15.7857 12.7986 15.4446 13.3909 14.8373C13.9831 14.23 14.3158 13.4064 14.3158 12.5476C14.3158 11.6888 13.9831 10.8652 13.3909 10.2579C12.7986 9.65068 11.9954 9.30952 11.1579 9.30952C10.3204 9.30952 9.51715 9.65068 8.92493 10.2579C8.33271 10.8652 8 11.6888 8 12.5476Z" />
</svg>
