<svg width="12" height="17" viewBox="0 0 12 17" fill="none" xmlns="http://www.w3.org/2000/svg">
<path d="M5.99908 10.7368C7.43798 10.7368 8.5995 9.53789 8.5995 8.05263V2.68421C8.5995 1.19895 7.43798 0 5.99908 0C4.56018 0 3.39865 1.19895 3.39865 2.68421V8.05263C3.39865 9.53789 4.56018 10.7368 5.99908 10.7368ZM11.1219 8.05263C10.6972 8.05263 10.3418 8.37474 10.2724 8.81316C9.91705 10.9158 8.14009 12.5263 5.99908 12.5263C3.85806 12.5263 2.08111 10.9158 1.72571 8.81316C1.69515 8.6027 1.59277 8.41043 1.43702 8.27099C1.28127 8.13156 1.0824 8.05412 0.876243 8.05263C0.34749 8.05263 -0.0685776 8.53579 0.00943516 9.07263C0.434171 11.7568 2.51451 13.8595 5.13227 14.2442V16.1053C5.13227 16.5974 5.52233 17 5.99908 17C6.47582 17 6.86589 16.5974 6.86589 16.1053V14.2442C8.14142 14.0561 9.3257 13.4534 10.2469 12.5234C11.168 11.5935 11.7782 10.3848 11.9887 9.07263C12.0754 8.53579 11.6507 8.05263 11.1219 8.05263Z" fill="#fff"/>
</svg>
