<svg width="64" height="71" viewBox="0 0 64 71" fill="none" xmlns="http://www.w3.org/2000/svg">
<path d="M23.8597 52.4485C23.8597 56.1453 24.7511 59.6296 26.3268 62.6856V65.0973C26.3266 65.7383 26.0891 66.3552 25.6624 66.8236C25.2356 67.2919 24.6514 67.5767 24.0278 67.6204C23.4042 67.6641 22.7876 67.4634 22.3028 67.0589C21.8179 66.6545 21.5008 66.0763 21.4156 65.4413L21.3926 65.0973V57.4473C15.937 57.0319 10.8231 54.5659 7.03141 50.5224C3.23976 46.4788 1.03733 41.1423 0.846502 35.5362L0.833344 34.7402V33.0537C0.833535 32.4127 1.07099 31.7957 1.49773 31.3274C1.92446 30.859 2.50867 30.5742 3.13229 30.5306C3.75592 30.4869 4.37246 30.6875 4.85735 31.092C5.34224 31.4965 5.65933 32.0746 5.74453 32.7096L5.76755 33.0537V34.7402C5.76718 39.3108 7.49032 43.7046 10.5766 47.0025C13.6628 50.3004 17.8731 52.247 22.3268 52.435L23.0373 52.4485H23.8597ZM24.4353 47.3755C25.2188 44.0091 26.7669 40.8801 28.9534 38.2436C31.14 35.607 33.9031 33.5375 37.0176 32.2037V13.6588C37.0176 10.0805 35.6313 6.64873 33.1637 4.11848C30.6961 1.58823 27.3493 0.166748 23.8597 0.166748C20.37 0.166748 17.0232 1.58823 14.5556 4.11848C12.088 6.64873 10.7018 10.0805 10.7018 13.6588V33.8969C10.7018 35.7184 11.0616 37.5209 11.7593 39.196C12.4571 40.871 13.4784 42.3839 14.7616 43.6433C16.0449 44.9028 17.5636 45.8827 19.2261 46.5242C20.8887 47.1656 22.6607 47.4552 24.4353 47.3755ZM53.4649 52.4485C53.4649 54.6849 52.5985 56.8298 51.0563 58.4112C49.514 59.9926 47.4223 60.881 45.2412 60.881C43.0602 60.881 40.9685 59.9926 39.4262 58.4112C37.884 56.8298 37.0176 54.6849 37.0176 52.4485C37.0176 50.212 37.884 48.0672 39.4262 46.4858C40.9685 44.9044 43.0602 44.016 45.2412 44.016C47.4223 44.016 49.514 44.9044 51.0563 46.4858C52.5985 48.0672 53.4649 50.212 53.4649 52.4485ZM63.3333 52.4485C63.3333 57.3687 61.4272 62.0874 58.0343 65.5665C54.6414 69.0455 50.0396 71.0001 45.2412 71.0001C40.4429 71.0001 35.8411 69.0455 32.4482 65.5665C29.0553 62.0874 27.1491 57.3687 27.1491 52.4485C27.1491 47.5283 29.0553 42.8096 32.4482 39.3305C35.8411 35.8514 40.4429 33.8969 45.2412 33.8969C50.0396 33.8969 54.6414 35.8514 58.0343 39.3305C61.4272 42.8096 63.3333 47.5283 63.3333 52.4485ZM32.0833 52.4485C32.0833 56.0268 33.4696 59.4586 35.9372 61.9888C38.4048 64.5191 41.7515 65.9406 45.2412 65.9406C48.7309 65.9406 52.0777 64.5191 54.5453 61.9888C57.0129 59.4586 58.3991 56.0268 58.3991 52.4485C58.3991 48.8702 57.0129 45.4384 54.5453 42.9082C52.0777 40.3779 48.7309 38.9564 45.2412 38.9564C41.7515 38.9564 38.4048 40.3779 35.9372 42.9082C33.4696 45.4384 32.0833 48.8702 32.0833 52.4485Z" fill="#2C8EEE"/>
</svg>
