<svg width="44" height="44" viewBox="0 0 44 44" fill="none" xmlns="http://www.w3.org/2000/svg">
<g clip-path="url(#clip0_114_1406)">
<path fill-rule="evenodd" clip-rule="evenodd" d="M39.4922 21.2693L39.512 21.2901L39.5152 21.288C39.9855 21.7811 39.8942 22.185 39.2274 22.373C37.1506 22.9574 35.1211 22.7125 33.1464 21.9454C32.5912 21.7306 32.1681 21.7231 31.614 22.0153C29.2011 23.2872 27.3241 22.6502 25.2301 21.1956C25.1238 21.1215 25.068 20.8894 25.0841 20.7412C25.1188 20.4244 25.1778 20.1099 25.2389 19.7841C25.2629 19.6557 25.2873 19.5256 25.3107 19.3929C25.4891 19.5195 25.6624 19.6465 25.8333 19.7718C26.192 20.0347 26.5406 20.2903 26.9064 20.5188C28.3614 21.4266 29.8272 21.4158 31.3015 20.5349C33.0379 19.4971 34.2223 17.9921 35.0126 16.1604C35.221 15.677 35.5066 15.3236 35.9769 15.07C36.1799 14.9605 36.3871 14.6865 36.4194 14.462C36.4881 13.9753 36.4677 13.4704 36.4365 12.9763C36.4258 12.7979 36.3055 12.6078 36.1896 12.4585C36.072 12.3081 35.9435 12.1659 35.8152 12.0239C35.6528 11.8442 35.4906 11.6647 35.3509 11.469C34.669 10.514 33.6833 10.0779 32.588 9.91886C32.4733 9.90224 32.3587 9.88588 32.244 9.86952C30.677 9.64598 29.1159 9.42328 27.7472 8.53841C27.3917 8.30917 27.0614 8.04125 26.716 7.76109C26.5564 7.63162 26.3935 7.49952 26.2234 7.36744C25.8175 8.94126 25.2624 10.4453 23.9158 11.4884C23.7911 11.3381 23.6705 11.188 23.5513 11.0395C23.2732 10.6932 23.0022 10.3557 22.7024 10.0467C22.4339 9.77061 22.101 9.52245 21.7499 9.3699C21.301 9.17438 21.2463 8.85854 21.3408 8.47503C21.6565 7.19019 21.9775 5.90535 22.9719 4.9256C23.0696 4.82999 23.0997 4.60654 23.075 4.45614C23.0086 4.05147 22.9192 3.65084 22.8299 3.25052C22.8066 3.14605 22.7833 3.04161 22.7604 2.93711C22.551 1.98852 22.9504 1.12372 23.8825 0.84656C24.9885 0.518905 26.1236 0.217032 27.2661 0.0999354C29.4975 -0.128887 31.7139 0.02581 33.8927 0.661784C35.2349 1.05282 35.7933 2.07124 35.381 3.2551C35.265 3.5892 35.2102 3.94908 35.1716 4.30252C35.1544 4.45722 35.2038 4.66133 35.3004 4.7795C36.4322 6.16532 36.8435 7.81219 37.0475 9.53427C37.0768 9.78006 37.0958 10.0273 37.1149 10.2745C37.1329 10.508 37.1509 10.7416 37.1775 10.9738C37.1968 11.1446 37.2376 11.3337 37.331 11.4723C38.247 12.842 38.1772 14.2493 37.5243 15.6877C37.5206 15.6957 37.5169 15.7037 37.5131 15.7118C37.5082 15.7221 37.5032 15.7325 37.4982 15.743C37.4451 15.8542 37.3876 15.9744 37.3987 16.082C37.5426 17.4689 37.6886 18.8655 38.4789 20.0697C38.7637 20.5044 39.1313 20.8903 39.4922 21.2693ZM33.5447 5.38301C33.7527 4.42543 33.9548 3.49473 34.1235 2.55789V2.55896C34.1493 2.41823 33.8873 2.11851 33.7058 2.06157C30.6411 1.10546 27.5689 1.11406 24.4957 2.04546C24.1263 2.15718 24.0264 2.38493 24.1026 2.73622C24.1538 2.9723 24.2034 3.20861 24.253 3.44494C24.3095 3.71398 24.3659 3.98327 24.4248 4.25203C24.5241 4.70599 24.6261 5.15945 24.7316 5.62901C24.7789 5.83949 24.8269 6.05322 24.8758 6.27168C27.7117 5.47026 30.508 5.45307 33.3536 6.26738C33.4173 5.96944 33.4813 5.67497 33.5447 5.38301ZM29.655 39.7506C29.6634 39.8983 29.6717 40.0459 29.6802 40.1934C29.7243 40.9613 29.1303 41.4336 28.5266 41.6986C27.4344 42.1796 26.3184 42.6595 25.1638 42.9278C20.6193 43.9825 16.006 44.1658 11.3626 43.8778C8.68844 43.712 6.03689 43.4012 3.4639 42.6311C2.55135 42.3585 1.68077 41.9047 0.834945 41.4499C0.225864 41.1216 -0.0173385 40.5206 0.000955444 39.7997C0.0483045 37.9858 0.0999581 36.1796 0.716572 34.4411C1.19867 33.0777 2.06387 32.1048 3.41117 31.6107C4.03367 31.3816 4.67028 31.1901 5.30584 30.9989L5.50529 30.9388C6.91823 30.5134 8.26768 29.9517 9.49445 28.9843L12.9994 33.3165C13.0959 33.4357 13.1922 33.5551 13.2884 33.6745C13.4978 33.9342 13.7071 34.1938 13.9194 34.4509C14.5145 35.1718 15.2205 35.1827 15.8112 34.4563C16.7931 33.2502 17.7694 32.0396 18.7457 30.8289L18.7469 30.8274C19.128 30.3549 19.5094 29.8819 19.8908 29.4096C19.9737 29.3058 20.061 29.2056 20.1191 29.139L20.1512 29.1021C20.4615 29.2555 20.7661 29.4113 21.068 29.5658C21.7538 29.9166 22.4258 30.2604 23.1192 30.5527C23.8907 30.8777 24.7075 31.1046 25.5189 31.3173C27.5581 31.8506 28.8678 33.1453 29.2272 35.2285C29.4831 36.7162 29.5693 38.2373 29.655 39.7506ZM23.7495 38.5131C23.888 38.5149 24.0263 38.5167 24.1641 38.5083V38.5072C24.7215 38.4745 24.8947 38.2225 24.8808 37.4776C24.87 36.8777 24.6838 36.6606 24.1404 36.6465C23.876 36.639 23.6111 36.6407 23.3302 36.6426C23.2007 36.6434 23.0676 36.6443 22.9298 36.6443V35.9768C22.9294 35.9113 22.9303 35.8458 22.9311 35.7804C22.9331 35.6279 22.935 35.4756 22.9222 35.3245C22.877 34.801 22.6381 34.6505 21.9074 34.6657C21.3328 34.6777 21.1143 34.8555 21.095 35.3638C21.0845 35.6382 21.087 35.9131 21.0895 36.1907C21.0906 36.3137 21.0917 36.4372 21.0917 36.5614C21.0481 36.5786 21.0166 36.5927 20.9926 36.6035C20.9557 36.6201 20.9359 36.629 20.9163 36.629C20.7656 36.6324 20.6147 36.6341 20.4638 36.6357C20.2753 36.6378 20.0866 36.6399 19.8983 36.6454C19.3129 36.6628 19.1655 36.8384 19.1612 37.5147C19.1558 38.2781 19.3054 38.4876 19.8951 38.5072C20.1574 38.5154 20.4201 38.5134 20.696 38.5113C20.824 38.5104 20.9557 38.5094 21.0907 38.5094C21.0907 38.6603 21.0898 38.8017 21.0889 38.9366C21.0871 39.2211 21.0855 39.4772 21.0928 39.7331C21.109 40.2916 21.3328 40.4759 21.972 40.4803C22.6704 40.4857 22.8996 40.3178 22.9244 39.7506C22.9361 39.4839 22.9334 39.2163 22.9304 38.9293C22.929 38.7949 22.9276 38.6563 22.9276 38.5116H23.5743C23.6327 38.5116 23.6911 38.5123 23.7495 38.5131ZM18.9152 9.9964C17.5598 8.92435 15.9889 8.54294 14.2995 8.53001L14.3006 8.53109C12.7803 8.51385 11.3538 8.87479 10.0264 9.60637C7.49118 11.0049 6.42344 13.372 6.8932 16.4772C6.92229 16.6679 6.91582 16.9416 6.80377 17.0633C5.8567 18.088 5.95798 19.3238 6.17994 20.5176C6.24854 20.8882 6.52436 21.2236 6.79658 21.5547C6.89629 21.676 6.99552 21.7966 7.0839 21.9182C7.17339 22.0407 7.28178 22.1525 7.38974 22.2639C7.54957 22.4288 7.70846 22.5927 7.80363 22.7888C8.71622 24.6689 9.98005 26.2323 11.7664 27.3453C13.7112 28.5585 15.6905 28.6684 17.7074 27.5177C19.4378 26.5297 20.7146 25.1107 21.6541 23.3739C21.7213 23.2495 21.7829 23.1214 21.8443 22.9936C22.0891 22.4842 22.3323 21.9781 22.9265 21.7275C23.0731 21.665 23.1937 21.4808 23.2702 21.3256C23.9059 20.0403 23.9533 18.7226 23.2551 17.4717C23.016 17.0439 22.9158 16.6894 22.9901 16.2326C23.1646 15.1541 23.0677 14.0874 22.7746 13.0423C22.3081 11.3788 21.0615 10.3358 19.357 10.144C19.2051 10.1268 19.0305 10.0869 18.9152 9.9964ZM22.3133 19.8809C22.4263 19.1501 22.172 18.2191 21.6661 17.8337C20.7244 17.115 19.9681 16.2477 19.4886 15.1562C19.3983 14.9513 19.3255 14.7384 19.2504 14.5188C19.2153 14.4164 19.1797 14.3122 19.1417 14.207C16.1249 15.8361 12.9927 16.1485 9.65593 15.3943C9.25835 16.4836 8.65607 17.3898 7.78658 18.1256C7.60018 18.284 7.53984 18.631 7.49244 18.9035L7.48967 18.9202C7.46891 19.0522 7.47461 19.19 7.48031 19.3274C7.48715 19.4925 7.49398 19.6572 7.45473 19.8108C7.44613 19.8443 7.43932 19.8768 7.43421 19.9083C7.35975 20.3638 7.63768 20.6149 7.98356 20.7772C8.49427 21.0175 8.77225 21.3989 8.9845 21.901C9.69022 23.571 10.7763 24.948 12.2761 25.9802C13.4666 26.799 14.7402 27.2311 16.1678 26.6546C18.2138 25.8293 19.5929 24.3005 20.5583 22.3675C20.6071 22.2699 20.6538 22.171 20.7003 22.0724C20.974 21.4923 21.2431 20.9216 21.9245 20.6684C21.9948 20.6426 22.0513 20.5552 22.0976 20.4834L22.1034 20.4745C22.2023 20.3213 22.2688 20.1336 22.3054 19.9285C22.3082 19.9127 22.3108 19.8969 22.3133 19.8809ZM43.9299 33.3393C43.9521 33.677 43.9742 34.0146 43.9988 34.3516H43.9966C44.0429 34.9707 43.6103 35.3616 43.1455 35.6872C42.1006 36.4177 40.8922 36.7636 39.6752 37.0475C37.041 37.6623 34.3595 37.9568 31.6575 38.0628C31.5882 38.0657 31.5184 38.0581 31.4424 38.0499C31.404 38.0458 31.3641 38.0414 31.3218 38.0382C31.282 37.7516 31.2465 37.4653 31.211 37.1798C31.1324 36.5466 31.0543 35.9171 30.9312 35.2963C30.4233 32.7354 29.0621 30.876 26.4709 30.0556C26.2108 29.9732 25.9494 29.8932 25.6879 29.8133C24.804 29.5429 23.9191 29.2722 23.0771 28.9053C22.4471 28.631 21.8618 28.2562 21.3054 27.8999C21.0665 27.7468 20.8328 27.5972 20.6032 27.4604C20.8337 27.1383 21.059 26.8224 21.2808 26.5113C21.9436 25.5821 22.5752 24.6964 23.2202 23.8209C23.3059 23.7048 23.4437 23.6275 23.5958 23.5422C23.6709 23.5001 23.7495 23.456 23.8271 23.4043C24.063 23.6925 24.2977 23.9794 24.5316 24.2654C25.1375 25.0062 25.7383 25.7406 26.3407 26.4739C26.49 26.656 26.6389 26.8383 26.7878 27.0206C27.2925 27.6388 27.7973 28.257 28.3175 28.8624C28.8479 29.4793 29.5506 29.4451 30.1015 28.781C31.0437 27.6461 31.9797 26.506 32.9156 25.3662C33.3372 24.8527 33.7588 24.3392 34.1809 23.8263C34.2545 23.7366 34.331 23.6498 34.4163 23.5529C34.4594 23.504 34.5048 23.4525 34.5532 23.3968C36.106 24.6343 37.9457 25.1531 39.7799 25.6704C39.8523 25.6908 39.9246 25.7113 39.9969 25.7317C41.9887 26.294 43.2154 27.5889 43.5544 29.5822C43.7648 30.8201 43.8474 32.0807 43.9299 33.3393ZM38.3675 32.2924C38.506 32.2942 38.6443 32.296 38.7821 32.2877V32.2866C39.3395 32.2545 39.5127 32.0071 39.4987 31.2755C39.488 30.6864 39.3018 30.4733 38.7584 30.4594C38.494 30.452 38.2291 30.4537 37.9482 30.4555C37.8187 30.4564 37.6857 30.4572 37.5478 30.4572V29.8017C37.5475 29.7374 37.5484 29.6731 37.5492 29.6089C37.5512 29.4591 37.5531 29.3097 37.5403 29.1612C37.4951 28.6471 37.2562 28.4993 36.5256 28.5143C35.951 28.5261 35.7325 28.7007 35.7132 29.1998C35.7027 29.4693 35.7052 29.7393 35.7077 30.0119C35.7088 30.1326 35.7099 30.2539 35.7099 30.3758C35.6661 30.3928 35.6346 30.4067 35.6105 30.4173C35.5736 30.4336 35.5541 30.4422 35.5345 30.4422C35.3839 30.4456 35.233 30.4472 35.0821 30.4488C34.8935 30.4509 34.7049 30.4529 34.5166 30.4583C33.9312 30.4754 33.7838 30.6479 33.7795 31.3119C33.7741 32.0617 33.9237 32.2673 34.5134 32.2866C34.7757 32.2946 35.0386 32.2927 35.3146 32.2907C35.4428 32.2897 35.5738 32.2887 35.7089 32.2887C35.7089 32.4369 35.708 32.5758 35.7071 32.7083C35.7053 32.9877 35.7037 33.2391 35.711 33.4905C35.7272 34.0389 35.951 34.2199 36.5902 34.2242C37.2885 34.2295 37.5177 34.0646 37.5425 33.5076C37.5542 33.2458 37.5514 32.9829 37.5485 32.7011C37.5471 32.5691 37.5457 32.433 37.5457 32.2909H38.1924C38.2508 32.2909 38.3091 32.2916 38.3675 32.2924Z" fill="white"/>
</g>
<defs>
<clipPath id="clip0_114_1406">
<rect width="44" height="44" fill="white"/>
</clipPath>
</defs>
</svg>
