<svg width="14" height="16" viewBox="0 0 14 16" fill="none" xmlns="http://www.w3.org/2000/svg">
<path fill-rule="evenodd" clip-rule="evenodd" d="M2.18182 0C1.60316 0 1.04821 0.229869 0.63904 0.63904C0.229869 1.04821 0 1.60316 0 2.18182V13.8182C0 14.3968 0.229869 14.9518 0.63904 15.361C1.04821 15.7701 1.60316 16 2.18182 16H10.9091C11.4877 16 12.0427 15.7701 12.4519 15.361C12.861 14.9518 13.0909 14.3968 13.0909 13.8182V5.33955C13.0909 5.04889 13.0328 4.76116 12.92 4.49327C12.8072 4.22543 12.642 3.9827 12.4342 3.77955L9.20518 0.621818C8.79758 0.223263 8.25008 7.0962e-05 7.68 0H2.18182ZM1.66756 1.66756C1.80395 1.53117 1.98893 1.45455 2.18182 1.45455H7.27279V3.63639C7.27279 4.21504 7.50266 4.76999 7.91183 5.17916C8.321 5.58833 8.87595 5.8182 9.45461 5.8182H11.6364V13.8182C11.6364 14.0111 11.5597 14.1961 11.4234 14.3324C11.287 14.4688 11.102 14.5455 10.9091 14.5455H2.18182C1.98893 14.5455 1.80395 14.4688 1.66756 14.3324C1.53117 14.1961 1.45455 14.0111 1.45455 13.8182V2.18182C1.45455 1.98893 1.53117 1.80395 1.66756 1.66756ZM10.9511 4.36366L8.72733 2.18898V3.63639C8.72733 3.82927 8.80396 4.01426 8.94035 4.15065C9.07674 4.28704 9.26172 4.36366 9.45461 4.36366H10.9511Z" fill="#333333"/>
<path fill-rule="evenodd" clip-rule="evenodd" d="M2.18182 0C1.60316 0 1.04821 0.229869 0.63904 0.63904C0.229869 1.04821 0 1.60316 0 2.18182V13.8182C0 14.3968 0.229869 14.9518 0.63904 15.361C1.04821 15.7701 1.60316 16 2.18182 16H10.9091C11.4877 16 12.0427 15.7701 12.4519 15.361C12.861 14.9518 13.0909 14.3968 13.0909 13.8182V5.33955C13.0909 5.04889 13.0328 4.76116 12.92 4.49327C12.8072 4.22543 12.642 3.9827 12.4342 3.77955L9.20518 0.621818C8.79758 0.223263 8.25008 7.0962e-05 7.68 0H2.18182ZM1.66756 1.66756C1.80395 1.53117 1.98893 1.45455 2.18182 1.45455H7.27279V3.63639C7.27279 4.21504 7.50266 4.76999 7.91183 5.17916C8.321 5.58833 8.87595 5.8182 9.45461 5.8182H11.6364V13.8182C11.6364 14.0111 11.5597 14.1961 11.4234 14.3324C11.287 14.4688 11.102 14.5455 10.9091 14.5455H2.18182C1.98893 14.5455 1.80395 14.4688 1.66756 14.3324C1.53117 14.1961 1.45455 14.0111 1.45455 13.8182V2.18182C1.45455 1.98893 1.53117 1.80395 1.66756 1.66756ZM10.9511 4.36366L8.72733 2.18898V3.63639C8.72733 3.82927 8.80396 4.01426 8.94035 4.15065C9.07674 4.28704 9.26172 4.36366 9.45461 4.36366H10.9511Z" fill="black" fill-opacity="0.2"/>
<path fill-rule="evenodd" clip-rule="evenodd" d="M2.18182 0C1.60316 0 1.04821 0.229869 0.63904 0.63904C0.229869 1.04821 0 1.60316 0 2.18182V13.8182C0 14.3968 0.229869 14.9518 0.63904 15.361C1.04821 15.7701 1.60316 16 2.18182 16H10.9091C11.4877 16 12.0427 15.7701 12.4519 15.361C12.861 14.9518 13.0909 14.3968 13.0909 13.8182V5.33955C13.0909 5.04889 13.0328 4.76116 12.92 4.49327C12.8072 4.22543 12.642 3.9827 12.4342 3.77955L9.20518 0.621818C8.79758 0.223263 8.25008 7.0962e-05 7.68 0H2.18182ZM1.66756 1.66756C1.80395 1.53117 1.98893 1.45455 2.18182 1.45455H7.27279V3.63639C7.27279 4.21504 7.50266 4.76999 7.91183 5.17916C8.321 5.58833 8.87595 5.8182 9.45461 5.8182H11.6364V13.8182C11.6364 14.0111 11.5597 14.1961 11.4234 14.3324C11.287 14.4688 11.102 14.5455 10.9091 14.5455H2.18182C1.98893 14.5455 1.80395 14.4688 1.66756 14.3324C1.53117 14.1961 1.45455 14.0111 1.45455 13.8182V2.18182C1.45455 1.98893 1.53117 1.80395 1.66756 1.66756ZM10.9511 4.36366L8.72733 2.18898V3.63639C8.72733 3.82927 8.80396 4.01426 8.94035 4.15065C9.07674 4.28704 9.26172 4.36366 9.45461 4.36366H10.9511Z" fill="black" fill-opacity="0.2"/>
<path fill-rule="evenodd" clip-rule="evenodd" d="M2.18182 0C1.60316 0 1.04821 0.229869 0.63904 0.63904C0.229869 1.04821 0 1.60316 0 2.18182V13.8182C0 14.3968 0.229869 14.9518 0.63904 15.361C1.04821 15.7701 1.60316 16 2.18182 16H10.9091C11.4877 16 12.0427 15.7701 12.4519 15.361C12.861 14.9518 13.0909 14.3968 13.0909 13.8182V5.33955C13.0909 5.04889 13.0328 4.76116 12.92 4.49327C12.8072 4.22543 12.642 3.9827 12.4342 3.77955L9.20518 0.621818C8.79758 0.223263 8.25008 7.0962e-05 7.68 0H2.18182ZM1.66756 1.66756C1.80395 1.53117 1.98893 1.45455 2.18182 1.45455H7.27279V3.63639C7.27279 4.21504 7.50266 4.76999 7.91183 5.17916C8.321 5.58833 8.87595 5.8182 9.45461 5.8182H11.6364V13.8182C11.6364 14.0111 11.5597 14.1961 11.4234 14.3324C11.287 14.4688 11.102 14.5455 10.9091 14.5455H2.18182C1.98893 14.5455 1.80395 14.4688 1.66756 14.3324C1.53117 14.1961 1.45455 14.0111 1.45455 13.8182V2.18182C1.45455 1.98893 1.53117 1.80395 1.66756 1.66756ZM10.9511 4.36366L8.72733 2.18898V3.63639C8.72733 3.82927 8.80396 4.01426 8.94035 4.15065C9.07674 4.28704 9.26172 4.36366 9.45461 4.36366H10.9511Z" fill="black" fill-opacity="0.2"/>
</svg>
