<svg width="17" height="16" viewBox="0 0 17 16" fill="none" xmlns="http://www.w3.org/2000/svg">
<path d="M15.7 7.20116C15.4878 7.20116 15.2843 7.28545 15.1343 7.43548C14.9843 7.58551 14.9 7.78899 14.9 8.00116C14.9095 9.49958 14.3962 10.9544 13.4485 12.1151C12.5008 13.2758 11.178 14.0697 9.70796 14.36C8.23791 14.6504 6.71262 14.419 5.3948 13.7058C4.07698 12.9925 3.04912 11.8421 2.48826 10.4526C1.92739 9.06303 1.86863 7.52141 2.3221 6.09322C2.77556 4.66503 3.71286 3.43967 4.97256 2.62819C6.23226 1.81671 7.73551 1.4699 9.2234 1.6475C10.7113 1.8251 12.0907 2.51598 13.124 3.60117H11.204C10.9918 3.60117 10.7883 3.68545 10.6383 3.83548C10.4883 3.98551 10.404 4.18899 10.404 4.40117C10.404 4.61334 10.4883 4.81682 10.6383 4.96685C10.7883 5.11688 10.9918 5.20116 11.204 5.20116H14.828C15.0402 5.20116 15.2436 5.11688 15.3937 4.96685C15.5437 4.81682 15.628 4.61334 15.628 4.40117V0.801171C15.628 0.588998 15.5437 0.385515 15.3937 0.235486C15.2436 0.085457 15.0402 0.00117164 14.828 0.00117164C14.6158 0.00117164 14.4123 0.085457 14.2623 0.235486C14.1123 0.385515 14.028 0.588998 14.028 0.801171V2.21717C12.6957 0.943617 10.9646 0.169133 9.12721 0.0246349C7.28982 -0.119864 5.4589 0.374487 3.94393 1.42412C2.42897 2.47376 1.32289 4.01429 0.812665 5.78532C0.302441 7.55634 0.419371 9.44922 1.14369 11.144C1.86801 12.8387 3.15528 14.2314 4.78791 15.0866C6.42055 15.9418 8.29839 16.2071 10.104 15.8375C11.9097 15.468 13.5323 14.4863 14.6977 13.0585C15.8631 11.6307 16.4997 9.84422 16.5 8.00116C16.5 7.78899 16.4157 7.58551 16.2657 7.43548C16.1156 7.28545 15.9122 7.20116 15.7 7.20116Z" fill="#333333"/>
<path d="M15.7 7.20116C15.4878 7.20116 15.2843 7.28545 15.1343 7.43548C14.9843 7.58551 14.9 7.78899 14.9 8.00116C14.9095 9.49958 14.3962 10.9544 13.4485 12.1151C12.5008 13.2758 11.178 14.0697 9.70796 14.36C8.23791 14.6504 6.71262 14.419 5.3948 13.7058C4.07698 12.9925 3.04912 11.8421 2.48826 10.4526C1.92739 9.06303 1.86863 7.52141 2.3221 6.09322C2.77556 4.66503 3.71286 3.43967 4.97256 2.62819C6.23226 1.81671 7.73551 1.4699 9.2234 1.6475C10.7113 1.8251 12.0907 2.51598 13.124 3.60117H11.204C10.9918 3.60117 10.7883 3.68545 10.6383 3.83548C10.4883 3.98551 10.404 4.18899 10.404 4.40117C10.404 4.61334 10.4883 4.81682 10.6383 4.96685C10.7883 5.11688 10.9918 5.20116 11.204 5.20116H14.828C15.0402 5.20116 15.2436 5.11688 15.3937 4.96685C15.5437 4.81682 15.628 4.61334 15.628 4.40117V0.801171C15.628 0.588998 15.5437 0.385515 15.3937 0.235486C15.2436 0.085457 15.0402 0.00117164 14.828 0.00117164C14.6158 0.00117164 14.4123 0.085457 14.2623 0.235486C14.1123 0.385515 14.028 0.588998 14.028 0.801171V2.21717C12.6957 0.943617 10.9646 0.169133 9.12721 0.0246349C7.28982 -0.119864 5.4589 0.374487 3.94393 1.42412C2.42897 2.47376 1.32289 4.01429 0.812665 5.78532C0.302441 7.55634 0.419371 9.44922 1.14369 11.144C1.86801 12.8387 3.15528 14.2314 4.78791 15.0866C6.42055 15.9418 8.29839 16.2071 10.104 15.8375C11.9097 15.468 13.5323 14.4863 14.6977 13.0585C15.8631 11.6307 16.4997 9.84422 16.5 8.00116C16.5 7.78899 16.4157 7.58551 16.2657 7.43548C16.1156 7.28545 15.9122 7.20116 15.7 7.20116Z" fill="black" fill-opacity="0.2"/>
<path d="M15.7 7.20116C15.4878 7.20116 15.2843 7.28545 15.1343 7.43548C14.9843 7.58551 14.9 7.78899 14.9 8.00116C14.9095 9.49958 14.3962 10.9544 13.4485 12.1151C12.5008 13.2758 11.178 14.0697 9.70796 14.36C8.23791 14.6504 6.71262 14.419 5.3948 13.7058C4.07698 12.9925 3.04912 11.8421 2.48826 10.4526C1.92739 9.06303 1.86863 7.52141 2.3221 6.09322C2.77556 4.66503 3.71286 3.43967 4.97256 2.62819C6.23226 1.81671 7.73551 1.4699 9.2234 1.6475C10.7113 1.8251 12.0907 2.51598 13.124 3.60117H11.204C10.9918 3.60117 10.7883 3.68545 10.6383 3.83548C10.4883 3.98551 10.404 4.18899 10.404 4.40117C10.404 4.61334 10.4883 4.81682 10.6383 4.96685C10.7883 5.11688 10.9918 5.20116 11.204 5.20116H14.828C15.0402 5.20116 15.2436 5.11688 15.3937 4.96685C15.5437 4.81682 15.628 4.61334 15.628 4.40117V0.801171C15.628 0.588998 15.5437 0.385515 15.3937 0.235486C15.2436 0.085457 15.0402 0.00117164 14.828 0.00117164C14.6158 0.00117164 14.4123 0.085457 14.2623 0.235486C14.1123 0.385515 14.028 0.588998 14.028 0.801171V2.21717C12.6957 0.943617 10.9646 0.169133 9.12721 0.0246349C7.28982 -0.119864 5.4589 0.374487 3.94393 1.42412C2.42897 2.47376 1.32289 4.01429 0.812665 5.78532C0.302441 7.55634 0.419371 9.44922 1.14369 11.144C1.86801 12.8387 3.15528 14.2314 4.78791 15.0866C6.42055 15.9418 8.29839 16.2071 10.104 15.8375C11.9097 15.468 13.5323 14.4863 14.6977 13.0585C15.8631 11.6307 16.4997 9.84422 16.5 8.00116C16.5 7.78899 16.4157 7.58551 16.2657 7.43548C16.1156 7.28545 15.9122 7.20116 15.7 7.20116Z" fill="black" fill-opacity="0.2"/>
<path d="M15.7 7.20116C15.4878 7.20116 15.2843 7.28545 15.1343 7.43548C14.9843 7.58551 14.9 7.78899 14.9 8.00116C14.9095 9.49958 14.3962 10.9544 13.4485 12.1151C12.5008 13.2758 11.178 14.0697 9.70796 14.36C8.23791 14.6504 6.71262 14.419 5.3948 13.7058C4.07698 12.9925 3.04912 11.8421 2.48826 10.4526C1.92739 9.06303 1.86863 7.52141 2.3221 6.09322C2.77556 4.66503 3.71286 3.43967 4.97256 2.62819C6.23226 1.81671 7.73551 1.4699 9.2234 1.6475C10.7113 1.8251 12.0907 2.51598 13.124 3.60117H11.204C10.9918 3.60117 10.7883 3.68545 10.6383 3.83548C10.4883 3.98551 10.404 4.18899 10.404 4.40117C10.404 4.61334 10.4883 4.81682 10.6383 4.96685C10.7883 5.11688 10.9918 5.20116 11.204 5.20116H14.828C15.0402 5.20116 15.2436 5.11688 15.3937 4.96685C15.5437 4.81682 15.628 4.61334 15.628 4.40117V0.801171C15.628 0.588998 15.5437 0.385515 15.3937 0.235486C15.2436 0.085457 15.0402 0.00117164 14.828 0.00117164C14.6158 0.00117164 14.4123 0.085457 14.2623 0.235486C14.1123 0.385515 14.028 0.588998 14.028 0.801171V2.21717C12.6957 0.943617 10.9646 0.169133 9.12721 0.0246349C7.28982 -0.119864 5.4589 0.374487 3.94393 1.42412C2.42897 2.47376 1.32289 4.01429 0.812665 5.78532C0.302441 7.55634 0.419371 9.44922 1.14369 11.144C1.86801 12.8387 3.15528 14.2314 4.78791 15.0866C6.42055 15.9418 8.29839 16.2071 10.104 15.8375C11.9097 15.468 13.5323 14.4863 14.6977 13.0585C15.8631 11.6307 16.4997 9.84422 16.5 8.00116C16.5 7.78899 16.4157 7.58551 16.2657 7.43548C16.1156 7.28545 15.9122 7.20116 15.7 7.20116Z" fill="black" fill-opacity="0.2"/>
</svg>
