<svg width="17" height="16" viewBox="0 0 17 16" fill="currentColor" xmlns="http://www.w3.org/2000/svg">
<path d="M15.7873 14.6511L12.8188 11.7067C13.9711 10.2699 14.5291 8.44635 14.3781 6.61085C14.2272 4.77535 13.3787 3.06745 12.0071 1.83834C10.6356 0.609226 8.84523 -0.0476794 7.00421 0.00269722C5.1632 0.0530739 3.41146 0.806903 2.10918 2.10918C0.806903 3.41146 0.0530739 5.1632 0.00269722 7.00421C-0.0476794 8.84523 0.609226 10.6356 1.83834 12.0071C3.06745 13.3787 4.77535 14.2272 6.61085 14.3781C8.44635 14.5291 10.2699 13.9711 11.7067 12.8188L14.6511 15.7633C14.7255 15.8383 14.814 15.8978 14.9115 15.9385C15.009 15.9791 15.1136 16 15.2192 16C15.3249 16 15.4294 15.9791 15.5269 15.9385C15.6244 15.8978 15.7129 15.8383 15.7873 15.7633C15.9315 15.6141 16.0122 15.4147 16.0122 15.2072C16.0122 14.9997 15.9315 14.8003 15.7873 14.6511ZM7.21791 12.8188C6.11015 12.8188 5.02727 12.4903 4.1062 11.8749C3.18514 11.2595 2.46725 10.3847 2.04333 9.36129C1.61941 8.33786 1.50849 7.2117 1.72461 6.12523C1.94072 5.03875 2.47416 4.04076 3.25746 3.25746C4.04076 2.47416 5.03875 1.94072 6.12523 1.72461C7.2117 1.50849 8.33786 1.61941 9.36129 2.04333C10.3847 2.46725 11.2595 3.18514 11.8749 4.1062C12.4903 5.02727 12.8188 6.11015 12.8188 7.21791C12.8188 8.70337 12.2287 10.128 11.1784 11.1784C10.128 12.2287 8.70337 12.8188 7.21791 12.8188Z"/>

</svg>
