<svg width="16" height="15" viewBox="0 0 16 15" fill="none" xmlns="http://www.w3.org/2000/svg">
<path d="M0.5 11.6667V13.3333H5.5V11.6667H0.5ZM0.5 1.66667V3.33333H8.83333V1.66667H0.5ZM8.83333 15V13.3333H15.5V11.6667H8.83333V10H7.16667V15H8.83333ZM3.83333 5V6.66667H0.5V8.33333H3.83333V10H5.5V5H3.83333ZM15.5 8.33333V6.66667H7.16667V8.33333H15.5ZM10.5 5H12.1667V3.33333H15.5V1.66667H12.1667V0H10.5V5Z" fill="#333333"/>
<path d="M0.5 11.6667V13.3333H5.5V11.6667H0.5ZM0.5 1.66667V3.33333H8.83333V1.66667H0.5ZM8.83333 15V13.3333H15.5V11.6667H8.83333V10H7.16667V15H8.83333ZM3.83333 5V6.66667H0.5V8.33333H3.83333V10H5.5V5H3.83333ZM15.5 8.33333V6.66667H7.16667V8.33333H15.5ZM10.5 5H12.1667V3.33333H15.5V1.66667H12.1667V0H10.5V5Z" fill="black" fill-opacity="0.2"/>
<path d="M0.5 11.6667V13.3333H5.5V11.6667H0.5ZM0.5 1.66667V3.33333H8.83333V1.66667H0.5ZM8.83333 15V13.3333H15.5V11.6667H8.83333V10H7.16667V15H8.83333ZM3.83333 5V6.66667H0.5V8.33333H3.83333V10H5.5V5H3.83333ZM15.5 8.33333V6.66667H7.16667V8.33333H15.5ZM10.5 5H12.1667V3.33333H15.5V1.66667H12.1667V0H10.5V5Z" fill="black" fill-opacity="0.2"/>
<path d="M0.5 11.6667V13.3333H5.5V11.6667H0.5ZM0.5 1.66667V3.33333H8.83333V1.66667H0.5ZM8.83333 15V13.3333H15.5V11.6667H8.83333V10H7.16667V15H8.83333ZM3.83333 5V6.66667H0.5V8.33333H3.83333V10H5.5V5H3.83333ZM15.5 8.33333V6.66667H7.16667V8.33333H15.5ZM10.5 5H12.1667V3.33333H15.5V1.66667H12.1667V0H10.5V5Z" fill="black" fill-opacity="0.2"/>
</svg>
