<svg width="16" height="15" viewBox="0 0 16 15" fill="currentColor" xmlns="http://www.w3.org/2000/svg">
<path d="M1.14286 9.8737C0.850794 9.8737 0.587302 9.76081 0.352381 9.53501C0.11746 9.30921 0 9.05595 0 8.77522V7.27397C0 7.13971 0.015873 6.98409 0.047619 6.80711C0.0793651 6.63013 0.126984 6.47452 0.190476 6.34026L2.4 1.43371C2.51429 1.1774 2.70159 0.9577 2.9619 0.77462C3.22222 0.59154 3.49841 0.5 3.79048 0.5H11.5429C11.8603 0.5 12.1302 0.606797 12.3524 0.82039C12.5746 1.03398 12.6857 1.29335 12.6857 1.59848V9.43431C12.6857 9.56857 12.6571 9.70283 12.6 9.83709C12.5429 9.97135 12.4635 10.0873 12.3619 10.1849L8.41905 14.1761C8.24127 14.347 8.02857 14.4507 7.78095 14.4873C7.53333 14.5239 7.30159 14.4812 7.08571 14.3592C6.86984 14.2371 6.70794 14.0662 6.6 13.8465C6.49206 13.6268 6.46349 13.401 6.51429 13.1691L7.2381 9.8737H1.14286ZM14.9143 0.5C15.2063 0.5 15.4603 0.603745 15.6762 0.811236C15.8921 1.01873 16 1.26283 16 1.54356V8.83015C16 9.11087 15.8921 9.35498 15.6762 9.56247C15.4603 9.76996 15.2063 9.8737 14.9143 9.8737C14.6222 9.8737 14.3683 9.76996 14.1524 9.56247C13.9365 9.35498 13.8286 9.11087 13.8286 8.83015V1.54356C13.8286 1.26283 13.9365 1.01873 14.1524 0.811236C14.3683 0.603745 14.6222 0.5 14.9143 0.5Z"/>
</svg>
