<svg width="16" height="15" viewBox="0 0 16 15" fill="currentColor" xmlns="http://www.w3.org/2000/svg">
<path d="M14.8571 5.12629C15.1492 5.1263 15.4127 5.23919 15.6476 5.46499C15.8825 5.69079 16 5.94405 16 6.22478L16 7.72603C16 7.86029 15.9841 8.01591 15.9524 8.19289C15.9206 8.36987 15.873 8.52548 15.8095 8.65974L13.6 13.5663C13.4857 13.8226 13.2984 14.0423 13.0381 14.2254C12.7778 14.4085 12.5016 14.5 12.2095 14.5L4.45714 14.5C4.13968 14.5 3.86984 14.3932 3.64762 14.1796C3.4254 13.966 3.31429 13.7067 3.31429 13.4015L3.31429 5.56569C3.31429 5.43143 3.34286 5.29717 3.4 5.16291C3.45714 5.02865 3.53651 4.9127 3.6381 4.81506L7.58095 0.82391C7.75873 0.653035 7.97143 0.54929 8.21905 0.512674C8.46667 0.476058 8.69841 0.518777 8.91429 0.64083C9.13016 0.762884 9.29206 0.933758 9.4 1.15346C9.50794 1.37315 9.53651 1.59895 9.48572 1.83085L8.76191 5.12629L14.8571 5.12629ZM1.08571 14.5C0.793651 14.5 0.539682 14.3963 0.323809 14.1888C0.107936 13.9813 6.66891e-08 13.7372 9.12307e-08 13.4564L7.28245e-07 6.16985C7.52786e-07 5.88913 0.107937 5.64502 0.323809 5.43753C0.539683 5.23004 0.793651 5.12629 1.08571 5.12629C1.37778 5.12629 1.63175 5.23004 1.84762 5.43753C2.06349 5.64502 2.17143 5.88913 2.17143 6.16985L2.17143 13.4564C2.17143 13.7372 2.06349 13.9813 1.84762 14.1888C1.63175 14.3963 1.37778 14.5 1.08571 14.5Z"/>
</svg>
