<svg width="54" height="29" viewBox="0 0 54 29" fill="none" xmlns="http://www.w3.org/2000/svg">
<path d="M53.9514 26.6244C53.7458 25.1832 53.4267 23.7499 53.3523 22.3029C53.1545 18.3925 50.979 16.0976 47.4701 14.8072C46.0094 14.2707 44.5251 13.7518 42.9802 13.6128C40.1272 13.3543 38.5646 11.6919 37.7403 9.13853C36.8728 6.45005 36.6535 3.68325 36.912 0.88512C36.9786 0.207616 36.8454 -0.00385943 36.1288 5.67732e-05C30.0449 0.0274702 23.9631 0.0274702 17.8792 5.67732e-05C17.1626 -0.00385943 17.0392 0.193909 17.1058 0.879245C17.3642 3.51485 17.1528 6.13088 16.4263 8.67641C15.6392 11.4354 14.0785 13.3015 10.9358 13.6402C8.45487 13.9085 6.0836 14.7465 3.95906 16.1368C2.34167 17.1961 1.23142 18.5766 0.978825 20.5758C0.73602 22.4987 0.418807 24.4137 0.0898456 26.3248C-0.17254 27.858 0.0820132 28.2007 1.63087 28.2007C10.1212 28.2007 18.6116 28.2007 27.1019 28.2007C35.5922 28.2007 44.0826 28.2007 52.5729 28.2007C53.8496 28.2007 54.1296 27.8737 53.9514 26.6224V26.6244ZM28.3355 22.5417C27.8832 22.5672 27.4269 22.5457 26.9727 22.5457C26.9727 22.5457 26.9727 22.5437 26.9727 22.5417C26.5184 22.5417 26.0621 22.5731 25.6118 22.5339C24.9754 22.481 24.5642 22.0738 24.5544 21.4687C24.5446 20.8402 24.9167 20.3115 25.5844 20.2606C26.5184 20.1881 27.4681 20.192 28.404 20.2566C29.0718 20.3036 29.4692 20.8186 29.4634 21.4413C29.4575 22.0855 29.0189 22.5026 28.3355 22.5398V22.5417ZM25.7919 17.3077C26.2129 17.2784 26.6378 17.3019 27.0608 17.3038C27.4504 17.3038 27.844 17.2764 28.2317 17.3117C28.7408 17.3567 29.0972 17.6426 29.1187 18.1713C29.1403 18.6862 28.7252 18.9702 28.314 19.0035C27.4426 19.0739 26.5575 19.0739 25.6862 18.9995C25.2711 18.9643 24.8599 18.6627 24.8912 18.1576C24.9225 17.6426 25.275 17.343 25.7939 17.3077H25.7919ZM25.1595 15.7138C25.1418 15.2889 25.4728 15.0285 25.8233 15.003C26.5987 14.9423 27.3819 14.9443 28.1573 15.0011C28.5039 15.0265 28.8779 15.2674 28.8622 15.6786C28.8466 16.1407 28.4765 16.3169 28.0457 16.3326C27.7207 16.3443 27.3956 16.3346 27.0706 16.3326C26.6809 16.3326 26.2893 16.3541 25.9016 16.3267C25.5256 16.2993 25.1771 16.1564 25.1595 15.7138ZM33.2308 10.2135C32.5709 10.9909 32.3653 12.0091 32.2811 13.0175C32.24 13.5168 32.1225 13.979 31.8425 14.3862C31.302 15.1695 30.3034 15.2302 29.6846 14.5057C29.436 14.2139 29.2558 13.8615 29.058 13.5286C28.0437 11.8172 25.976 11.8035 24.9754 13.5051C24.8599 13.7009 24.758 13.9026 24.6406 14.0964C24.2822 14.6937 23.8123 15.0912 23.0545 14.9678C22.3378 14.8523 21.9423 14.3334 21.8777 13.7127C21.6936 11.9602 21.022 10.4407 20.0586 8.98188C19.6004 8.28871 19.9685 7.3919 19.945 6.72614C19.945 6.03689 19.9059 5.48275 19.9548 4.93644C20.039 4.00634 20.7929 3.33275 21.6956 3.28967C22.7118 3.23876 23.0721 3.89864 23.2111 4.723C23.3071 5.2889 23.497 5.72555 23.9278 6.14067C24.5231 6.71635 24.5955 7.58771 24.8912 8.33179C25.0244 8.66662 25.1732 9.04845 25.5609 9.10328C25.9877 9.16398 26.1091 8.78019 26.2873 8.45711C26.7455 7.62687 27.286 7.65037 27.754 8.52172C27.9165 8.82523 28.0555 9.14048 28.4256 9.10524C28.7761 9.07195 29.0111 8.76257 29.0639 8.44144C29.3322 6.82405 30.7498 5.73338 31.0044 4.09249C31.1023 3.46198 31.7367 3.22897 32.3927 3.29555C33.2268 3.3817 33.9494 3.85165 33.9748 4.62901C34.0336 6.51271 34.6935 8.49627 33.2308 10.2194V10.2135Z" fill="#2C8EEE"/>
</svg>
