<svg width="14" height="18" viewBox="0 0 14 14" fill="currentColor" xmlns="http://www.w3.org/2000/svg">
<path d="M13.7382 3.2C13.9442 3.20023 14.1423 3.2783 14.2921 3.41828C14.4419 3.55825 14.532 3.74956 14.5441 3.95312C14.5561 4.15667 14.4892 4.3571 14.357 4.51347C14.2248 4.66983 14.0373 4.77032 13.8327 4.7944L13.7382 4.8H13.6727L12.93 13.6C12.93 14.2122 12.6937 14.8012 12.2695 15.2466C11.8452 15.692 11.2651 15.9601 10.6477 15.996L10.5054 16H4.04001C2.74853 16 1.69305 15.0008 1.62193 13.8L1.61789 13.6664L0.871939 4.8H0.807285C0.601296 4.79977 0.403169 4.7217 0.253384 4.58172C0.103599 4.44175 0.013462 4.25044 0.0013901 4.04688C-0.0106818 3.84333 0.0562225 3.6429 0.188433 3.48653C0.320643 3.33017 0.508181 3.22968 0.712728 3.2056L0.807285 3.2H13.7382ZM8.88909 0C9.31777 0 9.7289 0.168571 10.032 0.468629C10.3352 0.768687 10.5054 1.17565 10.5054 1.6C10.5052 1.8039 10.4263 2.00003 10.2849 2.14829C10.1435 2.29656 9.95027 2.38579 9.74463 2.39774C9.539 2.40969 9.33651 2.34346 9.17855 2.21259C9.02059 2.08172 8.91908 1.89608 8.89475 1.6936L8.88909 1.6H5.65637L5.65071 1.6936C5.62638 1.89608 5.52486 2.08172 5.3669 2.21259C5.20894 2.34346 5.00646 2.40969 4.80082 2.39774C4.59519 2.38579 4.40192 2.29656 4.26052 2.14829C4.11911 2.00003 4.04024 1.8039 4.04001 1.6C4.03988 1.19634 4.19389 0.807547 4.47117 0.511562C4.74845 0.215576 5.1285 0.0342747 5.53514 0.00400009L5.65637 0H8.88909Z"/>

</svg>
