<svg width="15" height="17" viewBox="0 0 15 17" fill="none" xmlns="http://www.w3.org/2000/svg">
<path d="M5.5 12.5924H9.5C10.05 12.5924 10.5 12.1424 10.5 11.5924V6.59244H12.09C12.98 6.59244 13.43 5.51244 12.8 4.88244L8.21 0.292444C8.11749 0.19974 8.0076 0.126193 7.88662 0.0760114C7.76565 0.02583 7.63597 0 7.505 0C7.37403 0 7.24435 0.02583 7.12338 0.0760114C7.0024 0.126193 6.89251 0.19974 6.8 0.292444L2.21 4.88244C1.58 5.51244 2.02 6.59244 2.91 6.59244H4.5V11.5924C4.5 12.1424 4.95 12.5924 5.5 12.5924ZM1.5 14.5924H13.5C14.05 14.5924 14.5 15.0424 14.5 15.5924C14.5 16.1424 14.05 16.5924 13.5 16.5924H1.5C0.95 16.5924 0.5 16.1424 0.5 15.5924C0.5 15.0424 0.95 14.5924 1.5 14.5924Z" fill="#2c8eee"/>

</svg>
