<svg width="37" height="37" viewBox="0 0 37 37" fill="none" xmlns="http://www.w3.org/2000/svg">
<path fill-rule="evenodd" clip-rule="evenodd" d="M28.1 24.9666C28.3638 24.5066 28.6356 24.0326 28.9213 23.5408V23.5373C28.9351 23.7189 28.9487 23.8662 28.9603 23.9921C28.9799 24.2048 28.9938 24.3564 28.9938 24.5086C28.9974 27.9747 28.9991 31.4408 28.9938 34.9069C28.9921 36.5081 28.4896 37 26.876 37H2.11434C0.532565 36.9982 0 36.4657 0 34.8857V8.18487V7.20998C0.573633 7.20998 1.13156 7.21079 1.67919 7.21159C2.74467 7.21315 3.77114 7.21465 4.79839 7.20998C6.34124 7.2029 7.2029 6.35186 7.21175 4.81962C7.21784 3.73258 7.21638 2.64638 7.21488 1.53153C7.2142 1.02778 7.21351 0.518174 7.21351 0H8.16718H26.8477C28.5037 0 28.9903 0.488332 28.9938 2.15503C28.9948 2.54075 28.9964 2.92654 28.9979 3.31237C29.0044 4.95296 29.0109 6.59426 28.9779 8.23441C28.9673 8.70505 28.8311 9.22523 28.5975 9.63394C27.3877 11.7523 26.1693 13.8661 24.9508 15.98C23.3432 18.769 21.7355 21.5582 20.1472 24.3582C19.8058 24.9633 19.6642 25.7224 19.5793 26.4265C19.5008 27.0713 19.4813 27.7231 19.4618 28.3752C19.4505 28.7522 19.4392 29.1293 19.4165 29.5052C19.3705 30.2589 19.5262 30.9242 20.2092 31.3364C20.9328 31.7734 21.6034 31.5487 22.2616 31.1188C22.633 30.8757 23.0122 30.6438 23.3914 30.4119C23.9642 30.0617 24.5368 29.7115 25.0819 29.3229C25.5437 28.9938 25.9701 28.5533 26.2691 28.0738C26.8884 27.0794 27.4717 26.0622 28.1 24.9666ZM3.85889 10.6973H3.65364H3.65011C3.3104 10.6973 3.03438 10.9733 3.03438 11.313C3.03438 11.6527 3.3104 11.9287 3.65011 11.9287H4.27998H4.39145C7.20752 11.9346 10.0236 11.9344 12.8396 11.9342C13.403 11.9341 13.9663 11.9341 14.5296 11.9341C15.6367 11.9341 16.7437 11.9343 17.8507 11.9344C20.0647 11.9348 22.2787 11.9352 24.4927 11.9341C24.561 11.9341 24.6316 11.9379 24.7026 11.9418C24.8523 11.9499 25.0035 11.9581 25.1367 11.9305H25.3632C25.7029 11.9305 25.9789 11.6545 25.9789 11.3148C25.9789 10.9751 25.7029 10.6991 25.3632 10.6991H25.1544C25.0499 10.6703 24.9235 10.6789 24.7988 10.6875C24.7397 10.6915 24.6811 10.6955 24.6254 10.6955C22.3725 10.6955 20.1195 10.6953 17.8666 10.6951C13.3607 10.6947 8.85485 10.6944 4.34899 10.6955C4.29751 10.6955 4.24494 10.6939 4.1921 10.6923C4.07967 10.6888 3.966 10.6853 3.85889 10.6973ZM23.4063 14.8145H3.65364C3.31394 14.8145 3.03792 15.0905 3.03792 15.4302C3.03792 15.7699 3.31394 16.046 3.65364 16.046H23.4063C23.746 16.046 24.022 15.7699 24.022 15.4302C24.022 15.0905 23.746 14.8145 23.4063 14.8145ZM6.0493 19.0025H3.61649V19.0007C3.27678 19.0007 3.00077 19.2767 3.00077 19.6164C3.00077 19.9562 3.27678 20.2322 3.61649 20.2322H3.9385C4.005 20.2654 4.10496 20.2548 4.2047 20.2443C4.25358 20.2391 4.30241 20.2339 4.34722 20.2339H20.3029C20.3573 20.2339 20.4151 20.238 20.4734 20.2421C20.5918 20.2504 20.7124 20.2588 20.8107 20.2339H20.9204C21.2601 20.2339 21.5362 19.9579 21.5362 19.6182C21.5362 19.2785 21.2601 19.0025 20.9204 19.0025H20.7594C20.6438 18.9782 20.5121 18.9873 20.381 18.9964C20.3496 18.9986 20.3182 19.0008 20.287 19.0025H7.21705H6.0493ZM3.61649 28.5391H17.6277C17.9674 28.5391 18.2435 28.2631 18.2435 27.9234C18.2435 27.5837 17.9674 27.3077 17.6277 27.3077H3.61649C3.27678 27.3077 3.00077 27.5837 3.00077 27.9234C3.00077 28.2631 3.27678 28.5391 3.61649 28.5391ZM3.61649 24.3494H18.4858H18.4876C18.8273 24.3494 19.1033 24.0734 19.1033 23.7336C19.1033 23.3939 18.8273 23.1179 18.4876 23.1179H3.61649C3.27678 23.1179 3.00077 23.3939 3.00077 23.7336C3.00077 24.0734 3.27678 24.3494 3.61649 24.3494ZM5.03898 5.96964C5.66531 5.95549 5.97671 5.54855 5.98025 4.92752C5.98386 4.01316 5.98257 3.09962 5.98137 2.25061C5.9808 1.8494 5.98025 1.4626 5.98025 1.09694C4.38433 2.6911 2.69993 4.37195 1.08809 5.98026C1.40828 5.98026 1.74586 5.98187 2.09603 5.98353L2.09619 5.98353H2.0962C3.01919 5.98792 4.02955 5.99273 5.03898 5.96964ZM32.6103 5.2071C33.357 4.06235 34.707 3.74034 35.8287 4.40383C36.9363 5.06025 37.3026 6.40316 36.678 7.60984C36.4746 8.0043 36.2484 8.38689 36.0028 8.80223L36.0026 8.80245C35.8935 8.98692 35.7806 9.17785 35.6642 9.37916C34.2629 8.56704 32.9306 7.79562 31.57 7.00827C31.6894 6.80027 31.8022 6.59707 31.9124 6.39842L31.9125 6.39839C32.1436 5.98199 32.3636 5.58563 32.6103 5.2071ZM20.8072 25.8427C20.816 25.6746 20.8903 25.4994 20.9753 25.3508V25.349C23.8357 20.3861 26.7002 15.4244 29.595 10.4102L30.9471 8.06808C32.2788 8.83913 33.5336 9.56533 34.8425 10.3229L34.8663 10.3367L34.8892 10.3499L35.0431 10.439C34.7807 10.897 34.521 11.351 34.263 11.802L34.2605 11.8064C33.6375 12.8956 33.0244 13.9674 32.4068 15.0374C31.7493 16.1763 31.0898 17.314 30.4303 18.4515L30.4303 18.4515L30.4303 18.4515C28.7969 21.2688 27.1638 24.0855 25.5631 26.9202C25.0907 27.7571 24.459 28.3232 23.6593 28.7868C23.1483 29.0835 22.6494 29.4017 22.1505 29.7198C21.9325 29.8588 21.7144 29.9978 21.4954 30.135C20.9806 30.4588 20.6391 30.3863 20.655 29.7122C20.6869 28.4223 20.7452 27.1325 20.8072 25.8427Z" fill="#2C8EEE"/>
</svg>
