<svg width="16" height="16" viewBox="0 0 16 16" fill="none" xmlns="http://www.w3.org/2000/svg">
<path d="M2.53659 2.9899L4.17972 2.0202V8.40404L7.95893 10.5051L11.8203 8.40404V4.0404L13.4634 5.0101V14.8687L11.8203 15.8384V10.3434L7.95893 12.5253L4.17972 10.3434V16L2.53659 14.8687V2.9899Z" fill="#2C8EEE"/>
<path d="M11.8203 2.18182V3.55556L13.3813 4.44444V3.07071L11.8203 2.18182Z" fill="#2C8EEE"/>
<path d="M10.9166 3.9596H7.6303V5.65657H9.27344V6.9495L7.95893 7.67677L6.64442 6.9495V2.74747L7.95893 2.0202L9.27344 2.74747V3.23232H10.9166V1.77778L7.95893 0L4.91913 1.77778V7.91919L7.95893 9.53535L10.9166 7.91919V3.9596Z" fill="#2C8EEE"/>
</svg>
